<svg width="1388" height="385" viewBox="0 0 1388 385" fill="none" xmlns="http://www.w3.org/2000/svg">
<g clip-path="url(#clip0)">
<path d="M143 100H329V286H143V100Z" fill="#F7DF1E"/>
<path d="M191.906 255.435L206.14 246.821C208.886 251.689 211.384 255.809 217.376 255.809C223.119 255.809 226.741 253.563 226.741 244.823V185.392H244.22V245.071C244.22 263.174 233.608 271.415 218.125 271.415C204.142 271.415 196.026 264.173 191.906 255.433L191.906 255.435ZM253.714 253.562L267.946 245.322C271.693 251.44 276.563 255.935 285.177 255.935C292.42 255.935 297.038 252.314 297.038 247.319C297.038 241.327 292.293 239.204 284.303 235.709L279.934 233.834C267.323 228.467 258.958 221.725 258.958 207.491C258.958 194.381 268.946 184.392 284.553 184.392C295.665 184.392 303.656 188.263 309.399 198.377L295.789 207.117C292.792 201.748 289.547 199.626 284.553 199.626C279.433 199.626 276.187 202.872 276.187 207.117C276.187 212.361 279.433 214.484 286.924 217.731L291.294 219.603C306.152 225.971 314.517 232.463 314.517 247.07C314.517 262.803 302.156 271.417 285.551 271.417C269.32 271.417 258.832 263.676 253.714 253.563" fill="black"/>
</g>
<path d="M1139.34 100.055C1147.49 99.954 1155.64 100.024 1163.79 100.02C1163.81 102.57 1163.85 105.12 1163.76 107.671C1158.11 107.632 1152.46 107.671 1146.82 107.706C1146.78 111.409 1146.71 115.112 1146.74 118.815C1152.41 118.85 1158.08 118.904 1163.75 118.881C1163.81 120.977 1163.79 123.081 1163.73 125.181C1155.6 125.126 1147.47 125.15 1139.34 125.157C1139.36 116.789 1139.38 108.424 1139.34 100.055Z" fill="#1B1F23"/>
<path d="M1166.7 100.028C1174.95 100.013 1183.2 99.9624 1191.46 100.056C1191.43 102.466 1191.45 104.873 1191.45 107.283C1185.45 107.264 1179.44 107.291 1173.43 107.361C1173.44 108.308 1173.44 109.255 1173.43 110.202C1179.43 110.299 1185.42 110.311 1191.42 110.346C1191.44 115.287 1191.43 120.225 1191.46 125.162C1183.2 125.146 1174.95 125.154 1166.69 125.193C1166.65 123.198 1166.64 121.207 1166.7 119.211C1172.42 119.227 1178.15 119.235 1183.87 119.188C1183.91 117.903 1183.92 116.615 1183.92 115.33C1178.17 115.33 1172.42 115.349 1166.67 115.31C1166.67 110.218 1166.67 105.121 1166.7 100.028Z" fill="#1B1F23"/>
<path d="M1194.22 100.071C1202.46 100.071 1210.7 100.071 1218.94 100.071C1218.97 102.493 1219.01 104.915 1218.93 107.334C1212.9 107.33 1206.87 107.365 1200.83 107.376C1200.85 108.366 1200.87 109.356 1200.92 110.346C1206.92 110.319 1212.92 110.392 1218.91 110.454C1218.96 115.372 1219 120.29 1218.93 125.208C1210.68 125.185 1202.42 125.185 1194.17 125.224C1194.11 123.237 1194.1 121.241 1194.18 119.254C1199.89 119.297 1205.61 119.289 1211.32 119.235C1211.34 117.946 1211.36 116.657 1211.35 115.372C1205.62 115.427 1199.88 115.396 1194.15 115.376C1194.15 110.276 1194.18 105.172 1194.22 100.071Z" fill="#1B1F23"/>
<path d="M1112.8 135.572C1157.02 135.568 1201.23 135.564 1245.45 135.572C1243.02 163.073 1240.62 190.574 1238.09 218.068C1236.58 235.64 1235.03 253.212 1233.39 270.772C1223.96 273.272 1214.61 276.121 1205.18 278.633C1196.52 281.175 1187.78 283.477 1179.12 286H1178.86C1170.61 283.547 1162.28 281.389 1154.03 278.935C1144.3 276.312 1134.65 273.385 1124.91 270.772C1123.64 257.61 1122.49 244.44 1121.37 231.269C1119.23 206.935 1116.92 182.617 1114.87 158.279C1114.16 150.955 1113.65 143.607 1112.8 136.298V135.572ZM1179.33 146.421C1179.24 151.704 1179.4 156.99 1179.24 162.269C1164.07 162.215 1148.9 162.258 1133.73 162.273C1133.99 167.401 1134.68 172.494 1135.38 177.579C1149.5 178.103 1163.63 177.559 1177.74 177.982C1165.39 183.521 1152.9 188.738 1140.49 194.161C1139.43 194.634 1138.29 194.992 1137.34 195.682C1137.45 201.315 1138.36 206.916 1138.75 212.536C1146.28 212.509 1153.8 212.389 1161.32 212.377C1167.35 212.346 1173.38 212.467 1179.41 212.335C1179.12 221.596 1179.5 230.869 1179.21 240.131C1175.16 239.529 1171.15 238.625 1167.11 237.907C1163.92 237.212 1160.66 236.851 1157.52 235.939C1157.07 231.494 1156.76 227.034 1156.37 222.586C1155.46 222.307 1154.49 222.334 1153.56 222.318C1149 222.345 1144.44 222.303 1139.88 222.372C1140.32 230.924 1141.09 239.463 1142.4 247.933C1146.89 249.105 1151.4 250.254 1155.88 251.477C1162.76 253.348 1169.72 254.904 1176.6 256.744C1177.42 256.919 1178.25 257.222 1179.1 257.152C1179.56 262.776 1179.21 268.436 1179.29 274.076C1180.88 273.82 1182.44 273.427 1183.97 272.954C1197.01 269.414 1210.03 265.808 1223.05 262.233C1223.7 257.109 1224 251.95 1224.52 246.815C1225.87 231.203 1227.24 215.591 1228.66 199.983C1230.32 182.128 1231.76 164.253 1233.44 146.398C1215.4 146.413 1197.37 146.363 1179.33 146.421Z" fill="#0170BA"/>
<path d="M1179.33 146.421C1197.37 146.363 1215.4 146.413 1233.44 146.398C1231.76 164.253 1230.32 182.128 1228.66 199.984C1227.24 215.592 1225.87 231.203 1224.52 246.815C1224 251.951 1223.7 257.109 1223.05 262.233C1210.03 265.808 1197.01 269.414 1183.97 272.954C1182.44 273.428 1180.88 273.82 1179.29 274.076C1179.21 268.436 1179.56 262.777 1179.1 257.152C1179.22 257.129 1179.45 257.082 1179.57 257.059C1191.69 254.016 1203.73 250.666 1215.83 247.514C1217.36 230.357 1219.05 213.208 1220.13 196.016C1209.84 196.071 1199.55 196.04 1189.27 196.082C1187.77 196.09 1186.27 196.082 1184.78 195.974C1190.31 193.125 1196.14 190.866 1201.82 188.323C1207.27 185.851 1212.79 183.533 1218.27 181.107C1219.32 180.622 1220.45 180.218 1221.38 179.496C1221.74 178.157 1221.72 176.756 1221.86 175.386C1222.18 171.038 1222.74 166.714 1222.95 162.363C1208.38 162.246 1193.81 162.347 1179.24 162.27C1179.4 156.991 1179.24 151.704 1179.33 146.421Z" fill="#29A9DF"/>
<path d="M1179.41 212.334C1186.44 212.214 1193.48 212.404 1200.52 212.357C1200.12 219.55 1199.53 226.731 1199.15 233.924C1194.84 235.333 1190.46 236.524 1186.11 237.829C1183.8 238.535 1181.42 239.094 1179.21 240.13C1179.5 230.869 1179.12 221.596 1179.41 212.334Z" fill="#29A9DF"/>
<path d="M1133.73 162.274C1148.9 162.258 1164.07 162.215 1179.24 162.27C1179.44 178.961 1179.19 195.652 1179.41 212.335C1173.38 212.467 1167.35 212.347 1161.32 212.378C1153.8 212.389 1146.28 212.51 1138.75 212.537C1138.36 206.916 1137.45 201.315 1137.34 195.683C1138.29 194.992 1139.43 194.635 1140.49 194.161C1152.9 188.739 1165.39 183.522 1177.74 177.983C1163.63 177.559 1149.5 178.103 1135.38 177.579C1134.68 172.494 1133.99 167.401 1133.73 162.274Z" fill="#CFCFCF"/>
<path d="M1139.88 222.373C1144.44 222.303 1149 222.346 1153.56 222.319C1154.49 222.334 1155.46 222.307 1156.37 222.587C1156.76 227.035 1157.07 231.495 1157.52 235.939C1160.66 236.852 1163.92 237.213 1167.11 237.907C1171.15 238.626 1175.16 239.53 1179.21 240.132C1179.6 245.768 1178.92 251.443 1179.57 257.059C1179.45 257.083 1179.22 257.129 1179.1 257.153C1178.25 257.222 1177.42 256.92 1176.6 256.745C1169.72 254.905 1162.76 253.349 1155.88 251.478C1151.4 250.255 1146.89 249.106 1142.4 247.934C1141.09 239.464 1140.32 230.924 1139.88 222.373Z" fill="#CFCFCF"/>
<path d="M1179.24 162.27C1193.81 162.347 1208.38 162.246 1222.95 162.363C1222.74 166.714 1222.18 171.038 1221.86 175.386C1221.72 176.756 1221.74 178.157 1221.38 179.496C1220.45 180.218 1219.32 180.622 1218.27 181.107C1212.79 183.533 1207.27 185.85 1201.82 188.323C1196.14 190.865 1190.31 193.125 1184.78 195.974C1186.27 196.082 1187.77 196.09 1189.27 196.082C1199.55 196.04 1209.84 196.071 1220.13 196.016C1219.05 213.208 1217.36 230.357 1215.83 247.514C1203.73 250.666 1191.69 254.016 1179.57 257.059C1178.92 251.442 1179.6 245.767 1179.21 240.131C1181.42 239.095 1183.8 238.536 1186.11 237.829C1190.46 236.525 1194.84 235.333 1199.15 233.924C1199.53 226.732 1200.12 219.551 1200.52 212.358C1193.48 212.405 1186.44 212.214 1179.41 212.335C1179.19 195.651 1179.44 178.96 1179.24 162.27Z" fill="white"/>
<path d="M667.279 100H675.634V108.283H683.336V100H691.691V125.067H683.336V116.711H675.707V125.067H667.279V100ZM702.735 108.356H695.361V100H718.502V108.356H711.091V125.067H702.735V108.356ZM722.171 100H730.926L736.302 108.828L741.679 100H750.434V125.067H742.079V112.642L736.23 121.652L730.381 112.642V125.067H722.171V100ZM754.575 100H762.931V116.784H774.774V125.067H754.575" fill="#1B1F23"/>
<path d="M666.988 271.106L655 136.546H786.799L774.81 271.033L720.79 286" fill="#E44D26"/>
<path d="M720.899 274.557V147.59H774.774L764.493 262.387" fill="#F16529"/>
<path d="M679.485 164.047H720.899V180.54H697.577L699.103 197.432H720.899V213.889H683.99L679.485 164.047ZM684.717 222.172H701.282L702.445 235.359L720.899 240.299V257.519L687.042 248.074" fill="#EBEBEB"/>
<path d="M762.168 164.047H720.827V180.54H760.642L762.168 164.047ZM759.153 197.432H720.827V213.925H741.17L739.245 235.359L720.827 240.299V257.446L754.612 248.074" fill="white"/>
<defs>
<clipPath id="clip0">
<rect width="186" height="186" fill="white" transform="translate(143 100)"/>
</clipPath>
</defs>
</svg>
