<svg width="220" height="220" viewBox="0 0 220 220" fill="none" xmlns="http://www.w3.org/2000/svg">
<rect width="220" height="220" fill="white"/>
<path d="M92.4 103.9C86.7 103.9 82.2 108.9 82.2 115C82.2 121.1 86.8 126.1 92.4 126.1C98.1 126.1 102.6 121.1 102.6 115C102.7 108.9 98.1 103.9 92.4 103.9ZM128.9 103.9C123.2 103.9 118.7 108.9 118.7 115C118.7 121.1 123.3 126.1 128.9 126.1C134.6 126.1 139.1 121.1 139.1 115C139.1 108.9 134.6 103.9 128.9 103.9Z" fill="#7289DA"/>
<path d="M177.5 20H43.5C32.2 20 23 29.2 23 40.6V175.8C23 187.2 32.2 196.4 43.5 196.4H156.9L151.6 177.9L164.4 189.8L176.5 201L198 220V40.6C198 29.2 188.8 20 177.5 20ZM138.9 150.6C138.9 150.6 135.3 146.3 132.3 142.5C145.4 138.8 150.4 130.6 150.4 130.6C146.3 133.3 142.4 135.2 138.9 136.5C133.9 138.6 129.1 140 124.4 140.8C114.8 142.6 106 142.1 98.5 140.7C92.8 139.6 87.9 138 83.8 136.4C81.5 135.5 79 134.4 76.5 133C76.2 132.8 75.9 132.7 75.6 132.5C75.4 132.4 75.3 132.3 75.2 132.2C73.4 131.2 72.4 130.5 72.4 130.5C72.4 130.5 77.2 138.5 89.9 142.3C86.9 146.1 83.2 150.6 83.2 150.6C61.1 149.9 52.7 135.4 52.7 135.4C52.7 103.2 67.1 77.1 67.1 77.1C81.5 66.3 95.2 66.6 95.2 66.6L96.2 67.8C78.2 73 69.9 80.9 69.9 80.9C69.9 80.9 72.1 79.7 75.8 78C86.5 73.3 95 72 98.5 71.7C99.1 71.6 99.6 71.5 100.2 71.5C106.3 70.7 113.2 70.5 120.4 71.3C129.9 72.4 140.1 75.2 150.5 80.9C150.5 80.9 142.6 73.4 125.6 68.2L127 66.6C127 66.6 140.7 66.3 155.1 77.1C155.1 77.1 169.5 103.2 169.5 135.4C169.5 135.4 161 149.9 138.9 150.6V150.6Z" fill="#7289DA"/>
</svg>
