<svg width="200" height="200" viewBox="0 0 200 200" fill="none" xmlns="http://www.w3.org/2000/svg">
<path d="M106.461 99.6553L83.8594 77V122.257L106.461 99.6553Z" fill="black"/>
<path d="M61.2574 99.6553L83.8595 77H38.6553L61.2574 99.6553Z" fill="black"/>
<path d="M16 99.6553L38.6553 122.257V77L16 99.6553Z" fill="black"/>
<path d="M61.2574 99.6553L38.6553 122.257H83.8595L61.2574 99.6553Z" fill="black"/>
<path d="M126.298 100.985H118.108V109.068H114.013V90.1357H118.108V97.9002H126.298V90.1357H130.393V109.068H126.298V100.985Z" fill="black"/>
<path d="M140.285 109.441C136.19 109.441 132.84 107.792 132.786 103.272H136.881C136.935 105.293 138.105 106.516 140.338 106.516C141.987 106.516 143.901 105.665 143.901 103.803C143.901 102.314 142.625 101.889 140.498 101.251L139.115 100.879C136.137 100.028 133.159 98.8576 133.159 95.454C133.159 91.2527 137.094 89.8168 140.657 89.8168C144.327 89.8168 147.518 91.0931 147.571 95.2945H143.476C143.316 93.5927 142.306 92.5822 140.391 92.5822C138.849 92.5822 137.36 93.3799 137.36 95.0817C137.36 96.4644 138.636 96.8899 141.295 97.7408L142.891 98.2194C146.135 99.2299 148.209 100.347 148.209 103.538C148.156 107.792 144.008 109.441 140.285 109.441Z" fill="black"/>
<path d="M150.496 90.189H157.09C158.314 90.1358 159.59 90.189 160.813 90.4017C163.1 90.9335 164.855 92.4226 164.855 94.9753C164.855 97.4217 163.313 98.6448 161.079 99.2298C163.632 99.7085 165.546 100.985 165.546 103.803C165.546 108.111 161.292 109.068 157.994 109.068H150.549L150.496 90.189ZM157.09 98.0598C158.899 98.0598 160.76 97.6876 160.76 95.5071C160.76 93.5394 159.058 93.0076 157.356 93.0076H154.484V98.0598H157.09V98.0598ZM157.463 106.25C159.377 106.25 161.238 105.824 161.238 103.484C161.238 101.144 159.643 100.719 157.675 100.719H154.431V106.25H157.463Z" fill="black"/>
<path d="M176.182 109.441C170.067 109.441 167.354 105.558 167.354 99.7617C167.354 93.9649 170.386 89.7635 176.395 89.7635C180.171 89.7635 183.84 91.4654 183.947 95.7199H179.692C179.48 93.8053 178.203 92.8481 176.395 92.8481C172.672 92.8481 171.556 96.8367 171.556 99.868C171.556 102.899 172.672 106.409 176.236 106.409C178.097 106.409 179.48 105.399 179.746 103.484H184C183.575 107.845 180.118 109.441 176.182 109.441Z" fill="black"/>
</svg>
