<svg width="200" height="200" viewBox="0 0 200 200" fill="none" xmlns="http://www.w3.org/2000/svg">
<path d="M106.077 99.7306L84.8202 78.4238V120.987L106.077 99.7306Z" fill="black"/>
<path d="M63.5634 99.7306L84.8201 78.4238H42.3066L63.5634 99.7306Z" fill="black"/>
<path d="M21 99.7306L42.3067 120.987V78.4238L21 99.7306Z" fill="black"/>
<path d="M63.5634 99.7344L42.3066 120.991H84.8201L63.5634 99.7344Z" fill="black"/>
<path d="M124.733 100.986H117.03V108.589H113.179V90.7832H117.03V98.0855H124.733V90.7832H128.584V108.589H124.733V100.986Z" fill="black"/>
<path d="M137.887 108.934C134.036 108.934 130.885 107.384 130.835 103.133H134.686C134.736 105.033 135.836 106.183 137.937 106.183C139.488 106.183 141.288 105.383 141.288 103.633C141.288 102.232 140.088 101.832 138.087 101.232L136.787 100.882C133.986 100.082 131.185 98.9812 131.185 95.7802C131.185 91.8289 134.886 90.4785 138.237 90.4785C141.688 90.4785 144.689 91.6789 144.739 95.6301H140.888C140.738 94.0296 139.788 93.0793 137.987 93.0793C136.537 93.0793 135.136 93.8296 135.136 95.4301C135.136 96.7305 136.337 97.1306 138.837 97.9309L140.338 98.381C143.389 99.3313 145.339 100.382 145.339 103.383C145.289 107.384 141.388 108.934 137.887 108.934Z" fill="black"/>
<path d="M147.49 90.8286H153.692C154.842 90.7786 156.043 90.8286 157.193 91.0287C159.344 91.5288 160.994 92.9293 160.994 95.33C160.994 97.6307 159.544 98.7811 157.443 99.3313C159.844 99.7814 161.644 100.982 161.644 103.633C161.644 107.684 157.643 108.584 154.542 108.584H147.54L147.49 90.8286ZM153.692 98.2309C155.392 98.2309 157.143 97.8808 157.143 95.8302C157.143 93.9796 155.543 93.4794 153.942 93.4794H151.241V98.2309H153.692V98.2309ZM154.042 105.933C155.843 105.933 157.593 105.533 157.593 103.333C157.593 101.132 156.093 100.732 154.242 100.732H151.191V105.933H154.042Z" fill="black"/>
<path d="M171.648 108.934C165.896 108.934 163.345 105.282 163.345 99.8307C163.345 94.379 166.196 90.4277 171.848 90.4277C175.399 90.4277 178.85 92.0282 178.95 96.0295H174.949C174.749 94.2289 173.548 93.3287 171.848 93.3287C168.347 93.3287 167.296 97.0798 167.296 99.9307C167.296 102.782 168.347 106.083 171.698 106.083C173.448 106.083 174.749 105.132 174.999 103.332H179C178.6 107.433 175.349 108.934 171.648 108.934Z" fill="black"/>
</svg>
