<svg width="200" height="200" viewBox="0 0 200 200" fill="none" xmlns="http://www.w3.org/2000/svg">
<path d="M106.461 99.6553L83.8594 77V122.257L106.461 99.6553Z" fill="black"/>
<path d="M61.2574 99.6553L83.8595 77H38.6553L61.2574 99.6553Z" fill="black"/>
<path d="M16 99.6553L38.6553 122.257V77L16 99.6553Z" fill="black"/>
<path d="M61.2574 99.6553L38.6553 122.257H83.8595L61.2574 99.6553Z" fill="black"/>
<path d="M126.298 100.985H118.108V109.068H114.013V90.1357H118.108V97.9002H126.298V90.1357H130.393V109.068H126.298V100.985Z" fill="black"/>
<path d="M140.285 109.441C136.19 109.441 132.839 107.792 132.786 103.272H136.881C136.934 105.292 138.104 106.516 140.338 106.516C141.987 106.516 143.901 105.665 143.901 103.803C143.901 102.314 142.625 101.889 140.497 101.251L139.115 100.878C136.137 100.027 133.158 98.8575 133.158 95.4539C133.158 91.2525 137.094 89.8167 140.657 89.8167C144.326 89.8167 147.517 91.093 147.571 95.2943H143.476C143.316 93.5925 142.306 92.5821 140.391 92.5821C138.849 92.5821 137.36 93.3798 137.36 95.0816C137.36 96.4643 138.636 96.8898 141.295 97.7407L142.891 98.2193C146.135 99.2298 148.209 100.347 148.209 103.537C148.156 107.792 144.007 109.441 140.285 109.441Z" fill="black"/>
<path d="M150.496 90.1891H157.09C158.313 90.1359 159.59 90.1891 160.813 90.4018C163.1 90.9336 164.855 92.4227 164.855 94.9754C164.855 97.4218 163.312 98.6449 161.079 99.2299C163.631 99.7086 165.546 100.985 165.546 103.804C165.546 108.111 161.291 109.068 157.994 109.068H150.549L150.496 90.1891ZM157.09 98.0599C158.898 98.0599 160.76 97.6877 160.76 95.5072C160.76 93.5395 159.058 93.0077 157.356 93.0077H154.484V98.0599H157.09V98.0599ZM157.462 106.25C159.377 106.25 161.238 105.824 161.238 103.484C161.238 101.144 159.643 100.719 157.675 100.719H154.431V106.25H157.462Z" fill="black"/>
<path d="M176.182 109.441C170.066 109.441 167.354 105.558 167.354 99.7615C167.354 93.9648 170.385 89.7634 176.395 89.7634C180.171 89.7634 183.84 91.4652 183.947 95.7197H179.692C179.479 93.8052 178.203 92.8479 176.395 92.8479C172.672 92.8479 171.555 96.8366 171.555 99.8679C171.555 102.899 172.672 106.409 176.235 106.409C178.097 106.409 179.479 105.399 179.745 103.484H184C183.574 107.845 180.118 109.441 176.182 109.441Z" fill="black"/>
<rect x="53" y="145" width="94" height="23.5" rx="3.525" fill="black"/>
<path d="M68.4483 158.741C68.3552 159.727 67.9913 160.497 67.3565 161.052C66.7218 161.602 65.8775 161.877 64.8238 161.877C64.0875 161.877 63.4379 161.703 62.8751 161.356C62.3165 161.005 61.8849 160.508 61.5802 159.865C61.2755 159.222 61.1168 158.475 61.1041 157.624V156.761C61.1041 155.889 61.2586 155.121 61.5675 154.457C61.8764 153.792 62.3186 153.28 62.8941 152.92C63.4739 152.561 64.1425 152.381 64.9 152.381C65.9199 152.381 66.7408 152.658 67.3629 153.212C67.985 153.767 68.3468 154.55 68.4483 155.561H66.8487C66.7726 154.897 66.5779 154.418 66.2647 154.126C65.9558 153.83 65.5009 153.682 64.9 153.682C64.2018 153.682 63.6643 153.938 63.2877 154.45C62.9153 154.958 62.7249 155.705 62.7164 156.691V157.51C62.7164 158.508 62.8941 159.27 63.2496 159.795C63.6093 160.32 64.1341 160.582 64.8238 160.582C65.4544 160.582 65.9283 160.44 66.2457 160.157C66.5631 159.873 66.7641 159.401 66.8487 158.741H68.4483ZM69.6463 158.252C69.6463 157.58 69.7796 156.974 70.0462 156.437C70.3128 155.895 70.6873 155.481 71.1697 155.193C71.6521 154.901 72.2065 154.755 72.8328 154.755C73.7596 154.755 74.5107 155.053 75.0862 155.65C75.666 156.247 75.9791 157.038 76.0257 158.024L76.032 158.386C76.032 159.063 75.9008 159.668 75.6385 160.201C75.3803 160.734 75.0079 161.147 74.5213 161.439C74.0388 161.731 73.4803 161.877 72.8455 161.877C71.8764 161.877 71.0999 161.555 70.5159 160.912C69.9361 160.265 69.6463 159.403 69.6463 158.329V158.252ZM71.1888 158.386C71.1888 159.092 71.3347 159.647 71.6267 160.049C71.9187 160.447 72.325 160.646 72.8455 160.646C73.366 160.646 73.7701 160.442 74.0579 160.036C74.3499 159.63 74.4959 159.035 74.4959 158.252C74.4959 157.558 74.3457 157.008 74.0452 156.602C73.749 156.196 73.3448 155.993 72.8328 155.993C72.3292 155.993 71.9293 156.194 71.6331 156.596C71.3369 156.993 71.1888 157.59 71.1888 158.386ZM78.9819 154.882L79.0263 155.599C79.5088 155.036 80.1689 154.755 81.0068 154.755C81.9251 154.755 82.5535 155.106 82.8921 155.809C83.3914 155.106 84.0939 154.755 84.9995 154.755C85.757 154.755 86.3198 154.964 86.688 155.383C87.0603 155.802 87.2508 156.42 87.2592 157.237V161.75H85.7168V157.281C85.7168 156.845 85.6215 156.526 85.4311 156.323C85.2407 156.12 84.9254 156.018 84.4853 156.018C84.1341 156.018 83.8463 156.113 83.622 156.304C83.402 156.49 83.2475 156.735 83.1587 157.04L83.165 161.75H81.6225V157.23C81.6014 156.422 81.1888 156.018 80.3847 156.018C79.7669 156.018 79.3289 156.27 79.0708 156.773V161.75H77.5283V154.882H78.9819ZM90.6788 161.75H89.1364V154.882H90.6788V161.75ZM89.0412 153.098C89.0412 152.861 89.1152 152.664 89.2633 152.508C89.4157 152.351 89.6315 152.273 89.9108 152.273C90.1901 152.273 90.4059 152.351 90.5582 152.508C90.7106 152.664 90.7868 152.861 90.7868 153.098C90.7868 153.331 90.7106 153.526 90.5582 153.682C90.4059 153.834 90.1901 153.911 89.9108 153.911C89.6315 153.911 89.4157 153.834 89.2633 153.682C89.1152 153.526 89.0412 153.331 89.0412 153.098ZM93.9905 154.882L94.035 155.675C94.5428 155.062 95.2093 154.755 96.0345 154.755C97.4648 154.755 98.1927 155.574 98.2181 157.211V161.75H96.6756V157.3C96.6756 156.864 96.5804 156.543 96.39 156.335C96.2038 156.124 95.897 156.018 95.4696 156.018C94.8475 156.018 94.3841 156.299 94.0794 156.862V161.75H92.5369V154.882H93.9905ZM99.7207 158.265C99.7207 157.199 99.9704 156.348 100.47 155.713C100.973 155.074 101.64 154.755 102.469 154.755C103.252 154.755 103.868 155.028 104.316 155.574L104.386 154.882H105.776V161.541C105.776 162.442 105.495 163.153 104.932 163.673C104.374 164.194 103.618 164.454 102.666 164.454C102.162 164.454 101.669 164.348 101.187 164.137C100.709 163.929 100.345 163.656 100.095 163.318L100.825 162.391C101.299 162.954 101.883 163.235 102.577 163.235C103.089 163.235 103.493 163.096 103.79 162.816C104.086 162.541 104.234 162.135 104.234 161.598V161.134C103.79 161.629 103.197 161.877 102.457 161.877C101.653 161.877 100.994 161.557 100.482 160.918C99.9746 160.279 99.7207 159.395 99.7207 158.265ZM101.257 158.398C101.257 159.088 101.396 159.632 101.676 160.03C101.959 160.423 102.351 160.62 102.85 160.62C103.472 160.62 103.933 160.354 104.234 159.82V156.799C103.942 156.278 103.485 156.018 102.863 156.018C102.355 156.018 101.959 156.219 101.676 156.621C101.396 157.023 101.257 157.616 101.257 158.398ZM114.844 159.884C114.844 159.609 114.729 159.399 114.501 159.255C114.277 159.111 113.902 158.985 113.377 158.875C112.853 158.764 112.415 158.625 112.063 158.456C111.293 158.083 110.908 157.544 110.908 156.837C110.908 156.244 111.158 155.749 111.657 155.352C112.156 154.954 112.791 154.755 113.561 154.755C114.382 154.755 115.045 154.958 115.548 155.364C116.056 155.771 116.31 156.297 116.31 156.945H114.767C114.767 156.649 114.657 156.403 114.437 156.208C114.217 156.01 113.925 155.91 113.561 155.91C113.223 155.91 112.946 155.988 112.73 156.145C112.518 156.302 112.412 156.511 112.412 156.773C112.412 157.01 112.512 157.194 112.711 157.326C112.91 157.457 113.312 157.59 113.917 157.726C114.522 157.857 114.996 158.015 115.339 158.202C115.686 158.384 115.942 158.604 116.107 158.862C116.276 159.12 116.361 159.433 116.361 159.801C116.361 160.419 116.105 160.921 115.593 161.306C115.081 161.687 114.41 161.877 113.58 161.877C113.018 161.877 112.516 161.775 112.076 161.572C111.636 161.369 111.293 161.09 111.048 160.734C110.802 160.379 110.68 159.996 110.68 159.585H112.178C112.199 159.949 112.336 160.231 112.59 160.43C112.844 160.624 113.181 160.722 113.599 160.722C114.006 160.722 114.315 160.646 114.526 160.493C114.738 160.337 114.844 160.133 114.844 159.884ZM117.616 158.252C117.616 157.58 117.749 156.974 118.016 156.437C118.282 155.895 118.657 155.481 119.139 155.193C119.622 154.901 120.176 154.755 120.802 154.755C121.729 154.755 122.48 155.053 123.056 155.65C123.635 156.247 123.949 157.038 123.995 158.024L124.002 158.386C124.002 159.063 123.87 159.668 123.608 160.201C123.35 160.734 122.977 161.147 122.491 161.439C122.008 161.731 121.45 161.877 120.815 161.877C119.846 161.877 119.069 161.555 118.485 160.912C117.906 160.265 117.616 159.403 117.616 158.329V158.252ZM119.158 158.386C119.158 159.092 119.304 159.647 119.596 160.049C119.888 160.447 120.294 160.646 120.815 160.646C121.335 160.646 121.74 160.442 122.027 160.036C122.319 159.63 122.465 159.035 122.465 158.252C122.465 157.558 122.315 157.008 122.015 156.602C121.718 156.196 121.314 155.993 120.802 155.993C120.299 155.993 119.899 156.194 119.603 156.596C119.306 156.993 119.158 157.59 119.158 158.386ZM125.212 158.252C125.212 157.58 125.345 156.974 125.612 156.437C125.879 155.895 126.253 155.481 126.736 155.193C127.218 154.901 127.772 154.755 128.399 154.755C129.325 154.755 130.077 155.053 130.652 155.65C131.232 156.247 131.545 157.038 131.592 158.024L131.598 158.386C131.598 159.063 131.467 159.668 131.204 160.201C130.946 160.734 130.574 161.147 130.087 161.439C129.605 161.731 129.046 161.877 128.411 161.877C127.442 161.877 126.666 161.555 126.082 160.912C125.502 160.265 125.212 159.403 125.212 158.329V158.252ZM126.755 158.386C126.755 159.092 126.901 159.647 127.193 160.049C127.485 160.447 127.891 160.646 128.411 160.646C128.932 160.646 129.336 160.442 129.624 160.036C129.916 159.63 130.062 159.035 130.062 158.252C130.062 157.558 129.912 157.008 129.611 156.602C129.315 156.196 128.911 155.993 128.399 155.993C127.895 155.993 127.495 156.194 127.199 156.596C126.903 156.993 126.755 157.59 126.755 158.386ZM134.529 154.882L134.573 155.675C135.081 155.062 135.747 154.755 136.573 154.755C138.003 154.755 138.731 155.574 138.756 157.211V161.75H137.214V157.3C137.214 156.864 137.119 156.543 136.928 156.335C136.742 156.124 136.435 156.018 136.008 156.018C135.386 156.018 134.922 156.299 134.618 156.862V161.75H133.075V154.882H134.529Z" fill="white"/>
</svg>
