<svg width="512" height="512" viewBox="0 0 512 512" fill="none" xmlns="http://www.w3.org/2000/svg">
<g clip-path="url(#clip0)">
<path d="M108.8 0H131.8V22.8H153V0H176V69H153V46H132V69H108.8V0ZM206.4 23H186.1V0H249.8V23H229.4V69H206.4V23ZM259.9 0H284L298.8 24.3L313.6 0H337.7V69H314.7V34.8L298.6 59.6L282.5 34.8V69H259.9V0ZM349.1 0H372.1V46.2H404.7V69H349.1" fill="white" fill-opacity="0.85"/>
<path d="M108 471L75 100.6H437.8L404.8 470.8L256.1 512" fill="#E44D26"/>
<path d="M256.4 480.5V131H404.7L376.4 447" fill="#F16529"/>
<path d="M142.4 176.3H256.4V221.7H192.2L196.4 268.2H256.4V313.5H154.8L142.4 176.3ZM156.8 336.3H202.4L205.6 372.6L256.4 386.2V433.6L163.2 407.6" fill="#EBEBEB"/>
<path d="M370 176.3H256.2V221.7H365.8L370 176.3ZM361.7 268.2H256.2V313.6H312.2L306.9 372.6L256.2 386.2V433.4L349.2 407.6" fill="white"/>
</g>
<defs>
<clipPath id="clip0">
<rect width="512" height="512" fill="white"/>
</clipPath>
</defs>
</svg>
