<svg width="200" height="200" viewBox="0 0 200 200" fill="none" xmlns="http://www.w3.org/2000/svg">
<path d="M37.5769 109.211V92.5592H41.6056L41.9413 95.48H42.0756C42.6799 94.3385 43.4073 93.4992 44.2578 92.962C45.1082 92.4249 45.9587 92.1563 46.8092 92.1563C47.2792 92.1563 47.6597 92.1899 47.9507 92.257C48.264 92.3018 48.5438 92.3801 48.79 92.492L47.9843 96.7557C47.6709 96.6662 47.38 96.599 47.1114 96.5543C46.8428 96.5095 46.5295 96.4871 46.1714 96.4871C45.5447 96.4871 44.8844 96.7109 44.1906 97.1586C43.5192 97.6062 42.9596 98.4007 42.512 99.5422V109.211H37.5769ZM55.2311 98.1321L54.694 100.146H59.3605L58.8569 98.1321C58.5435 97.0355 58.2414 95.8716 57.9504 94.6407C57.6595 93.4097 57.3685 92.2235 57.0776 91.082H56.9433C56.6747 92.2458 56.3949 93.4432 56.104 94.6742C55.8354 95.8828 55.5444 97.0355 55.2311 98.1321ZM47.3081 109.211L54.1568 87.3219H60.0991L66.9478 109.211H61.7105L60.3676 104.007H53.6868L52.3439 109.211H47.3081ZM74.2075 109.614C73.1779 109.614 72.2379 109.412 71.3874 109.01C70.5593 108.607 69.8431 108.036 69.2388 107.297C68.6569 106.536 68.1981 105.619 67.8623 104.544C67.549 103.47 67.3923 102.25 67.3923 100.885C67.3923 99.5198 67.5826 98.3 67.9631 97.2257C68.3659 96.1514 68.8807 95.2449 69.5074 94.5064C70.1564 93.7454 70.895 93.1635 71.7231 92.7606C72.5736 92.3577 73.4353 92.1563 74.3082 92.1563C75.2482 92.1563 76.0204 92.313 76.6247 92.6263C77.229 92.9397 77.8221 93.3649 78.404 93.9021L78.2025 91.3506V85.6769H83.1376V109.211H79.109L78.7733 107.566H78.639C78.0571 108.148 77.3744 108.64 76.5911 109.043C75.8077 109.424 75.0132 109.614 74.2075 109.614ZM75.4832 105.585C76.0204 105.585 76.5016 105.473 76.9268 105.249C77.3744 105.026 77.7997 104.634 78.2025 104.074V97.2593C77.7549 96.8564 77.2961 96.5766 76.8261 96.42C76.3561 96.2633 75.8973 96.185 75.4496 96.185C74.6663 96.185 73.9725 96.5655 73.3682 97.3264C72.7639 98.065 72.4617 99.2288 72.4617 100.818C72.4617 102.474 72.7191 103.683 73.2339 104.444C73.771 105.205 74.5208 105.585 75.4832 105.585ZM91.0352 109.614C90.2742 109.614 89.5804 109.48 88.9537 109.211C88.3494 108.965 87.8347 108.618 87.4094 108.17C86.9842 107.7 86.6485 107.163 86.4023 106.559C86.1784 105.954 86.0665 105.294 86.0665 104.578C86.0665 102.832 86.8051 101.467 88.2823 100.482C89.7595 99.4974 92.1431 98.8372 95.4332 98.5014C95.3884 97.7629 95.1646 97.1809 94.7617 96.7557C94.3812 96.3081 93.7322 96.0843 92.8145 96.0843C92.0983 96.0843 91.3821 96.2185 90.6659 96.4871C89.9721 96.7557 89.2223 97.125 88.4166 97.595L86.6373 94.3385C87.7116 93.6894 88.8306 93.1635 89.9945 92.7606C91.1807 92.3577 92.434 92.1563 93.7545 92.1563C95.9032 92.1563 97.537 92.7718 98.6561 94.0028C99.7975 95.2114 100.368 97.1026 100.368 99.6765V109.211H96.3396L96.0039 107.499H95.8696C95.1534 108.125 94.4036 108.64 93.6203 109.043C92.8369 109.424 91.9752 109.614 91.0352 109.614ZM92.7138 105.787C93.2733 105.787 93.7545 105.663 94.1574 105.417C94.5603 105.171 94.9855 104.824 95.4332 104.377V101.456C93.6874 101.702 92.4788 102.06 91.8074 102.53C91.1359 103 90.8002 103.56 90.8002 104.209C90.8002 104.746 90.9681 105.149 91.3038 105.417C91.6619 105.663 92.1319 105.787 92.7138 105.787ZM103.871 109.211V92.5592H107.9L108.236 94.7078H108.37C109.064 94.014 109.802 93.4209 110.586 92.9285C111.369 92.4137 112.309 92.1563 113.406 92.1563C114.592 92.1563 115.543 92.4025 116.259 92.8949C116.998 93.3649 117.58 94.0475 118.005 94.9428C118.744 94.1818 119.516 93.5328 120.322 92.9956C121.15 92.4361 122.123 92.1563 123.242 92.1563C125.033 92.1563 126.342 92.7606 127.17 93.9692C128.021 95.1554 128.446 96.7893 128.446 98.8707V109.211H123.511V99.5086C123.511 98.3 123.343 97.4719 123.007 97.0243C122.694 96.5766 122.179 96.3528 121.463 96.3528C120.635 96.3528 119.684 96.89 118.609 97.9643V109.211H113.674V99.5086C113.674 98.3 113.506 97.4719 113.171 97.0243C112.857 96.5766 112.343 96.3528 111.626 96.3528C110.776 96.3528 109.836 96.89 108.806 97.9643V109.211H103.871ZM131.045 109.211V106.391C132.411 105.115 133.653 103.929 134.772 102.832C135.913 101.713 136.887 100.672 137.693 99.71C138.521 98.7253 139.159 97.8188 139.606 96.9907C140.076 96.1402 140.311 95.3345 140.311 94.5735C140.311 93.5216 140.043 92.727 139.505 92.1899C138.968 91.6304 138.23 91.3506 137.29 91.3506C136.506 91.3506 135.813 91.5744 135.208 92.022C134.604 92.4473 134.033 92.9509 133.496 93.5328L130.81 90.8806C131.862 89.7615 132.936 88.9222 134.033 88.3627C135.13 87.7808 136.439 87.4898 137.961 87.4898C139.013 87.4898 139.964 87.6577 140.815 87.9934C141.688 88.3067 142.437 88.7655 143.064 89.3698C143.691 89.9518 144.172 90.6568 144.508 91.4849C144.843 92.313 145.011 93.2418 145.011 94.2714C145.011 95.1666 144.821 96.0843 144.441 97.0243C144.06 97.9419 143.545 98.8707 142.896 99.8108C142.27 100.728 141.542 101.657 140.714 102.597C139.908 103.515 139.069 104.421 138.196 105.317C138.733 105.249 139.326 105.193 139.975 105.149C140.647 105.082 141.24 105.048 141.755 105.048H146.052V109.211H131.045ZM155.026 109.614C153.281 109.614 151.804 109.345 150.595 108.808C149.386 108.249 148.39 107.51 147.607 106.592L149.89 103.47C150.539 104.097 151.244 104.612 152.005 105.014C152.788 105.417 153.639 105.619 154.556 105.619C155.608 105.619 156.448 105.406 157.074 104.981C157.701 104.533 158.014 103.907 158.014 103.101C158.014 102.631 157.925 102.206 157.746 101.825C157.589 101.445 157.298 101.131 156.873 100.885C156.448 100.616 155.866 100.415 155.127 100.281C154.389 100.124 153.437 100.046 152.274 100.046V96.5543C153.236 96.5543 154.031 96.4871 154.657 96.3528C155.306 96.2185 155.821 96.0283 156.202 95.7821C156.604 95.5135 156.884 95.2114 157.041 94.8757C157.22 94.5176 157.309 94.1259 157.309 93.7006C157.309 92.962 157.086 92.3913 156.638 91.9885C156.19 91.5632 155.541 91.3506 154.691 91.3506C153.93 91.3506 153.236 91.5184 152.609 91.8542C152.005 92.1899 151.367 92.6487 150.696 93.2306L148.211 90.2091C149.196 89.3586 150.226 88.6984 151.3 88.2284C152.397 87.736 153.605 87.4898 154.926 87.4898C156.022 87.4898 157.018 87.6241 157.914 87.8927C158.831 88.1389 159.603 88.5193 160.23 89.0341C160.879 89.5265 161.383 90.1308 161.741 90.847C162.099 91.5632 162.278 92.3913 162.278 93.3313C162.278 94.4504 161.965 95.4016 161.338 96.185C160.734 96.9459 159.861 97.5726 158.719 98.065V98.1993C159.95 98.5574 160.958 99.1729 161.741 100.046C162.547 100.896 162.949 102.015 162.949 103.403C162.949 104.388 162.737 105.272 162.312 106.055C161.886 106.816 161.316 107.465 160.599 108.002C159.883 108.517 159.044 108.92 158.082 109.211C157.119 109.48 156.101 109.614 155.026 109.614Z" fill="black"/>
</svg>
