<svg width="400" height="400" viewBox="0 0 400 400" fill="none" xmlns="http://www.w3.org/2000/svg">
<rect width="400" height="400" fill="url(#paint0_linear)"/>
<path d="M243.905 315.021L244.573 316.285H246.003H286.104H290.056L288.197 312.798L239.573 221.59C252.874 216.197 263.115 208.074 270.163 197.181L270.169 197.172L270.175 197.163C277.633 185.411 281.303 171.256 281.303 154.813C281.303 132.326 274.152 114.853 259.587 102.786C245.07 90.5422 223.447 84.6285 195.143 84.6285H115.918H113.547V87V313.914V316.285H115.918H151.129H153.501V313.914V228.584H198.277L243.905 315.021ZM228.579 183.582L228.566 183.592L228.553 183.603C221.78 188.981 210.906 191.891 195.469 191.891H153.501V121.648H195.143C211.059 121.648 222.173 124.356 228.949 129.338C235.493 134.15 239.067 142.607 239.067 155.465C239.067 169.218 235.369 178.344 228.579 183.582Z" fill="white" stroke="white" stroke-width="4.74307"/>
<defs>
<linearGradient id="paint0_linear" x1="121.875" y1="2.44618e-06" x2="218.75" y2="459.375" gradientUnits="userSpaceOnUse">
<stop stop-color="#0500F4"/>
<stop offset="0.46198" stop-color="#0068C8"/>
<stop offset="1" stop-color="#04CC00"/>
</linearGradient>
</defs>
</svg>
