<svg width="200" height="200" viewBox="0 0 200 200" fill="none" xmlns="http://www.w3.org/2000/svg">
<path d="M42.9011 73.9999H38.3317V77.7123H30.7234V85.4528H25V96.8203H30.7234V104.562H38.3317V108.264H42.3599C51.7723 108.264 60.0759 100.666 60.0759 91.1747C60.0759 81.7482 52.3291 73.9999 42.9011 73.9999Z" fill="black"/>
<path d="M144.359 77.2712H148.311V75.8155H134.537V77.2712H138.511V104.975H134.537V106.418H148.311V104.975H144.359V77.2712Z" fill="black"/>
<path d="M169.423 106.418V104.981H165.202V76.9633C171.653 76.6414 172.756 78.0224 173.583 83.878H175L174.498 75.8155H149.993L149.494 83.878H150.948C151.781 78.0224 152.87 76.6414 159.334 76.9633V104.981H155.11V106.418H169.423Z" fill="black"/>
<path d="M131.916 77.2601V75.8153H120.628L113.993 96.746L107.587 75.8153H96.3407V77.2601H100.296V104.983L96.0234 104.978C92.0544 105.074 91.9937 101.692 92.0108 100.992C92.0653 93.5313 90.3996 90.8158 83.25 89.7116V89.612C87.5146 89.161 92.9658 87.9479 92.9658 82.7782C92.9658 76.414 87.0247 75.8153 82.0136 75.8153H67.2588V77.2601H71.2092V104.978H67.2588V106.418H81.0244V104.978H77.0741V90.3648C79.6123 90.2637 82.4724 90.9122 83.7633 92.0227C84.9562 93.0336 85.5985 96.1752 85.5985 99.967C85.5985 104.647 88.0138 106.418 92.6485 106.418H105.915V104.983H102.05V77.7345H102.145L111.256 106.418H112.803L121.971 77.7345H122.11V104.983H118.169V106.418H131.916V104.983H127.972V77.2601H131.916ZM77.0741 88.9355V77.2601H81.0602C85.1412 77.2601 86.6483 78.285 86.6483 83.4314C86.6483 87.5357 84.9562 88.9355 80.83 88.9355H77.0741Z" fill="black"/>
<path d="M71.2095 115.677C71.2095 115.422 71.0726 115.304 70.8362 115.304H70.1052V113.842H71.8207C72.5859 113.842 72.9094 114.165 72.9094 114.931V121.575C72.9094 123.374 74.0463 124.447 75.7804 124.447C77.513 124.447 78.653 123.374 78.653 121.558V114.931C78.653 114.165 78.992 113.842 79.7556 113.842H81.4555V115.304H80.7246C80.4866 115.304 80.3529 115.422 80.3529 115.677V121.642C80.3529 124.258 78.5332 126.043 75.7975 126.043C73.0447 126.043 71.2095 124.258 71.2095 121.642V115.677Z" fill="black"/>
<path d="M82.606 124.377H83.3354C83.5749 124.377 83.7102 124.241 83.7102 124.004V113.842H85.2561L90.5922 121.438C91.0339 122.083 91.5954 123.069 91.5954 123.069H91.628C91.628 123.069 91.5098 122.118 91.5098 121.438V114.931C91.5098 114.166 91.8318 113.842 92.6141 113.842H94.314V115.304H93.583C93.3451 115.304 93.2098 115.422 93.2098 115.677V125.839H91.6794L86.3277 118.245C85.886 117.596 85.3417 116.612 85.3417 116.612H85.3075C85.3075 116.612 85.4101 117.581 85.4101 118.245V124.751C85.4101 125.516 85.085 125.839 84.3214 125.839H82.606V124.377Z" fill="black"/>
<path d="M96.1577 124.377H97.3304V115.304H96.1577V113.842H100.117V115.304H98.9447V124.377H100.117V125.839H96.1577V124.377Z" fill="black"/>
<path d="M101.968 115.677C101.867 115.371 101.696 115.304 101.41 115.304H101.172V113.842H102.122C102.972 113.842 103.262 114.03 103.533 114.828L106.166 122.22C106.388 122.866 106.626 123.867 106.626 123.867H106.661C106.661 123.867 106.88 122.866 107.119 122.22L109.753 114.828C110.04 114.03 110.312 113.842 111.162 113.842H112.113V115.304H111.877C111.569 115.304 111.418 115.371 111.316 115.677L107.542 125.839H105.741L101.968 115.677Z" fill="black"/>
<path d="M114.205 115.303H113.102V113.843H120.155C120.919 113.843 121.241 114.165 121.241 114.93V116.442H119.694V115.677C119.694 115.421 119.558 115.303 119.32 115.303H115.906V119.059H120.101V120.52H115.906V124.003C115.906 124.24 116.042 124.377 116.28 124.377H119.779C120.019 124.377 120.155 124.24 120.155 124.003V123.238H121.717V124.75C121.717 125.517 121.395 125.839 120.63 125.839H115.294C114.528 125.839 114.205 125.517 114.205 124.75V115.303Z" fill="black"/>
<path d="M128.01 119.603C129.301 119.603 130.065 118.77 130.065 117.428C130.065 116.084 129.301 115.303 128.043 115.303H125.8V119.603H128.01ZM124.1 115.303H122.996V113.843H128.23C130.337 113.843 131.816 115.168 131.816 117.361C131.816 119.364 130.508 120.351 129.657 120.536V120.571C129.657 120.571 129.965 120.723 130.166 121.115L131.612 123.986C131.783 124.344 132.054 124.378 132.461 124.378H132.684V125.838H131.849C130.916 125.838 130.575 125.72 130.186 124.938L128.555 121.711C128.248 121.149 128.026 121.064 127.363 121.064H125.8V125.838H124.1V115.303Z" fill="black"/>
<path d="M134.858 123.052C134.858 123.052 136.082 124.497 137.864 124.497C138.987 124.497 139.923 123.816 139.923 122.712C139.923 120.197 134.127 120.587 134.127 116.85C134.127 115.049 135.707 113.638 137.968 113.638C139.243 113.638 141.382 114.217 141.382 115.847V116.834H139.82V116.273C139.82 115.643 138.92 115.184 137.968 115.184C136.676 115.184 135.861 115.898 135.861 116.798C135.861 119.229 141.639 118.685 141.639 122.626C141.639 124.463 140.209 126.043 137.833 126.043C135.282 126.043 133.856 124.258 133.856 124.258L134.858 123.052Z" fill="black"/>
<path d="M143.42 124.377H144.593V115.304H143.42V113.842H147.381V115.304H146.207V124.377H147.381V125.839H143.42V124.377Z" fill="black"/>
<path d="M152.785 115.303H150.371C150.133 115.303 149.998 115.421 149.998 115.677V116.442H148.486V114.862C148.486 114.098 148.74 113.843 149.505 113.843H157.765C158.527 113.843 158.784 114.098 158.784 114.862V116.442H157.272V115.677C157.272 115.421 157.137 115.303 156.897 115.303H154.483V125.839H152.785V115.303Z" fill="black"/>
<path d="M163.629 120.605L160.587 115.728C160.366 115.37 160.212 115.304 159.854 115.304H159.515V113.842H160.296C161.112 113.842 161.434 113.961 161.912 114.761L163.73 117.786C164.122 118.447 164.461 119.128 164.461 119.128H164.495C164.495 119.128 164.817 118.447 165.225 117.786L167.029 114.761C167.501 113.961 167.842 113.842 168.64 113.842H169.422V115.304H169.097C168.743 115.304 168.573 115.37 168.352 115.728L165.326 120.605V125.839H163.629V120.605Z" fill="black"/>
</svg>
