<svg width="417" height="806" viewBox="0 0 417 806" fill="none" xmlns="http://www.w3.org/2000/svg">
<g filter="url(#filter0_d)">
<rect x="74.8462" y="113.606" width="324.193" height="110.7" rx="7.90715" fill="#FAFAFA"/>
<rect x="74.9914" y="113.751" width="323.903" height="110.41" rx="7.76197" stroke="#ADADAD" stroke-width="0.290367"/>
</g>
<path d="M82.1042 113.869H391.781C395.644 113.869 398.776 117.001 398.776 120.864V166.057H75.1098V120.864C75.1098 117.001 78.2413 113.869 82.1042 113.869Z" fill="#E4E9EE" fill-opacity="0.55" stroke="#A8A8A8" stroke-width="0.527143"/>
<rect x="88.0245" y="124.149" width="39.5358" height="35.0174" rx="3.38878" fill="#C1AF0F"/>
<rect x="98.5674" y="132.056" width="18.45" height="18.45" rx="2.63572" fill="white"/>
<path d="M161.315 152.092H158.423V135.387H161.315V152.092ZM164.091 145.794C164.091 143.881 164.535 142.348 165.422 141.193C166.309 140.03 167.499 139.449 168.99 139.449C170.306 139.449 171.369 139.908 172.18 140.826V134.47H174.968V152.092H172.444L172.306 150.807C171.472 151.817 170.36 152.322 168.967 152.322C167.514 152.322 166.336 151.737 165.434 150.567C164.539 149.396 164.091 147.805 164.091 145.794ZM166.879 146.035C166.879 147.297 167.12 148.283 167.602 148.995C168.092 149.698 168.784 150.05 169.679 150.05C170.818 150.05 171.652 149.542 172.18 148.524V143.224C171.667 142.229 170.841 141.732 169.702 141.732C168.799 141.732 168.103 142.092 167.614 142.811C167.124 143.522 166.879 144.597 166.879 146.035ZM183.343 152.322C181.577 152.322 180.142 151.767 179.041 150.658C177.947 149.542 177.4 148.058 177.4 146.207V145.862C177.4 144.623 177.637 143.518 178.112 142.547C178.594 141.568 179.267 140.807 180.131 140.264C180.995 139.72 181.959 139.449 183.022 139.449C184.713 139.449 186.017 139.988 186.935 141.067C187.86 142.145 188.323 143.671 188.323 145.644V146.769H180.211C180.295 147.794 180.636 148.605 181.232 149.201C181.837 149.798 182.594 150.096 183.504 150.096C184.781 150.096 185.822 149.58 186.625 148.547L188.128 149.981C187.631 150.723 186.965 151.301 186.131 151.714C185.305 152.119 184.376 152.322 183.343 152.322ZM183.011 141.686C182.246 141.686 181.626 141.954 181.152 142.489C180.685 143.025 180.387 143.771 180.257 144.727H185.569V144.52C185.508 143.587 185.259 142.883 184.824 142.409C184.388 141.927 183.783 141.686 183.011 141.686ZM197.915 152.092C197.792 151.855 197.685 151.469 197.593 150.934C196.706 151.859 195.62 152.322 194.335 152.322C193.088 152.322 192.071 151.966 191.283 151.255C190.495 150.544 190.101 149.664 190.101 148.616C190.101 147.293 190.591 146.279 191.57 145.576C192.557 144.864 193.964 144.509 195.792 144.509H197.501V143.694C197.501 143.052 197.322 142.539 196.962 142.157C196.603 141.767 196.056 141.571 195.322 141.571C194.687 141.571 194.167 141.732 193.761 142.053C193.356 142.367 193.153 142.769 193.153 143.258H190.365C190.365 142.577 190.591 141.942 191.042 141.353C191.493 140.757 192.105 140.29 192.878 139.954C193.658 139.617 194.526 139.449 195.482 139.449C196.935 139.449 198.094 139.816 198.959 140.55C199.823 141.277 200.267 142.302 200.289 143.625V149.224C200.289 150.341 200.446 151.232 200.76 151.897V152.092H197.915ZM194.851 150.085C195.402 150.085 195.918 149.951 196.4 149.683C196.89 149.415 197.257 149.056 197.501 148.605V146.264H195.998C194.966 146.264 194.19 146.444 193.669 146.803C193.149 147.163 192.889 147.671 192.889 148.329C192.889 148.865 193.065 149.293 193.417 149.614C193.776 149.928 194.255 150.085 194.851 150.085ZM206.703 136.661V139.678H208.894V141.744H206.703V148.673C206.703 149.148 206.795 149.492 206.978 149.706C207.17 149.913 207.506 150.016 207.988 150.016C208.309 150.016 208.634 149.978 208.963 149.901V152.058C208.328 152.234 207.717 152.322 207.128 152.322C204.986 152.322 203.915 151.14 203.915 148.777V141.744H201.873V139.678H203.915V136.661H206.703ZM214 152.092H211.212V139.678H214V152.092ZM211.04 136.454C211.04 136.026 211.174 135.67 211.442 135.387C211.717 135.104 212.107 134.963 212.612 134.963C213.117 134.963 213.507 135.104 213.782 135.387C214.057 135.67 214.195 136.026 214.195 136.454C214.195 136.875 214.057 137.227 213.782 137.51C213.507 137.785 213.117 137.923 212.612 137.923C212.107 137.923 211.717 137.785 211.442 137.51C211.174 137.227 211.04 136.875 211.04 136.454ZM216.524 145.771C216.524 144.555 216.765 143.461 217.247 142.489C217.729 141.51 218.406 140.761 219.278 140.241C220.15 139.713 221.152 139.449 222.284 139.449C223.959 139.449 225.317 139.988 226.357 141.067C227.405 142.145 227.971 143.575 228.055 145.358L228.066 146.012C228.066 147.235 227.829 148.329 227.355 149.293C226.888 150.257 226.215 151.003 225.336 151.53C224.464 152.058 223.454 152.322 222.307 152.322C220.555 152.322 219.152 151.741 218.096 150.578C217.048 149.408 216.524 147.851 216.524 145.908V145.771ZM219.312 146.012C219.312 147.289 219.576 148.291 220.104 149.018C220.632 149.737 221.366 150.096 222.307 150.096C223.248 150.096 223.978 149.729 224.498 148.995C225.026 148.26 225.29 147.186 225.29 145.771C225.29 144.516 225.018 143.522 224.475 142.788C223.94 142.053 223.209 141.686 222.284 141.686C221.374 141.686 220.651 142.05 220.115 142.776C219.58 143.495 219.312 144.574 219.312 146.012ZM233.011 139.678L233.092 141.113C234.009 140.003 235.214 139.449 236.706 139.449C239.291 139.449 240.607 140.929 240.653 143.889V152.092H237.864V144.05C237.864 143.262 237.692 142.681 237.348 142.306C237.012 141.923 236.457 141.732 235.685 141.732C234.56 141.732 233.723 142.241 233.172 143.258V152.092H230.384V139.678H233.011Z" fill="black"/>
<path d="M97.2498 137.327H119.653" stroke="#C1AF0F" stroke-width="2.63572"/>
<path d="M164.742 198.392C164.742 197.815 164.538 197.371 164.13 197.058C163.727 196.746 162.998 196.431 161.941 196.113C160.884 195.794 160.043 195.44 159.418 195.05C158.223 194.299 157.625 193.32 157.625 192.113C157.625 191.056 158.055 190.185 158.914 189.5C159.778 188.815 160.899 188.473 162.274 188.473C163.187 188.473 164.001 188.641 164.715 188.978C165.43 189.314 165.992 189.794 166.4 190.419C166.808 191.038 167.013 191.725 167.013 192.482H164.742C164.742 191.797 164.526 191.263 164.094 190.878C163.667 190.488 163.055 190.293 162.256 190.293C161.511 190.293 160.932 190.452 160.517 190.77C160.109 191.089 159.905 191.533 159.905 192.104C159.905 192.584 160.127 192.987 160.571 193.311C161.016 193.629 161.748 193.941 162.769 194.248C163.79 194.548 164.61 194.893 165.229 195.284C165.847 195.668 166.301 196.113 166.589 196.617C166.877 197.116 167.022 197.701 167.022 198.374C167.022 199.467 166.601 200.338 165.76 200.986C164.926 201.629 163.79 201.95 162.355 201.95C161.406 201.95 160.532 201.776 159.733 201.428C158.941 201.073 158.322 200.587 157.878 199.968C157.439 199.35 157.22 198.629 157.22 197.806H159.499C159.499 198.551 159.745 199.127 160.238 199.536C160.73 199.944 161.436 200.148 162.355 200.148C163.148 200.148 163.742 199.989 164.139 199.671C164.541 199.347 164.742 198.92 164.742 198.392ZM174.715 200.815C174.072 201.572 173.16 201.95 171.976 201.95C170.919 201.95 170.118 201.641 169.571 201.022C169.031 200.404 168.76 199.509 168.76 198.338V192.023H170.949V198.311C170.949 199.548 171.463 200.167 172.49 200.167C173.553 200.167 174.271 199.785 174.643 199.022V192.023H176.832V201.77H174.769L174.715 200.815ZM183.066 200.203C183.613 200.203 184.066 200.043 184.427 199.725C184.787 199.407 184.979 199.013 185.003 198.545H187.066C187.042 199.152 186.853 199.719 186.499 200.248C186.144 200.77 185.664 201.185 185.057 201.491C184.451 201.797 183.796 201.95 183.093 201.95C181.73 201.95 180.649 201.509 179.85 200.626C179.051 199.743 178.652 198.524 178.652 196.968V196.743C178.652 195.26 179.048 194.074 179.841 193.185C180.634 192.29 181.715 191.842 183.084 191.842C184.243 191.842 185.186 192.182 185.913 192.86C186.646 193.533 187.03 194.419 187.066 195.518H185.003C184.979 194.959 184.787 194.5 184.427 194.14C184.072 193.779 183.619 193.599 183.066 193.599C182.358 193.599 181.811 193.857 181.427 194.374C181.042 194.884 180.847 195.662 180.841 196.707V197.058C180.841 198.116 181.03 198.905 181.409 199.428C181.793 199.944 182.346 200.203 183.066 200.203ZM193.012 201.95C191.625 201.95 190.498 201.515 189.634 200.644C188.775 199.767 188.345 198.602 188.345 197.149V196.878C188.345 195.905 188.532 195.038 188.904 194.275C189.282 193.506 189.811 192.908 190.489 192.482C191.168 192.056 191.925 191.842 192.76 191.842C194.087 191.842 195.111 192.266 195.832 193.113C196.558 193.959 196.922 195.158 196.922 196.707V197.59H190.553C190.619 198.395 190.886 199.031 191.354 199.5C191.829 199.968 192.423 200.203 193.138 200.203C194.141 200.203 194.958 199.797 195.588 198.986L196.769 200.112C196.378 200.695 195.856 201.148 195.201 201.473C194.552 201.791 193.823 201.95 193.012 201.95ZM192.751 193.599C192.15 193.599 191.664 193.809 191.291 194.23C190.925 194.65 190.691 195.236 190.589 195.986H194.76V195.824C194.712 195.092 194.516 194.539 194.174 194.167C193.832 193.788 193.357 193.599 192.751 193.599ZM204.093 199.121C204.093 198.731 203.931 198.434 203.606 198.23C203.288 198.025 202.756 197.845 202.012 197.689C201.267 197.533 200.645 197.335 200.147 197.095C199.054 196.566 198.507 195.8 198.507 194.797C198.507 193.956 198.862 193.254 199.57 192.689C200.279 192.125 201.18 191.842 202.273 191.842C203.438 191.842 204.378 192.131 205.093 192.707C205.813 193.284 206.174 194.032 206.174 194.95H203.985C203.985 194.53 203.829 194.182 203.516 193.905C203.204 193.623 202.79 193.482 202.273 193.482C201.793 193.482 201.399 193.593 201.093 193.815C200.793 194.038 200.642 194.335 200.642 194.707C200.642 195.044 200.784 195.305 201.066 195.491C201.348 195.677 201.919 195.866 202.777 196.059C203.636 196.245 204.309 196.47 204.795 196.734C205.288 196.992 205.651 197.305 205.886 197.671C206.126 198.037 206.246 198.482 206.246 199.004C206.246 199.881 205.883 200.593 205.156 201.139C204.429 201.68 203.477 201.95 202.3 201.95C201.501 201.95 200.79 201.806 200.165 201.518C199.54 201.23 199.054 200.833 198.706 200.329C198.357 199.824 198.183 199.281 198.183 198.698H200.309C200.339 199.215 200.534 199.614 200.895 199.896C201.255 200.173 201.732 200.311 202.327 200.311C202.904 200.311 203.342 200.203 203.642 199.986C203.943 199.764 204.093 199.476 204.093 199.121ZM213.624 199.121C213.624 198.731 213.462 198.434 213.138 198.23C212.819 198.025 212.288 197.845 211.543 197.689C210.798 197.533 210.177 197.335 209.678 197.095C208.585 196.566 208.039 195.8 208.039 194.797C208.039 193.956 208.393 193.254 209.102 192.689C209.81 192.125 210.711 191.842 211.804 191.842C212.969 191.842 213.909 192.131 214.624 192.707C215.345 193.284 215.705 194.032 215.705 194.95H213.516C213.516 194.53 213.36 194.182 213.048 193.905C212.735 193.623 212.321 193.482 211.804 193.482C211.324 193.482 210.93 193.593 210.624 193.815C210.324 194.038 210.174 194.335 210.174 194.707C210.174 195.044 210.315 195.305 210.597 195.491C210.879 195.677 211.45 195.866 212.309 196.059C213.168 196.245 213.84 196.47 214.327 196.734C214.819 196.992 215.183 197.305 215.417 197.671C215.657 198.037 215.777 198.482 215.777 199.004C215.777 199.881 215.414 200.593 214.687 201.139C213.96 201.68 213.008 201.95 211.831 201.95C211.033 201.95 210.321 201.806 209.696 201.518C209.072 201.23 208.585 200.833 208.237 200.329C207.888 199.824 207.714 199.281 207.714 198.698H209.84C209.87 199.215 210.066 199.614 210.426 199.896C210.786 200.173 211.264 200.311 211.858 200.311C212.435 200.311 212.873 200.203 213.174 199.986C213.474 199.764 213.624 199.476 213.624 199.121ZM218.462 201.77V193.644H216.975V192.023H218.462V191.131C218.462 190.05 218.762 189.215 219.363 188.626C219.963 188.038 220.804 187.743 221.885 187.743C222.27 187.743 222.678 187.797 223.11 187.906L223.056 189.617C222.816 189.569 222.537 189.545 222.218 189.545C221.173 189.545 220.651 190.083 220.651 191.158V192.023H222.633V193.644H220.651V201.77H218.462ZM230.137 200.815C229.495 201.572 228.582 201.95 227.399 201.95C226.342 201.95 225.54 201.641 224.993 201.022C224.453 200.404 224.182 199.509 224.182 198.338V192.023H226.372V198.311C226.372 199.548 226.885 200.167 227.912 200.167C228.975 200.167 229.693 199.785 230.065 199.022V192.023H232.254V201.77H230.191L230.137 200.815ZM236.813 201.77H234.624V187.933H236.813V201.77ZM241.533 201.77H239.344V187.933H241.533V201.77ZM247.335 198.635L249.317 192.023H251.65L247.776 203.248C247.182 204.887 246.173 205.707 244.749 205.707C244.431 205.707 244.08 205.653 243.695 205.545V203.851L244.11 203.878C244.662 203.878 245.077 203.776 245.353 203.572C245.635 203.374 245.858 203.037 246.02 202.563L246.335 201.725L242.912 192.023H245.272L247.335 198.635ZM267.731 197.5C267.599 198.899 267.082 199.992 266.181 200.779C265.281 201.56 264.082 201.95 262.587 201.95C261.542 201.95 260.62 201.704 259.821 201.212C259.028 200.713 258.416 200.007 257.983 199.094C257.551 198.182 257.326 197.122 257.308 195.914V194.689C257.308 193.452 257.527 192.362 257.965 191.419C258.404 190.476 259.031 189.749 259.848 189.239C260.671 188.728 261.62 188.473 262.695 188.473C264.142 188.473 265.308 188.866 266.19 189.653C267.073 190.44 267.587 191.551 267.731 192.987H265.461C265.353 192.044 265.076 191.365 264.632 190.951C264.193 190.53 263.548 190.32 262.695 190.32C261.704 190.32 260.941 190.683 260.407 191.41C259.878 192.131 259.608 193.191 259.596 194.59V195.752C259.596 197.17 259.848 198.251 260.353 198.995C260.863 199.74 261.608 200.112 262.587 200.112C263.482 200.112 264.154 199.911 264.605 199.509C265.055 199.106 265.341 198.437 265.461 197.5H267.731ZM269.154 196.806C269.154 195.851 269.344 194.992 269.722 194.23C270.1 193.461 270.632 192.872 271.316 192.464C272.001 192.05 272.788 191.842 273.677 191.842C274.992 191.842 276.058 192.266 276.875 193.113C277.698 193.959 278.142 195.083 278.208 196.482L278.217 196.995C278.217 197.956 278.031 198.815 277.659 199.572C277.292 200.329 276.764 200.914 276.073 201.329C275.388 201.743 274.596 201.95 273.695 201.95C272.319 201.95 271.217 201.494 270.389 200.581C269.566 199.662 269.154 198.44 269.154 196.914V196.806ZM271.343 196.995C271.343 197.998 271.551 198.785 271.965 199.356C272.379 199.92 272.956 200.203 273.695 200.203C274.433 200.203 275.007 199.914 275.415 199.338C275.83 198.761 276.037 197.917 276.037 196.806C276.037 195.821 275.824 195.041 275.397 194.464C274.977 193.887 274.403 193.599 273.677 193.599C272.962 193.599 272.394 193.884 271.974 194.455C271.554 195.019 271.343 195.866 271.343 196.995ZM282.127 192.023L282.19 193.041C282.875 192.242 283.812 191.842 285.001 191.842C286.304 191.842 287.196 192.341 287.676 193.338C288.385 192.341 289.382 191.842 290.667 191.842C291.742 191.842 292.541 192.14 293.064 192.734C293.592 193.329 293.862 194.206 293.874 195.365V201.77H291.685V195.428C291.685 194.809 291.55 194.356 291.28 194.068C291.01 193.779 290.562 193.635 289.938 193.635C289.439 193.635 289.031 193.77 288.712 194.041C288.4 194.305 288.181 194.653 288.055 195.086L288.064 201.77H285.875V195.356C285.845 194.209 285.259 193.635 284.118 193.635C283.241 193.635 282.619 193.992 282.253 194.707V201.77H280.064V192.023H282.127ZM304.658 196.995C304.658 198.503 304.316 199.707 303.631 200.608C302.946 201.503 302.027 201.95 300.874 201.95C299.805 201.95 298.949 201.599 298.307 200.896V205.518H296.118V192.023H298.136L298.226 193.014C298.868 192.233 299.742 191.842 300.847 191.842C302.036 191.842 302.967 192.287 303.64 193.176C304.319 194.059 304.658 195.287 304.658 196.86V196.995ZM302.478 196.806C302.478 195.833 302.283 195.062 301.892 194.491C301.508 193.92 300.955 193.635 300.235 193.635C299.34 193.635 298.697 194.004 298.307 194.743V199.067C298.703 199.824 299.352 200.203 300.253 200.203C300.949 200.203 301.493 199.923 301.883 199.365C302.28 198.8 302.478 197.947 302.478 196.806ZM308.847 201.77H306.658V187.933H308.847V201.77ZM315.532 201.95C314.144 201.95 313.018 201.515 312.153 200.644C311.294 199.767 310.865 198.602 310.865 197.149V196.878C310.865 195.905 311.051 195.038 311.424 194.275C311.802 193.506 312.33 192.908 313.009 192.482C313.688 192.056 314.445 191.842 315.279 191.842C316.607 191.842 317.631 192.266 318.351 193.113C319.078 193.959 319.441 195.158 319.441 196.707V197.59H313.072C313.138 198.395 313.406 199.031 313.874 199.5C314.348 199.968 314.943 200.203 315.658 200.203C316.661 200.203 317.478 199.797 318.108 198.986L319.288 200.112C318.898 200.695 318.375 201.148 317.721 201.473C317.072 201.791 316.342 201.95 315.532 201.95ZM315.27 193.599C314.67 193.599 314.183 193.809 313.811 194.23C313.445 194.65 313.21 195.236 313.108 195.986H317.279V195.824C317.231 195.092 317.036 194.539 316.694 194.167C316.351 193.788 315.877 193.599 315.27 193.599ZM323.892 189.653V192.023H325.612V193.644H323.892V199.085C323.892 199.458 323.964 199.728 324.108 199.896C324.258 200.058 324.522 200.139 324.901 200.139C325.153 200.139 325.408 200.109 325.667 200.049V201.743C325.168 201.881 324.688 201.95 324.225 201.95C322.543 201.95 321.703 201.022 321.703 199.167V193.644H320.099V192.023H321.703V189.653H323.892ZM331.585 201.95C330.198 201.95 329.072 201.515 328.207 200.644C327.348 199.767 326.919 198.602 326.919 197.149V196.878C326.919 195.905 327.105 195.038 327.477 194.275C327.856 193.506 328.384 192.908 329.063 192.482C329.741 192.056 330.498 191.842 331.333 191.842C332.66 191.842 333.684 192.266 334.405 193.113C335.132 193.959 335.495 195.158 335.495 196.707V197.59H329.126C329.192 198.395 329.459 199.031 329.928 199.5C330.402 199.968 330.997 200.203 331.711 200.203C332.714 200.203 333.531 199.797 334.162 198.986L335.342 200.112C334.952 200.695 334.429 201.148 333.774 201.473C333.126 201.791 332.396 201.95 331.585 201.95ZM331.324 193.599C330.723 193.599 330.237 193.809 329.865 194.23C329.498 194.65 329.264 195.236 329.162 195.986H333.333V195.824C333.285 195.092 333.09 194.539 332.747 194.167C332.405 193.788 331.931 193.599 331.324 193.599ZM336.792 196.824C336.792 195.323 337.141 194.119 337.837 193.212C338.534 192.299 339.468 191.842 340.639 191.842C341.672 191.842 342.507 192.203 343.144 192.923V187.933H345.333V201.77H343.351L343.243 200.761C342.588 201.554 341.714 201.95 340.621 201.95C339.48 201.95 338.555 201.491 337.846 200.572C337.144 199.653 336.792 198.404 336.792 196.824ZM338.982 197.013C338.982 198.004 339.171 198.779 339.549 199.338C339.933 199.89 340.477 200.167 341.18 200.167C342.075 200.167 342.729 199.767 343.144 198.968V194.806C342.741 194.026 342.093 193.635 341.198 193.635C340.489 193.635 339.942 193.917 339.558 194.482C339.174 195.041 338.982 195.884 338.982 197.013Z" fill="black"/>
<circle cx="131.514" cy="193.995" r="14.4964" fill="#0A621D"/>
<path d="M124.181 196.324L129.623 199.466L137.295 186.179" stroke="white" stroke-width="3.16286"/>
<g filter="url(#filter1_d)">
<rect x="17.375" y="642.875" width="324.193" height="110.7" rx="7.90715" fill="#FAFAFA"/>
<rect x="17.5202" y="643.02" width="323.903" height="110.41" rx="7.76197" stroke="#ADADAD" stroke-width="0.290367"/>
</g>
<path d="M24.6331 643.139H334.31C338.173 643.139 341.305 646.27 341.305 650.133V695.326H17.6386V650.133C17.6386 646.27 20.7701 643.139 24.6331 643.139Z" fill="#E4E9EE" fill-opacity="0.55" stroke="#A8A8A8" stroke-width="0.527143"/>
<rect x="30.5535" y="653.418" width="39.5358" height="35.0174" rx="3.38878" fill="#793480"/>
<path d="M42.9775 679.925H40.8296L47.2734 662.145H49.4213L42.9775 679.925ZM58.3054 671.367L51.3556 668.814V666.126L61.0718 670.31V672.48L51.3556 676.664V673.976L58.3054 671.367Z" fill="white"/>
<path d="M113.527 675.923C113.359 677.706 112.701 679.098 111.554 680.1C110.406 681.094 108.88 681.591 106.976 681.591C105.645 681.591 104.471 681.278 103.453 680.65C102.444 680.016 101.664 679.117 101.113 677.954C100.562 676.792 100.275 675.442 100.252 673.904V672.344C100.252 670.768 100.532 669.38 101.09 668.179C101.648 666.978 102.448 666.053 103.488 665.402C104.536 664.752 105.744 664.427 107.113 664.427C108.957 664.427 110.441 664.928 111.565 665.93C112.689 666.932 113.343 668.347 113.527 670.175H110.636C110.498 668.974 110.146 668.11 109.58 667.582C109.022 667.047 108.2 666.779 107.113 666.779C105.851 666.779 104.88 667.242 104.199 668.168C103.526 669.085 103.182 670.435 103.167 672.218V673.698C103.167 675.503 103.488 676.88 104.13 677.828C104.781 678.777 105.729 679.251 106.976 679.251C108.115 679.251 108.972 678.994 109.546 678.482C110.119 677.97 110.483 677.117 110.636 675.923H113.527ZM115.34 675.04C115.34 673.824 115.581 672.73 116.063 671.759C116.544 670.78 117.221 670.03 118.093 669.51C118.965 668.982 119.967 668.718 121.099 668.718C122.774 668.718 124.132 669.258 125.172 670.336C126.22 671.414 126.786 672.845 126.87 674.627L126.882 675.281C126.882 676.505 126.645 677.599 126.171 678.562C125.704 679.526 125.031 680.272 124.151 680.8C123.279 681.327 122.27 681.591 121.122 681.591C119.371 681.591 117.967 681.01 116.912 679.847C115.864 678.677 115.34 677.121 115.34 675.178V675.04ZM118.128 675.281C118.128 676.558 118.392 677.56 118.919 678.287C119.447 679.006 120.182 679.365 121.122 679.365C122.063 679.365 122.794 678.998 123.314 678.264C123.841 677.53 124.105 676.455 124.105 675.04C124.105 673.786 123.834 672.791 123.291 672.057C122.755 671.323 122.025 670.956 121.099 670.956C120.189 670.956 119.466 671.319 118.931 672.046C118.396 672.765 118.128 673.843 118.128 675.281ZM128.718 675.063C128.718 673.151 129.161 671.617 130.049 670.462C130.936 669.3 132.125 668.718 133.617 668.718C134.932 668.718 135.996 669.177 136.806 670.095V663.739H139.594V681.362H137.07L136.933 680.077C136.099 681.086 134.986 681.591 133.594 681.591C132.141 681.591 130.963 681.006 130.06 679.836C129.165 678.666 128.718 677.075 128.718 675.063ZM131.506 675.304C131.506 676.566 131.747 677.553 132.228 678.264C132.718 678.968 133.41 679.32 134.305 679.32C135.445 679.32 136.279 678.811 136.806 677.794V672.493C136.294 671.499 135.468 671.001 134.328 671.001C133.426 671.001 132.729 671.361 132.24 672.08C131.75 672.791 131.506 673.866 131.506 675.304ZM147.97 681.591C146.203 681.591 144.769 681.037 143.667 679.928C142.574 678.811 142.027 677.327 142.027 675.476V675.132C142.027 673.893 142.264 672.787 142.738 671.816C143.22 670.837 143.893 670.076 144.757 669.533C145.622 668.99 146.585 668.718 147.649 668.718C149.339 668.718 150.643 669.258 151.561 670.336C152.486 671.414 152.949 672.94 152.949 674.914V676.038H144.838C144.922 677.063 145.262 677.874 145.859 678.471C146.463 679.067 147.22 679.365 148.13 679.365C149.408 679.365 150.448 678.849 151.251 677.817L152.754 679.251C152.257 679.993 151.592 680.57 150.758 680.983C149.932 681.389 149.002 681.591 147.97 681.591ZM147.637 670.956C146.872 670.956 146.253 671.223 145.778 671.759C145.312 672.294 145.014 673.04 144.884 673.996H150.196V673.789C150.134 672.856 149.886 672.153 149.45 671.678C149.014 671.196 148.41 670.956 147.637 670.956Z" fill="black"/>
<path d="M79.502 725.106C79.3699 726.505 78.8535 727.598 77.9529 728.384C77.0523 729.165 75.8546 729.555 74.3596 729.555C73.3149 729.555 72.3933 729.309 71.5947 728.817C70.8022 728.318 70.1898 727.613 69.7575 726.7C69.3252 725.788 69.1001 724.728 69.0821 723.521V722.296C69.0821 721.059 69.3012 719.97 69.7395 719.027C70.1778 718.085 70.8052 717.358 71.6217 716.848C72.4443 716.337 73.3929 716.082 74.4676 716.082C75.9146 716.082 77.0794 716.475 77.9619 717.262C78.8445 718.048 79.3579 719.159 79.502 720.594H77.2325C77.1244 719.652 76.8482 718.973 76.4039 718.559C75.9656 718.139 75.3202 717.928 74.4676 717.928C73.477 717.928 72.7145 718.292 72.1801 719.018C71.6518 719.739 71.3816 720.798 71.3696 722.197V723.359C71.3696 724.776 71.6217 725.857 72.1261 726.601C72.6364 727.346 73.3809 727.718 74.3596 727.718C75.2542 727.718 75.9266 727.517 76.3769 727.115C76.8272 726.712 77.1124 726.043 77.2325 725.106H79.502ZM83.4916 720.693C84.2061 719.865 85.1097 719.45 86.2024 719.45C88.2798 719.45 89.3335 720.636 89.3635 723.008V729.375H87.1751V723.089C87.1751 722.416 87.028 721.942 86.7338 721.666C86.4456 721.384 86.0193 721.243 85.4549 721.243C84.5783 721.243 83.9239 721.633 83.4916 722.413V729.375H81.3032V715.542H83.4916V720.693ZM95.8748 729.555C94.4879 729.555 93.3622 729.12 92.4976 728.249C91.639 727.373 91.2097 726.208 91.2097 724.755V724.485C91.2097 723.512 91.3959 722.645 91.7681 721.882C92.1464 721.114 92.6747 720.516 93.3532 720.09C94.0316 719.664 94.7881 719.45 95.6227 719.45C96.9495 719.45 97.9732 719.874 98.6937 720.72C99.4202 721.567 99.7834 722.765 99.7834 724.314V725.196H93.4162C93.4822 726.001 93.7494 726.637 94.2177 727.105C94.692 727.574 95.2864 727.808 96.0009 727.808C97.0036 727.808 97.8201 727.403 98.4505 726.592L99.6303 727.718C99.2401 728.3 98.7177 728.754 98.0633 729.078C97.4148 729.396 96.6854 729.555 95.8748 729.555ZM95.6137 721.207C95.0133 721.207 94.5269 721.417 94.1547 721.837C93.7884 722.257 93.5543 722.843 93.4522 723.593H97.622V723.431C97.574 722.699 97.3788 722.146 97.0366 721.774C96.6944 721.396 96.2201 721.207 95.6137 721.207ZM105.493 727.808C106.04 727.808 106.493 727.649 106.853 727.331C107.213 727.012 107.405 726.619 107.429 726.151H109.492C109.468 726.757 109.279 727.325 108.924 727.853C108.57 728.375 108.09 728.79 107.484 729.096C106.877 729.402 106.223 729.555 105.52 729.555C104.157 729.555 103.077 729.114 102.278 728.231C101.48 727.349 101.08 726.13 101.08 724.575V724.35C101.08 722.867 101.477 721.681 102.269 720.792C103.062 719.898 104.142 719.45 105.511 719.45C106.67 719.45 107.613 719.79 108.339 720.468C109.072 721.141 109.456 722.026 109.492 723.125H107.429C107.405 722.566 107.213 722.107 106.853 721.747C106.499 721.387 106.046 721.207 105.493 721.207C104.785 721.207 104.238 721.465 103.854 721.981C103.47 722.491 103.275 723.269 103.269 724.314V724.665C103.269 725.722 103.458 726.511 103.836 727.033C104.22 727.55 104.773 727.808 105.493 727.808ZM114.31 725.196L113.337 726.196V729.375H111.149V715.542H113.337V723.521L114.022 722.666L116.715 719.631H119.344L115.724 723.692L119.732 729.375H117.201L114.31 725.196ZM123.109 729.375H120.92V719.631H123.109V729.375ZM120.785 717.1C120.785 716.764 120.89 716.484 121.101 716.262C121.317 716.04 121.623 715.929 122.019 715.929C122.415 715.929 122.722 716.04 122.938 716.262C123.154 716.484 123.262 716.764 123.262 717.1C123.262 717.43 123.154 717.706 122.938 717.928C122.722 718.145 122.415 718.253 122.019 718.253C121.623 718.253 121.317 718.145 121.101 717.928C120.89 717.706 120.785 717.43 120.785 717.1ZM127.531 719.631L127.594 720.756C128.314 719.886 129.26 719.45 130.431 719.45C132.46 719.45 133.493 720.612 133.529 722.936V729.375H131.34V723.062C131.34 722.443 131.205 721.987 130.935 721.693C130.671 721.393 130.236 721.243 129.629 721.243C128.747 721.243 128.089 721.642 127.657 722.44V729.375H125.468V719.631H127.531ZM135.384 724.431C135.384 722.918 135.738 721.711 136.447 720.81C137.161 719.904 138.107 719.45 139.284 719.45C140.394 719.45 141.268 719.838 141.904 720.612L142.003 719.631H143.976V729.078C143.976 730.357 143.576 731.365 142.778 732.104C141.985 732.842 140.914 733.212 139.563 733.212C138.848 733.212 138.149 733.061 137.464 732.761C136.786 732.467 136.27 732.08 135.915 731.599L136.951 730.285C137.624 731.083 138.452 731.482 139.437 731.482C140.163 731.482 140.737 731.284 141.157 730.888C141.577 730.498 141.787 729.921 141.787 729.159V728.501C141.157 729.204 140.316 729.555 139.266 729.555C138.125 729.555 137.191 729.102 136.465 728.195C135.744 727.289 135.384 726.034 135.384 724.431ZM137.563 724.62C137.563 725.598 137.762 726.37 138.158 726.934C138.56 727.493 139.116 727.772 139.824 727.772C140.707 727.772 141.361 727.394 141.787 726.637V722.35C141.373 721.612 140.725 721.243 139.842 721.243C139.122 721.243 138.56 721.528 138.158 722.098C137.762 722.669 137.563 723.509 137.563 724.62ZM155.927 721.63C155.638 721.582 155.341 721.558 155.035 721.558C154.032 721.558 153.357 721.942 153.009 722.711V729.375H150.82V719.631H152.91L152.964 720.72C153.492 719.874 154.225 719.45 155.161 719.45C155.473 719.45 155.732 719.492 155.936 719.577L155.927 721.63ZM161.42 729.555C160.033 729.555 158.908 729.12 158.043 728.249C157.184 727.373 156.755 726.208 156.755 724.755V724.485C156.755 723.512 156.941 722.645 157.314 721.882C157.692 721.114 158.22 720.516 158.899 720.09C159.577 719.664 160.334 719.45 161.168 719.45C162.495 719.45 163.519 719.874 164.239 720.72C164.966 721.567 165.329 722.765 165.329 724.314V725.196H158.962C159.028 726.001 159.295 726.637 159.763 727.105C160.238 727.574 160.832 727.808 161.546 727.808C162.549 727.808 163.366 727.403 163.996 726.592L165.176 727.718C164.786 728.3 164.263 728.754 163.609 729.078C162.96 729.396 162.231 729.555 161.42 729.555ZM161.159 721.207C160.559 721.207 160.072 721.417 159.7 721.837C159.334 722.257 159.1 722.843 158.998 723.593H163.167V723.431C163.119 722.699 162.924 722.146 162.582 721.774C162.24 721.396 161.766 721.207 161.159 721.207ZM172.498 726.727C172.498 726.337 172.336 726.04 172.011 725.836C171.693 725.632 171.162 725.451 170.417 725.295C169.673 725.139 169.051 724.941 168.553 724.701C167.46 724.173 166.914 723.407 166.914 722.404C166.914 721.564 167.268 720.861 167.977 720.297C168.685 719.733 169.586 719.45 170.678 719.45C171.843 719.45 172.783 719.739 173.497 720.315C174.218 720.891 174.578 721.639 174.578 722.557H172.39C172.39 722.137 172.233 721.789 171.921 721.513C171.609 721.231 171.195 721.09 170.678 721.09C170.198 721.09 169.805 721.201 169.499 721.423C169.198 721.645 169.048 721.942 169.048 722.314C169.048 722.651 169.189 722.912 169.472 723.098C169.754 723.284 170.324 723.473 171.183 723.665C172.041 723.851 172.714 724.076 173.2 724.341C173.692 724.599 174.056 724.911 174.29 725.277C174.53 725.644 174.65 726.088 174.65 726.61C174.65 727.487 174.287 728.198 173.56 728.745C172.834 729.285 171.882 729.555 170.705 729.555C169.907 729.555 169.195 729.411 168.571 729.123C167.947 728.835 167.46 728.438 167.112 727.934C166.764 727.43 166.59 726.886 166.59 726.304H168.715C168.745 726.82 168.94 727.22 169.301 727.502C169.661 727.778 170.138 727.916 170.732 727.916C171.309 727.916 171.747 727.808 172.047 727.592C172.348 727.37 172.498 727.081 172.498 726.727ZM185.097 724.602C185.097 726.109 184.755 727.313 184.07 728.213C183.386 729.108 182.467 729.555 181.314 729.555C180.246 729.555 179.39 729.204 178.748 728.501V733.121H176.559V719.631H178.577L178.667 720.621C179.309 719.841 180.183 719.45 181.287 719.45C182.476 719.45 183.407 719.895 184.079 720.783C184.758 721.666 185.097 722.894 185.097 724.467V724.602ZM182.918 724.413C182.918 723.44 182.722 722.669 182.332 722.098C181.948 721.528 181.396 721.243 180.675 721.243C179.78 721.243 179.138 721.612 178.748 722.35V726.673C179.144 727.43 179.792 727.808 180.693 727.808C181.39 727.808 181.933 727.529 182.323 726.97C182.719 726.406 182.918 725.553 182.918 724.413ZM186.547 724.413C186.547 723.458 186.736 722.6 187.114 721.837C187.493 721.068 188.024 720.48 188.708 720.072C189.393 719.658 190.179 719.45 191.068 719.45C192.383 719.45 193.449 719.874 194.265 720.72C195.088 721.567 195.532 722.69 195.598 724.088L195.607 724.602C195.607 725.562 195.421 726.421 195.049 727.178C194.682 727.934 194.154 728.519 193.464 728.934C192.779 729.348 191.987 729.555 191.086 729.555C189.711 729.555 188.609 729.099 187.781 728.186C186.958 727.268 186.547 726.046 186.547 724.521V724.413ZM188.735 724.602C188.735 725.604 188.943 726.391 189.357 726.961C189.771 727.526 190.347 727.808 191.086 727.808C191.824 727.808 192.398 727.52 192.806 726.943C193.22 726.367 193.428 725.523 193.428 724.413C193.428 723.428 193.214 722.648 192.788 722.071C192.368 721.495 191.794 721.207 191.068 721.207C190.353 721.207 189.786 721.492 189.366 722.062C188.946 722.627 188.735 723.473 188.735 724.602ZM199.489 719.631L199.552 720.756C200.272 719.886 201.218 719.45 202.388 719.45C204.418 719.45 205.451 720.612 205.487 722.936V729.375H203.298V723.062C203.298 722.443 203.163 721.987 202.893 721.693C202.629 721.393 202.193 721.243 201.587 721.243C200.704 721.243 200.047 721.642 199.615 722.44V729.375H197.426V719.631H199.489ZM213.187 726.727C213.187 726.337 213.025 726.04 212.7 725.836C212.382 725.632 211.851 725.451 211.106 725.295C210.362 725.139 209.74 724.941 209.242 724.701C208.149 724.173 207.603 723.407 207.603 722.404C207.603 721.564 207.957 720.861 208.666 720.297C209.374 719.733 210.275 719.45 211.367 719.45C212.532 719.45 213.472 719.739 214.186 720.315C214.907 720.891 215.267 721.639 215.267 722.557H213.079C213.079 722.137 212.922 721.789 212.61 721.513C212.298 721.231 211.884 721.09 211.367 721.09C210.887 721.09 210.494 721.201 210.188 721.423C209.887 721.645 209.737 721.942 209.737 722.314C209.737 722.651 209.878 722.912 210.161 723.098C210.443 723.284 211.013 723.473 211.872 723.665C212.73 723.851 213.403 724.076 213.889 724.341C214.381 724.599 214.745 724.911 214.979 725.277C215.219 725.644 215.339 726.088 215.339 726.61C215.339 727.487 214.976 728.198 214.249 728.745C213.523 729.285 212.571 729.555 211.394 729.555C210.596 729.555 209.884 729.411 209.26 729.123C208.636 728.835 208.149 728.438 207.801 727.934C207.453 727.43 207.279 726.886 207.279 726.304H209.404C209.434 726.82 209.629 727.22 209.99 727.502C210.35 727.778 210.827 727.916 211.421 727.916C211.998 727.916 212.436 727.808 212.736 727.592C213.037 727.37 213.187 727.081 213.187 726.727ZM219.581 729.375H217.392V719.631H219.581V729.375ZM217.257 717.1C217.257 716.764 217.362 716.484 217.573 716.262C217.789 716.04 218.095 715.929 218.491 715.929C218.887 715.929 219.194 716.04 219.41 716.262C219.626 716.484 219.734 716.764 219.734 717.1C219.734 717.43 219.626 717.706 219.41 717.928C219.194 718.145 218.887 718.253 218.491 718.253C218.095 718.253 217.789 718.145 217.573 717.928C217.362 717.706 217.257 717.43 217.257 717.1ZM225.408 726.601L227.47 719.631H229.731L226.353 729.375H224.453L221.049 719.631H223.318L225.408 726.601ZM235.269 729.555C233.882 729.555 232.757 729.12 231.892 728.249C231.033 727.373 230.604 726.208 230.604 724.755V724.485C230.604 723.512 230.79 722.645 231.163 721.882C231.541 721.114 232.069 720.516 232.748 720.09C233.426 719.664 234.183 719.45 235.017 719.45C236.344 719.45 237.368 719.874 238.088 720.72C238.815 721.567 239.178 722.765 239.178 724.314V725.196H232.811C232.877 726.001 233.144 726.637 233.612 727.105C234.086 727.574 234.681 727.808 235.395 727.808C236.398 727.808 237.215 727.403 237.845 726.592L239.025 727.718C238.634 728.3 238.112 728.754 237.458 729.078C236.809 729.396 236.08 729.555 235.269 729.555ZM235.008 721.207C234.408 721.207 233.921 721.417 233.549 721.837C233.183 722.257 232.949 722.843 232.847 723.593H237.016V723.431C236.968 722.699 236.773 722.146 236.431 721.774C236.089 721.396 235.614 721.207 235.008 721.207ZM242.915 719.631L242.978 720.756C243.699 719.886 244.644 719.45 245.815 719.45C247.845 719.45 248.877 720.612 248.913 722.936V729.375H246.725V723.062C246.725 722.443 246.59 721.987 246.32 721.693C246.055 721.393 245.62 721.243 245.014 721.243C244.131 721.243 243.474 721.642 243.041 722.44V729.375H240.853V719.631H242.915ZM255.443 729.555C254.056 729.555 252.93 729.12 252.065 728.249C251.207 727.373 250.778 726.208 250.778 724.755V724.485C250.778 723.512 250.964 722.645 251.336 721.882C251.714 721.114 252.243 720.516 252.921 720.09C253.599 719.664 254.356 719.45 255.19 719.45C256.517 719.45 257.541 719.874 258.262 720.72C258.988 721.567 259.351 722.765 259.351 724.314V725.196H252.984C253.05 726.001 253.317 726.637 253.786 727.105C254.26 727.574 254.854 727.808 255.569 727.808C256.571 727.808 257.388 727.403 258.018 726.592L259.198 727.718C258.808 728.3 258.286 728.754 257.631 729.078C256.983 729.396 256.253 729.555 255.443 729.555ZM255.181 721.207C254.581 721.207 254.095 721.417 253.723 721.837C253.356 722.257 253.122 722.843 253.02 723.593H257.19V723.431C257.142 722.699 256.947 722.146 256.604 721.774C256.262 721.396 255.788 721.207 255.181 721.207ZM266.52 726.727C266.52 726.337 266.358 726.04 266.034 725.836C265.715 725.632 265.184 725.451 264.44 725.295C263.695 725.139 263.074 724.941 262.575 724.701C261.483 724.173 260.936 723.407 260.936 722.404C260.936 721.564 261.291 720.861 261.999 720.297C262.707 719.733 263.608 719.45 264.701 719.45C265.866 719.45 266.805 719.739 267.52 720.315C268.24 720.891 268.6 721.639 268.6 722.557H266.412C266.412 722.137 266.256 721.789 265.944 721.513C265.631 721.231 265.217 721.09 264.701 721.09C264.22 721.09 263.827 721.201 263.521 721.423C263.221 721.645 263.071 721.942 263.071 722.314C263.071 722.651 263.212 722.912 263.494 723.098C263.776 723.284 264.347 723.473 265.205 723.665C266.064 723.851 266.736 724.076 267.222 724.341C267.715 724.599 268.078 724.911 268.312 725.277C268.552 725.644 268.672 726.088 268.672 726.61C268.672 727.487 268.309 728.198 267.583 728.745C266.856 729.285 265.905 729.555 264.728 729.555C263.929 729.555 263.218 729.411 262.593 729.123C261.969 728.835 261.483 728.438 261.134 727.934C260.786 727.43 260.612 726.886 260.612 726.304H262.737C262.768 726.82 262.963 727.22 263.323 727.502C263.683 727.778 264.16 727.916 264.755 727.916C265.331 727.916 265.769 727.808 266.07 727.592C266.37 727.37 266.52 727.081 266.52 726.727ZM276.048 726.727C276.048 726.337 275.886 726.04 275.562 725.836C275.244 725.632 274.712 725.451 273.968 725.295C273.223 725.139 272.602 724.941 272.104 724.701C271.011 724.173 270.465 723.407 270.465 722.404C270.465 721.564 270.819 720.861 271.527 720.297C272.236 719.733 273.136 719.45 274.229 719.45C275.394 719.45 276.333 719.739 277.048 720.315C277.768 720.891 278.129 721.639 278.129 722.557H275.94C275.94 722.137 275.784 721.789 275.472 721.513C275.16 721.231 274.745 721.09 274.229 721.09C273.749 721.09 273.356 721.201 273.049 721.423C272.749 721.645 272.599 721.942 272.599 722.314C272.599 722.651 272.74 722.912 273.022 723.098C273.304 723.284 273.875 723.473 274.733 723.665C275.592 723.851 276.264 724.076 276.751 724.341C277.243 724.599 277.606 724.911 277.84 725.277C278.081 725.644 278.201 726.088 278.201 726.61C278.201 727.487 277.837 728.198 277.111 728.745C276.385 729.285 275.433 729.555 274.256 729.555C273.458 729.555 272.746 729.411 272.122 729.123C271.497 728.835 271.011 728.438 270.663 727.934C270.314 727.43 270.14 726.886 270.14 726.304H272.266C272.296 726.82 272.491 727.22 272.851 727.502C273.211 727.778 273.689 727.916 274.283 727.916C274.86 727.916 275.298 727.808 275.598 727.592C275.898 727.37 276.048 727.081 276.048 726.727ZM281.479 727.069C281.887 727.069 282.202 727.187 282.425 727.421C282.647 727.649 282.758 727.937 282.758 728.285C282.758 728.628 282.647 728.913 282.425 729.141C282.202 729.363 281.887 729.474 281.479 729.474C281.089 729.474 280.779 729.363 280.551 729.141C280.323 728.919 280.209 728.634 280.209 728.285C280.209 727.937 280.32 727.649 280.542 727.421C280.764 727.187 281.077 727.069 281.479 727.069ZM286.63 727.069C287.039 727.069 287.354 727.187 287.576 727.421C287.798 727.649 287.909 727.937 287.909 728.285C287.909 728.628 287.798 728.913 287.576 729.141C287.354 729.363 287.039 729.474 286.63 729.474C286.24 729.474 285.931 729.363 285.703 729.141C285.475 728.919 285.36 728.634 285.36 728.285C285.36 727.937 285.472 727.649 285.694 727.421C285.916 727.187 286.228 727.069 286.63 727.069Z" fill="#9B9B9B"/>
<g filter="url(#filter2_d)">
<rect x="72.1731" y="493.183" width="324.193" height="110.7" rx="7.90715" fill="#FAFAFA"/>
<rect x="72.3183" y="493.328" width="323.903" height="110.41" rx="7.76197" stroke="#ADADAD" stroke-width="0.290367"/>
</g>
<path d="M79.4312 493.446H389.108C392.971 493.446 396.103 496.578 396.103 500.441V546.145H72.4367V500.441C72.4367 496.578 75.5682 493.446 79.4312 493.446Z" fill="#E4E9EE" fill-opacity="0.55" stroke="#A8A8A8" stroke-width="0.527143"/>
<rect x="85.3514" y="503.726" width="39.5358" height="35.0174" rx="3.38878" fill="#235FB8"/>
<path d="M106.899 513.623V524.565C106.899 526.305 106.341 527.684 105.224 528.704C104.114 529.716 102.634 530.222 100.782 530.222C98.9075 530.222 97.4193 529.723 96.3172 528.726C95.2152 527.722 94.6641 526.331 94.6641 524.554V513.623H97.498V524.577C97.498 525.671 97.7754 526.507 98.3302 527.084C98.885 527.662 99.7022 527.95 100.782 527.95C102.971 527.95 104.066 526.796 104.066 524.487V513.623H106.899ZM112.95 529.997H110.116V513.623H112.95V529.997Z" fill="white"/>
<path d="M167.797 514.964V526.128C167.797 527.902 167.227 529.31 166.088 530.35C164.956 531.383 163.445 531.899 161.556 531.899C159.644 531.899 158.125 531.39 157.001 530.373C155.876 529.348 155.314 527.929 155.314 526.116V514.964H158.206V526.139C158.206 527.256 158.489 528.109 159.055 528.698C159.621 529.287 160.454 529.581 161.556 529.581C163.789 529.581 164.906 528.403 164.906 526.048V514.964H167.797ZM177.595 528.296C177.595 527.799 177.389 527.42 176.976 527.16C176.57 526.9 175.894 526.671 174.945 526.472C173.997 526.273 173.205 526.021 172.57 525.715C171.178 525.042 170.482 524.066 170.482 522.789C170.482 521.718 170.933 520.823 171.836 520.104C172.738 519.385 173.886 519.026 175.278 519.026C176.762 519.026 177.959 519.393 178.869 520.127C179.787 520.862 180.246 521.814 180.246 522.984H177.458C177.458 522.449 177.259 522.005 176.861 521.653C176.463 521.294 175.936 521.114 175.278 521.114C174.666 521.114 174.165 521.256 173.775 521.539C173.392 521.822 173.201 522.2 173.201 522.674C173.201 523.103 173.381 523.435 173.74 523.673C174.1 523.91 174.827 524.151 175.92 524.395C177.014 524.632 177.871 524.919 178.49 525.256C179.118 525.585 179.58 525.983 179.879 526.449C180.185 526.916 180.338 527.482 180.338 528.147C180.338 529.264 179.875 530.17 178.949 530.866C178.024 531.555 176.811 531.899 175.312 531.899C174.295 531.899 173.389 531.715 172.593 531.348C171.798 530.981 171.178 530.476 170.734 529.834C170.291 529.191 170.069 528.499 170.069 527.757H172.777C172.815 528.415 173.063 528.923 173.522 529.283C173.981 529.635 174.589 529.811 175.347 529.811C176.081 529.811 176.639 529.673 177.022 529.398C177.404 529.115 177.595 528.748 177.595 528.296ZM188.243 531.899C186.476 531.899 185.042 531.344 183.94 530.235C182.846 529.119 182.299 527.635 182.299 525.784V525.439C182.299 524.2 182.537 523.095 183.011 522.124C183.493 521.145 184.166 520.384 185.03 519.84C185.894 519.297 186.858 519.026 187.921 519.026C189.612 519.026 190.916 519.565 191.834 520.644C192.759 521.722 193.222 523.248 193.222 525.221V526.346H185.11C185.195 527.371 185.535 528.182 186.132 528.778C186.736 529.375 187.493 529.673 188.403 529.673C189.681 529.673 190.721 529.157 191.524 528.124L193.027 529.558C192.53 530.3 191.864 530.878 191.031 531.291C190.205 531.696 189.275 531.899 188.243 531.899ZM187.91 521.263C187.145 521.263 186.525 521.531 186.051 522.066C185.585 522.602 185.286 523.347 185.156 524.304H190.468V524.097C190.407 523.164 190.159 522.46 189.723 521.986C189.287 521.504 188.682 521.263 187.91 521.263ZM201.896 521.802C201.529 521.741 201.15 521.711 200.76 521.711C199.483 521.711 198.622 522.2 198.178 523.179V531.669H195.39V519.255H198.052L198.121 520.644C198.794 519.565 199.727 519.026 200.921 519.026C201.318 519.026 201.647 519.079 201.907 519.187L201.896 521.802ZM212.841 531.669H209.95V514.964H212.841V531.669ZM218.727 519.255L218.807 520.69C219.725 519.58 220.93 519.026 222.422 519.026C225.007 519.026 226.322 520.506 226.368 523.466V531.669H223.58V523.627C223.58 522.839 223.408 522.258 223.064 521.883C222.727 521.5 222.173 521.309 221.4 521.309C220.276 521.309 219.438 521.818 218.888 522.835V531.669H216.1V519.255H218.727ZM232.713 516.238V519.255H234.904V521.321H232.713V528.25C232.713 528.725 232.805 529.069 232.988 529.283C233.18 529.49 233.516 529.593 233.998 529.593C234.319 529.593 234.644 529.555 234.973 529.478V531.635C234.338 531.811 233.727 531.899 233.138 531.899C230.996 531.899 229.925 530.717 229.925 528.354V521.321H227.883V519.255H229.925V516.238H232.713ZM242.511 531.899C240.744 531.899 239.31 531.344 238.209 530.235C237.115 529.119 236.568 527.635 236.568 525.784V525.439C236.568 524.2 236.805 523.095 237.279 522.124C237.761 521.145 238.434 520.384 239.299 519.84C240.163 519.297 241.127 519.026 242.19 519.026C243.88 519.026 245.185 519.565 246.102 520.644C247.028 521.722 247.491 523.248 247.491 525.221V526.346H239.379C239.463 527.371 239.804 528.182 240.4 528.778C241.004 529.375 241.762 529.673 242.672 529.673C243.949 529.673 244.989 529.157 245.793 528.124L247.296 529.558C246.798 530.3 246.133 530.878 245.299 531.291C244.473 531.696 243.544 531.899 242.511 531.899ZM242.179 521.263C241.414 521.263 240.794 521.531 240.32 522.066C239.853 522.602 239.555 523.347 239.425 524.304H244.737V524.097C244.676 523.164 244.427 522.46 243.991 521.986C243.555 521.504 242.951 521.263 242.179 521.263ZM256.164 521.802C255.797 521.741 255.419 521.711 255.029 521.711C253.751 521.711 252.891 522.2 252.447 523.179V531.669H249.659V519.255H252.321L252.39 520.644C253.063 519.565 253.996 519.026 255.189 519.026C255.587 519.026 255.916 519.079 256.176 519.187L256.164 521.802ZM259.136 531.669V521.321H257.243V519.255H259.136V518.119C259.136 516.743 259.518 515.68 260.283 514.93C261.048 514.18 262.119 513.806 263.496 513.806C263.985 513.806 264.506 513.874 265.056 514.012L264.987 516.192C264.681 516.131 264.326 516.1 263.92 516.1C262.589 516.1 261.924 516.785 261.924 518.154V519.255H264.448V521.321H261.924V531.669H259.136ZM273.902 531.669C273.78 531.432 273.673 531.046 273.581 530.511C272.694 531.436 271.607 531.899 270.322 531.899C269.076 531.899 268.058 531.543 267.271 530.832C266.483 530.121 266.089 529.241 266.089 528.193C266.089 526.87 266.578 525.856 267.557 525.153C268.544 524.441 269.952 524.086 271.78 524.086H273.489V523.271C273.489 522.628 273.309 522.116 272.95 521.734C272.59 521.343 272.043 521.148 271.309 521.148C270.674 521.148 270.154 521.309 269.749 521.63C269.343 521.944 269.141 522.345 269.141 522.835H266.353C266.353 522.154 266.578 521.519 267.03 520.93C267.481 520.334 268.093 519.867 268.865 519.531C269.646 519.194 270.514 519.026 271.47 519.026C272.923 519.026 274.082 519.393 274.946 520.127C275.811 520.854 276.254 521.879 276.277 523.202V528.801C276.277 529.918 276.434 530.809 276.748 531.474V531.669H273.902ZM270.839 529.662C271.389 529.662 271.906 529.528 272.388 529.26C272.877 528.992 273.244 528.633 273.489 528.182V525.841H271.986C270.954 525.841 270.177 526.021 269.657 526.38C269.137 526.74 268.877 527.248 268.877 527.906C268.877 528.442 269.053 528.87 269.405 529.191C269.764 529.505 270.242 529.662 270.839 529.662ZM284.297 529.673C284.993 529.673 285.57 529.47 286.029 529.065C286.488 528.66 286.733 528.159 286.764 527.562H289.391C289.36 528.335 289.12 529.057 288.668 529.73C288.217 530.396 287.605 530.924 286.833 531.314C286.06 531.704 285.226 531.899 284.331 531.899C282.595 531.899 281.218 531.337 280.201 530.212C279.184 529.088 278.675 527.535 278.675 525.554V525.267C278.675 523.378 279.18 521.867 280.19 520.735C281.199 519.596 282.576 519.026 284.32 519.026C285.796 519.026 286.997 519.458 287.922 520.322C288.856 521.179 289.345 522.307 289.391 523.707H286.764C286.733 522.996 286.488 522.41 286.029 521.952C285.578 521.493 285.001 521.263 284.297 521.263C283.394 521.263 282.698 521.592 282.209 522.25C281.719 522.9 281.471 523.891 281.463 525.221V525.669C281.463 527.015 281.704 528.021 282.186 528.686C282.675 529.344 283.379 529.673 284.297 529.673ZM296.963 531.899C295.197 531.899 293.762 531.344 292.661 530.235C291.567 529.119 291.02 527.635 291.02 525.784V525.439C291.02 524.2 291.257 523.095 291.732 522.124C292.213 521.145 292.887 520.384 293.751 519.84C294.615 519.297 295.579 519.026 296.642 519.026C298.333 519.026 299.637 519.565 300.555 520.644C301.48 521.722 301.943 523.248 301.943 525.221V526.346H293.831C293.915 527.371 294.256 528.182 294.852 528.778C295.457 529.375 296.214 529.673 297.124 529.673C298.401 529.673 299.442 529.157 300.245 528.124L301.748 529.558C301.251 530.3 300.585 530.878 299.751 531.291C298.925 531.696 297.996 531.899 296.963 531.899ZM296.631 521.263C295.866 521.263 295.246 521.531 294.772 522.066C294.305 522.602 294.007 523.347 293.877 524.304H299.189V524.097C299.128 523.164 298.879 522.46 298.443 521.986C298.008 521.504 297.403 521.263 296.631 521.263Z" fill="black"/>
<path d="M162.069 577.969C162.069 577.392 161.865 576.948 161.457 576.636C161.054 576.323 160.324 576.008 159.267 575.69C158.21 575.371 157.37 575.017 156.745 574.627C155.55 573.876 154.952 572.897 154.952 571.69C154.952 570.633 155.382 569.762 156.24 569.077C157.105 568.393 158.225 568.05 159.601 568.05C160.514 568.05 161.327 568.218 162.042 568.555C162.757 568.891 163.318 569.371 163.727 569.996C164.135 570.615 164.339 571.302 164.339 572.059H162.069C162.069 571.374 161.853 570.84 161.42 570.456C160.994 570.065 160.381 569.87 159.583 569.87C158.838 569.87 158.258 570.029 157.844 570.347C157.436 570.666 157.231 571.11 157.231 571.681C157.231 572.161 157.454 572.564 157.898 572.888C158.342 573.206 159.075 573.519 160.096 573.825C161.117 574.125 161.937 574.47 162.556 574.861C163.174 575.245 163.628 575.69 163.916 576.194C164.204 576.693 164.348 577.278 164.348 577.951C164.348 579.044 163.928 579.915 163.087 580.563C162.252 581.206 161.117 581.527 159.682 581.527C158.733 581.527 157.859 581.353 157.06 581.005C156.267 580.65 155.649 580.164 155.204 579.545C154.766 578.927 154.547 578.206 154.547 577.383H156.826C156.826 578.128 157.072 578.705 157.565 579.113C158.057 579.521 158.763 579.726 159.682 579.726C160.475 579.726 161.069 579.566 161.466 579.248C161.868 578.924 162.069 578.497 162.069 577.969ZM172.042 580.392C171.399 581.149 170.486 581.527 169.303 581.527C168.246 581.527 167.444 581.218 166.898 580.599C166.357 579.981 166.087 579.086 166.087 577.915V571.6H168.276V577.888C168.276 579.125 168.79 579.744 169.817 579.744C170.88 579.744 171.597 579.362 171.97 578.599V571.6H174.159V581.347H172.096L172.042 580.392ZM180.393 579.78C180.94 579.78 181.393 579.62 181.753 579.302C182.114 578.984 182.306 578.59 182.33 578.122H184.393C184.369 578.729 184.18 579.296 183.825 579.825C183.471 580.347 182.991 580.762 182.384 581.068C181.777 581.374 181.123 581.527 180.42 581.527C179.057 581.527 177.976 581.086 177.177 580.203C176.378 579.32 175.979 578.101 175.979 576.545V576.32C175.979 574.837 176.375 573.651 177.168 572.762C177.961 571.867 179.042 571.419 180.411 571.419C181.57 571.419 182.513 571.759 183.24 572.437C183.973 573.11 184.357 573.996 184.393 575.095H182.33C182.306 574.537 182.114 574.077 181.753 573.717C181.399 573.356 180.946 573.176 180.393 573.176C179.684 573.176 179.138 573.434 178.753 573.951C178.369 574.461 178.174 575.239 178.168 576.284V576.636C178.168 577.693 178.357 578.482 178.735 579.005C179.12 579.521 179.672 579.78 180.393 579.78ZM190.339 581.527C188.951 581.527 187.825 581.092 186.96 580.221C186.102 579.344 185.672 578.179 185.672 576.726V576.455C185.672 575.482 185.858 574.615 186.231 573.852C186.609 573.083 187.138 572.486 187.816 572.059C188.495 571.633 189.252 571.419 190.086 571.419C191.414 571.419 192.438 571.843 193.158 572.69C193.885 573.537 194.249 574.735 194.249 576.284V577.167H187.879C187.945 577.972 188.213 578.608 188.681 579.077C189.156 579.545 189.75 579.78 190.465 579.78C191.468 579.78 192.285 579.374 192.915 578.563L194.095 579.69C193.705 580.272 193.183 580.726 192.528 581.05C191.879 581.368 191.15 581.527 190.339 581.527ZM190.077 573.176C189.477 573.176 188.99 573.386 188.618 573.807C188.252 574.227 188.017 574.813 187.915 575.564H192.086V575.401C192.038 574.669 191.843 574.116 191.501 573.744C191.159 573.365 190.684 573.176 190.077 573.176ZM201.42 578.699C201.42 578.308 201.257 578.011 200.933 577.807C200.615 577.603 200.083 577.422 199.339 577.266C198.594 577.11 197.972 576.912 197.474 576.672C196.381 576.143 195.834 575.377 195.834 574.374C195.834 573.534 196.188 572.831 196.897 572.266C197.606 571.702 198.507 571.419 199.6 571.419C200.765 571.419 201.705 571.708 202.42 572.284C203.14 572.861 203.501 573.609 203.501 574.528H201.311C201.311 574.107 201.155 573.759 200.843 573.482C200.531 573.2 200.116 573.059 199.6 573.059C199.119 573.059 198.726 573.17 198.42 573.392C198.119 573.615 197.969 573.912 197.969 574.284C197.969 574.621 198.11 574.882 198.393 575.068C198.675 575.254 199.245 575.443 200.104 575.636C200.963 575.822 201.636 576.047 202.122 576.311C202.615 576.57 202.978 576.882 203.212 577.248C203.453 577.615 203.573 578.059 203.573 578.581C203.573 579.458 203.209 580.17 202.483 580.717C201.756 581.257 200.804 581.527 199.627 581.527C198.828 581.527 198.116 581.383 197.492 581.095C196.867 580.807 196.381 580.41 196.032 579.906C195.684 579.401 195.51 578.858 195.51 578.275H197.636C197.666 578.792 197.861 579.191 198.221 579.473C198.582 579.75 199.059 579.888 199.654 579.888C200.23 579.888 200.669 579.78 200.969 579.563C201.269 579.341 201.42 579.053 201.42 578.699ZM210.951 578.699C210.951 578.308 210.789 578.011 210.464 577.807C210.146 577.603 209.615 577.422 208.87 577.266C208.125 577.11 207.504 576.912 207.005 576.672C205.912 576.143 205.365 575.377 205.365 574.374C205.365 573.534 205.72 572.831 206.428 572.266C207.137 571.702 208.038 571.419 209.131 571.419C210.296 571.419 211.236 571.708 211.951 572.284C212.672 572.861 213.032 573.609 213.032 574.528H210.843C210.843 574.107 210.687 573.759 210.374 573.482C210.062 573.2 209.648 573.059 209.131 573.059C208.651 573.059 208.257 573.17 207.951 573.392C207.651 573.615 207.5 573.912 207.5 574.284C207.5 574.621 207.642 574.882 207.924 575.068C208.206 575.254 208.777 575.443 209.636 575.636C210.494 575.822 211.167 576.047 211.654 576.311C212.146 576.57 212.509 576.882 212.744 577.248C212.984 577.615 213.104 578.059 213.104 578.581C213.104 579.458 212.741 580.17 212.014 580.717C211.287 581.257 210.335 581.527 209.158 581.527C208.359 581.527 207.648 581.383 207.023 581.095C206.398 580.807 205.912 580.41 205.564 579.906C205.215 579.401 205.041 578.858 205.041 578.275H207.167C207.197 578.792 207.392 579.191 207.753 579.473C208.113 579.75 208.591 579.888 209.185 579.888C209.762 579.888 210.2 579.78 210.5 579.563C210.801 579.341 210.951 579.053 210.951 578.699ZM215.789 581.347V573.221H214.302V571.6H215.789V570.708C215.789 569.627 216.089 568.792 216.689 568.203C217.29 567.615 218.131 567.32 219.212 567.32C219.596 567.32 220.005 567.375 220.437 567.483L220.383 569.194C220.143 569.146 219.864 569.122 219.545 569.122C218.5 569.122 217.978 569.66 217.978 570.735V571.6H219.96V573.221H217.978V581.347H215.789ZM227.464 580.392C226.821 581.149 225.908 581.527 224.725 581.527C223.668 581.527 222.867 581.218 222.32 580.599C221.779 579.981 221.509 579.086 221.509 577.915V571.6H223.698V577.888C223.698 579.125 224.212 579.744 225.239 579.744C226.302 579.744 227.02 579.362 227.392 578.599V571.6H229.581V581.347H227.518L227.464 580.392ZM234.14 581.347H231.95V567.51H234.14V581.347ZM238.86 581.347H236.671V567.51H238.86V581.347ZM244.662 578.212L246.644 571.6H248.977L245.103 582.825C244.509 584.464 243.5 585.284 242.076 585.284C241.758 585.284 241.407 585.23 241.022 585.122V583.428L241.437 583.455C241.989 583.455 242.404 583.353 242.68 583.149C242.962 582.951 243.184 582.614 243.347 582.14L243.662 581.302L240.238 571.6H242.599L244.662 578.212ZM265.058 577.077C264.926 578.476 264.409 579.569 263.508 580.356C262.607 581.137 261.409 581.527 259.914 581.527C258.869 581.527 257.947 581.281 257.148 580.789C256.355 580.29 255.743 579.584 255.31 578.672C254.878 577.759 254.653 576.699 254.635 575.491V574.266C254.635 573.029 254.854 571.939 255.292 570.996C255.731 570.053 256.358 569.326 257.175 568.816C257.998 568.305 258.947 568.05 260.022 568.05C261.469 568.05 262.634 568.444 263.517 569.23C264.4 570.017 264.914 571.128 265.058 572.564H262.787C262.679 571.621 262.403 570.942 261.959 570.528C261.52 570.107 260.875 569.897 260.022 569.897C259.031 569.897 258.268 570.26 257.734 570.987C257.205 571.708 256.935 572.768 256.923 574.167V575.329C256.923 576.747 257.175 577.828 257.68 578.572C258.19 579.317 258.935 579.69 259.914 579.69C260.809 579.69 261.481 579.488 261.932 579.086C262.382 578.684 262.667 578.014 262.787 577.077H265.058ZM266.481 576.383C266.481 575.428 266.67 574.57 267.049 573.807C267.427 573.038 267.959 572.449 268.643 572.041C269.328 571.627 270.115 571.419 271.004 571.419C272.319 571.419 273.385 571.843 274.202 572.69C275.024 573.537 275.469 574.66 275.535 576.059L275.544 576.573C275.544 577.533 275.358 578.392 274.985 579.149C274.619 579.906 274.091 580.491 273.4 580.906C272.715 581.32 271.922 581.527 271.022 581.527C269.646 581.527 268.544 581.071 267.715 580.158C266.893 579.239 266.481 578.017 266.481 576.491V576.383ZM268.67 576.573C268.67 577.575 268.877 578.362 269.292 578.933C269.706 579.497 270.283 579.78 271.022 579.78C271.76 579.78 272.334 579.491 272.742 578.915C273.157 578.338 273.364 577.494 273.364 576.383C273.364 575.398 273.151 574.618 272.724 574.041C272.304 573.464 271.73 573.176 271.004 573.176C270.289 573.176 269.721 573.461 269.301 574.032C268.88 574.597 268.67 575.443 268.67 576.573ZM279.454 571.6L279.517 572.618C280.202 571.819 281.138 571.419 282.328 571.419C283.631 571.419 284.523 571.918 285.003 572.915C285.712 571.918 286.709 571.419 287.994 571.419C289.069 571.419 289.868 571.717 290.39 572.311C290.919 572.906 291.189 573.783 291.201 574.942V581.347H289.012V575.005C289.012 574.386 288.877 573.933 288.607 573.645C288.336 573.356 287.889 573.212 287.264 573.212C286.766 573.212 286.358 573.347 286.039 573.618C285.727 573.882 285.508 574.23 285.382 574.663L285.391 581.347H283.201V574.933C283.171 573.786 282.586 573.212 281.445 573.212C280.568 573.212 279.946 573.57 279.58 574.284V581.347H277.391V571.6H279.454ZM301.985 576.573C301.985 578.08 301.642 579.284 300.958 580.185C300.273 581.08 299.354 581.527 298.201 581.527C297.132 581.527 296.276 581.176 295.634 580.473V585.095H293.444V571.6H295.462L295.552 572.591C296.195 571.81 297.069 571.419 298.174 571.419C299.363 571.419 300.294 571.864 300.967 572.753C301.645 573.636 301.985 574.864 301.985 576.437V576.573ZM299.805 576.383C299.805 575.41 299.609 574.639 299.219 574.068C298.835 573.498 298.282 573.212 297.561 573.212C296.667 573.212 296.024 573.582 295.634 574.32V578.645C296.03 579.401 296.679 579.78 297.579 579.78C298.276 579.78 298.82 579.5 299.21 578.942C299.606 578.377 299.805 577.524 299.805 576.383ZM306.174 581.347H303.985V567.51H306.174V581.347ZM312.858 581.527C311.471 581.527 310.345 581.092 309.48 580.221C308.621 579.344 308.192 578.179 308.192 576.726V576.455C308.192 575.482 308.378 574.615 308.75 573.852C309.129 573.083 309.657 572.486 310.336 572.059C311.015 571.633 311.771 571.419 312.606 571.419C313.933 571.419 314.957 571.843 315.678 572.69C316.405 573.537 316.768 574.735 316.768 576.284V577.167H310.399C310.465 577.972 310.732 578.608 311.201 579.077C311.675 579.545 312.27 579.78 312.985 579.78C313.987 579.78 314.804 579.374 315.435 578.563L316.615 579.69C316.225 580.272 315.702 580.726 315.048 581.05C314.399 581.368 313.669 581.527 312.858 581.527ZM312.597 573.176C311.997 573.176 311.51 573.386 311.138 573.807C310.771 574.227 310.537 574.813 310.435 575.564H314.606V575.401C314.558 574.669 314.363 574.116 314.021 573.744C313.678 573.365 313.204 573.176 312.597 573.176ZM321.219 569.23V571.6H322.939V573.221H321.219V578.663C321.219 579.035 321.291 579.305 321.435 579.473C321.585 579.635 321.849 579.717 322.228 579.717C322.48 579.717 322.735 579.687 322.993 579.626V581.32C322.495 581.458 322.014 581.527 321.552 581.527C319.87 581.527 319.029 580.599 319.029 578.744V573.221H317.426V571.6H319.029V569.23H321.219ZM328.912 581.527C327.525 581.527 326.399 581.092 325.534 580.221C324.675 579.344 324.246 578.179 324.246 576.726V576.455C324.246 575.482 324.432 574.615 324.804 573.852C325.182 573.083 325.711 572.486 326.39 572.059C327.068 571.633 327.825 571.419 328.66 571.419C329.987 571.419 331.011 571.843 331.732 572.69C332.459 573.537 332.822 574.735 332.822 576.284V577.167H326.453C326.519 577.972 326.786 578.608 327.254 579.077C327.729 579.545 328.324 579.78 329.038 579.78C330.041 579.78 330.858 579.374 331.489 578.563L332.669 579.69C332.278 580.272 331.756 580.726 331.101 581.05C330.453 581.368 329.723 581.527 328.912 581.527ZM328.651 573.176C328.05 573.176 327.564 573.386 327.191 573.807C326.825 574.227 326.591 574.813 326.489 575.564H330.66V575.401C330.612 574.669 330.417 574.116 330.074 573.744C329.732 573.365 329.257 573.176 328.651 573.176ZM334.119 576.401C334.119 574.9 334.468 573.696 335.164 572.789C335.861 571.876 336.795 571.419 337.966 571.419C338.999 571.419 339.834 571.78 340.47 572.501V567.51H342.66V581.347H340.678L340.569 580.338C339.915 581.131 339.041 581.527 337.948 581.527C336.807 581.527 335.882 581.068 335.173 580.149C334.471 579.23 334.119 577.981 334.119 576.401ZM336.308 576.591C336.308 577.581 336.497 578.356 336.876 578.915C337.26 579.467 337.804 579.744 338.506 579.744C339.401 579.744 340.056 579.344 340.47 578.545V574.383C340.068 573.603 339.419 573.212 338.524 573.212C337.816 573.212 337.269 573.494 336.885 574.059C336.5 574.618 336.308 575.461 336.308 576.591Z" fill="black"/>
<circle cx="128.841" cy="573.572" r="14.4964" fill="#0A621D"/>
<path d="M121.508 575.901L126.95 579.044L134.622 565.756" stroke="white" stroke-width="3.16286"/>
<g filter="url(#filter3_d)">
<rect x="40.0962" y="330.125" width="324.193" height="110.7" rx="7.90715" fill="#FAFAFA"/>
<rect x="40.2414" y="330.27" width="323.903" height="110.41" rx="7.76197" stroke="#ADADAD" stroke-width="0.290367"/>
</g>
<path d="M47.3542 330.389H357.031C360.894 330.389 364.026 333.52 364.026 337.383V383.087H40.3598V337.383C40.3598 333.52 43.4913 330.389 47.3542 330.389Z" fill="#E4E9EE" fill-opacity="0.55" stroke="#A8A8A8" stroke-width="0.527143"/>
<rect x="53.2745" y="340.668" width="39.5358" height="35.0174" rx="3.38878" fill="#0D682C"/>
<path d="M72.1871 350.566V361.508C72.1871 363.247 71.6286 364.626 70.5115 365.646C69.402 366.658 67.9213 367.164 66.0695 367.164C64.1952 367.164 62.707 366.666 61.605 365.668C60.5029 364.664 59.9519 363.273 59.9519 361.496V350.566H62.7858V361.519C62.7858 362.613 63.0632 363.449 63.6179 364.027C64.1727 364.604 64.9899 364.892 66.0695 364.892C68.2587 364.892 69.3532 363.738 69.3532 361.429V350.566H72.1871ZM80.8688 356.481L84.31 350.566H87.5937L82.6456 358.685L87.7062 366.939H84.3887L80.8688 360.934L77.3377 366.939H74.0314L79.1032 358.685L74.1439 350.566H77.4276L80.8688 356.481Z" fill="white"/>
<path d="M135.72 351.907V363.07C135.72 364.845 135.151 366.252 134.011 367.292C132.879 368.325 131.368 368.841 129.479 368.841C127.567 368.841 126.048 368.333 124.924 367.315C123.8 366.29 123.238 364.871 123.238 363.059V351.907H126.129V363.082C126.129 364.198 126.412 365.051 126.978 365.64C127.544 366.229 128.378 366.524 129.479 366.524C131.712 366.524 132.829 365.346 132.829 362.99V351.907H135.72ZM145.519 365.239C145.519 364.741 145.312 364.363 144.899 364.103C144.494 363.843 143.817 363.613 142.868 363.414C141.92 363.215 141.128 362.963 140.493 362.657C139.101 361.984 138.405 361.009 138.405 359.731C138.405 358.661 138.856 357.766 139.759 357.047C140.662 356.328 141.809 355.968 143.201 355.968C144.685 355.968 145.882 356.335 146.792 357.07C147.71 357.804 148.169 358.756 148.169 359.926H145.381C145.381 359.391 145.182 358.947 144.784 358.596C144.387 358.236 143.859 358.056 143.201 358.056C142.589 358.056 142.088 358.198 141.698 358.481C141.316 358.764 141.124 359.142 141.124 359.617C141.124 360.045 141.304 360.378 141.664 360.615C142.023 360.852 142.75 361.093 143.844 361.338C144.937 361.575 145.794 361.862 146.414 362.198C147.041 362.527 147.503 362.925 147.802 363.391C148.108 363.858 148.261 364.424 148.261 365.089C148.261 366.206 147.798 367.113 146.872 367.809C145.947 368.497 144.735 368.841 143.235 368.841C142.218 368.841 141.312 368.658 140.516 368.29C139.721 367.923 139.101 367.418 138.658 366.776C138.214 366.133 137.992 365.441 137.992 364.699H140.7C140.738 365.357 140.987 365.866 141.446 366.225C141.905 366.577 142.513 366.753 143.27 366.753C144.004 366.753 144.563 366.615 144.945 366.34C145.327 366.057 145.519 365.69 145.519 365.239ZM156.166 368.841C154.399 368.841 152.965 368.287 151.863 367.178C150.77 366.061 150.223 364.577 150.223 362.726V362.382C150.223 361.143 150.46 360.037 150.934 359.066C151.416 358.087 152.089 357.326 152.953 356.783C153.818 356.24 154.781 355.968 155.845 355.968C157.535 355.968 158.839 356.507 159.757 357.586C160.682 358.664 161.145 360.19 161.145 362.164V363.288H153.034C153.118 364.313 153.458 365.124 154.055 365.72C154.659 366.317 155.416 366.615 156.326 366.615C157.604 366.615 158.644 366.099 159.447 365.066L160.95 366.501C160.453 367.243 159.788 367.82 158.954 368.233C158.128 368.638 157.198 368.841 156.166 368.841ZM155.833 358.205C155.068 358.205 154.449 358.473 153.974 359.009C153.508 359.544 153.21 360.29 153.08 361.246H158.392V361.039C158.33 360.106 158.082 359.402 157.646 358.928C157.21 358.446 156.606 358.205 155.833 358.205ZM169.819 358.745C169.452 358.683 169.073 358.653 168.683 358.653C167.406 358.653 166.545 359.142 166.102 360.121V368.612H163.314V356.198H165.975L166.044 357.586C166.717 356.507 167.651 355.968 168.844 355.968C169.242 355.968 169.57 356.022 169.831 356.129L169.819 358.745ZM187.465 361.154H180.604V366.294H188.624V368.612H177.701V351.907H188.543V354.247H180.604V358.859H187.465V361.154ZM195.175 360.282L197.538 356.198H200.636L196.839 362.313L200.762 368.612H197.688L195.209 364.367L192.743 368.612H189.645L193.569 362.313L189.783 356.198H192.857L195.175 360.282ZM213.406 362.531C213.406 364.451 212.97 365.984 212.098 367.132C211.226 368.271 210.056 368.841 208.587 368.841C207.226 368.841 206.136 368.394 205.317 367.499V373.385H202.529V356.198H205.099L205.214 357.46C206.033 356.465 207.145 355.968 208.553 355.968C210.067 355.968 211.253 356.534 212.11 357.666C212.974 358.791 213.406 360.355 213.406 362.359V362.531ZM210.63 362.29C210.63 361.051 210.381 360.068 209.884 359.341C209.394 358.615 208.691 358.251 207.773 358.251C206.633 358.251 205.815 358.722 205.317 359.663V365.17C205.822 366.133 206.648 366.615 207.796 366.615C208.683 366.615 209.375 366.26 209.872 365.548C210.377 364.829 210.63 363.743 210.63 362.29ZM221.242 368.841C219.475 368.841 218.041 368.287 216.94 367.178C215.846 366.061 215.299 364.577 215.299 362.726V362.382C215.299 361.143 215.536 360.037 216.01 359.066C216.492 358.087 217.165 357.326 218.03 356.783C218.894 356.24 219.858 355.968 220.921 355.968C222.611 355.968 223.916 356.507 224.833 357.586C225.759 358.664 226.222 360.19 226.222 362.164V363.288H218.11C218.194 364.313 218.535 365.124 219.131 365.72C219.735 366.317 220.493 366.615 221.403 366.615C222.68 366.615 223.721 366.099 224.524 365.066L226.027 366.501C225.529 367.243 224.864 367.82 224.03 368.233C223.204 368.638 222.275 368.841 221.242 368.841ZM220.91 358.205C220.145 358.205 219.525 358.473 219.051 359.009C218.584 359.544 218.286 360.29 218.156 361.246H223.468V361.039C223.407 360.106 223.158 359.402 222.722 358.928C222.286 358.446 221.682 358.205 220.91 358.205ZM234.895 358.745C234.528 358.683 234.15 358.653 233.76 358.653C232.482 358.653 231.622 359.142 231.178 360.121V368.612H228.39V356.198H231.052L231.121 357.586C231.794 356.507 232.727 355.968 233.92 355.968C234.318 355.968 234.647 356.022 234.907 356.129L234.895 358.745ZM239.622 368.612H236.834V356.198H239.622V368.612ZM236.662 352.974C236.662 352.545 236.796 352.19 237.064 351.907C237.339 351.624 237.729 351.482 238.234 351.482C238.739 351.482 239.129 351.624 239.405 351.907C239.68 352.19 239.818 352.545 239.818 352.974C239.818 353.394 239.68 353.746 239.405 354.029C239.129 354.305 238.739 354.442 238.234 354.442C237.729 354.442 237.339 354.305 237.064 354.029C236.796 353.746 236.662 353.394 236.662 352.974ZM248.136 368.841C246.369 368.841 244.935 368.287 243.833 367.178C242.739 366.061 242.193 364.577 242.193 362.726V362.382C242.193 361.143 242.43 360.037 242.904 359.066C243.386 358.087 244.059 357.326 244.923 356.783C245.787 356.24 246.751 355.968 247.814 355.968C249.505 355.968 250.809 356.507 251.727 357.586C252.652 358.664 253.115 360.19 253.115 362.164V363.288H245.003C245.088 364.313 245.428 365.124 246.025 365.72C246.629 366.317 247.386 366.615 248.296 366.615C249.574 366.615 250.614 366.099 251.417 365.066L252.92 366.501C252.423 367.243 251.757 367.82 250.924 368.233C250.098 368.638 249.168 368.841 248.136 368.841ZM247.803 358.205C247.038 358.205 246.419 358.473 245.944 359.009C245.478 359.544 245.179 360.29 245.049 361.246H250.361V361.039C250.3 360.106 250.052 359.402 249.616 358.928C249.18 358.446 248.575 358.205 247.803 358.205ZM257.876 356.198L257.957 357.632C258.875 356.523 260.079 355.968 261.571 355.968C264.156 355.968 265.472 357.448 265.518 360.408V368.612H262.73V360.569C262.73 359.781 262.558 359.2 262.213 358.825C261.877 358.443 261.322 358.251 260.55 358.251C259.425 358.251 258.588 358.76 258.037 359.777V368.612H255.249V356.198H257.876ZM273.469 366.615C274.165 366.615 274.742 366.413 275.201 366.007C275.66 365.602 275.905 365.101 275.935 364.504H278.563C278.532 365.277 278.291 366 277.84 366.673C277.389 367.338 276.777 367.866 276.004 368.256C275.232 368.646 274.398 368.841 273.503 368.841C271.767 368.841 270.39 368.279 269.373 367.155C268.355 366.03 267.847 364.477 267.847 362.496V362.21C267.847 360.32 268.352 358.81 269.361 357.678C270.371 356.538 271.748 355.968 273.492 355.968C274.968 355.968 276.169 356.4 277.094 357.265C278.027 358.121 278.517 359.249 278.563 360.649H275.935C275.905 359.938 275.66 359.353 275.201 358.894C274.75 358.435 274.172 358.205 273.469 358.205C272.566 358.205 271.87 358.534 271.381 359.192C270.891 359.842 270.642 360.833 270.635 362.164V362.611C270.635 363.957 270.876 364.963 271.358 365.629C271.847 366.286 272.551 366.615 273.469 366.615ZM286.135 368.841C284.368 368.841 282.934 368.287 281.833 367.178C280.739 366.061 280.192 364.577 280.192 362.726V362.382C280.192 361.143 280.429 360.037 280.903 359.066C281.385 358.087 282.058 357.326 282.923 356.783C283.787 356.24 284.751 355.968 285.814 355.968C287.504 355.968 288.808 356.507 289.726 357.586C290.652 358.664 291.115 360.19 291.115 362.164V363.288H283.003C283.087 364.313 283.427 365.124 284.024 365.72C284.628 366.317 285.386 366.615 286.296 366.615C287.573 366.615 288.613 366.099 289.417 365.066L290.92 366.501C290.422 367.243 289.757 367.82 288.923 368.233C288.097 368.638 287.168 368.841 286.135 368.841ZM285.802 358.205C285.038 358.205 284.418 358.473 283.944 359.009C283.477 359.544 283.179 360.29 283.049 361.246H288.361V361.039C288.3 360.106 288.051 359.402 287.615 358.928C287.179 358.446 286.575 358.205 285.802 358.205Z" fill="black"/>
<path d="M93.0261 411.573H90.4864V416.625H88.2079V403.512H92.8189C94.3319 403.512 95.4997 403.852 96.3223 404.53C97.1448 405.208 97.5561 406.19 97.5561 407.475C97.5561 408.352 97.3429 409.087 96.9167 409.681C96.4964 410.27 95.908 410.723 95.1515 411.041L98.0964 416.508V416.625H95.6558L93.0261 411.573ZM90.4864 409.744H92.8279C93.5965 409.744 94.1969 409.552 94.6291 409.168C95.0614 408.778 95.2776 408.246 95.2776 407.574C95.2776 406.872 95.0764 406.328 94.6742 405.944C94.2779 405.56 93.6835 405.362 92.891 405.35H90.4864V409.744ZM103.797 416.805C102.41 416.805 101.285 416.37 100.42 415.499C99.5614 414.623 99.1321 413.458 99.1321 412.005V411.735C99.1321 410.762 99.3183 409.895 99.6905 409.132C100.069 408.364 100.597 407.766 101.276 407.34C101.954 406.914 102.711 406.7 103.545 406.7C104.872 406.7 105.896 407.124 106.616 407.97C107.343 408.817 107.706 410.015 107.706 411.564V412.446H101.339C101.405 413.251 101.672 413.887 102.14 414.355C102.614 414.824 103.209 415.058 103.923 415.058C104.926 415.058 105.743 414.653 106.373 413.842L107.553 414.968C107.162 415.55 106.64 416.004 105.986 416.328C105.337 416.646 104.608 416.805 103.797 416.805ZM103.536 408.457C102.936 408.457 102.449 408.667 102.077 409.087C101.711 409.507 101.477 410.093 101.375 410.843H105.544V410.681C105.496 409.949 105.301 409.396 104.959 409.024C104.617 408.646 104.142 408.457 103.536 408.457ZM112.722 413.851L114.785 406.881H117.045L113.668 416.625H111.768L108.363 406.881H110.633L112.722 413.851ZM120.746 416.625H118.558V406.881H120.746V416.625ZM118.423 404.35C118.423 404.014 118.528 403.734 118.738 403.512C118.954 403.29 119.26 403.179 119.657 403.179C120.053 403.179 120.359 403.29 120.575 403.512C120.791 403.734 120.9 404.014 120.9 404.35C120.9 404.68 120.791 404.956 120.575 405.178C120.359 405.395 120.053 405.503 119.657 405.503C119.26 405.503 118.954 405.395 118.738 405.178C118.528 404.956 118.423 404.68 118.423 404.35ZM127.429 416.805C126.042 416.805 124.916 416.37 124.052 415.499C123.193 414.623 122.764 413.458 122.764 412.005V411.735C122.764 410.762 122.95 409.895 123.322 409.132C123.7 408.364 124.229 407.766 124.907 407.34C125.586 406.914 126.342 406.7 127.177 406.7C128.504 406.7 129.527 407.124 130.248 407.97C130.974 408.817 131.337 410.015 131.337 411.564V412.446H124.97C125.036 413.251 125.303 413.887 125.772 414.355C126.246 414.824 126.841 415.058 127.555 415.058C128.558 415.058 129.374 414.653 130.005 413.842L131.184 414.968C130.794 415.55 130.272 416.004 129.617 416.328C128.969 416.646 128.239 416.805 127.429 416.805ZM127.168 408.457C126.567 408.457 126.081 408.667 125.709 409.087C125.343 409.507 125.108 410.093 125.006 410.843H129.176V410.681C129.128 409.949 128.933 409.396 128.591 409.024C128.248 408.646 127.774 408.457 127.168 408.457ZM141.604 413.608L143.153 406.881H145.288L142.631 416.625H140.83L138.74 409.934L136.687 416.625H134.886L132.22 406.881H134.354L135.931 413.536L137.93 406.881H139.578L141.604 413.608ZM149.079 416.625H146.891V406.881H149.079V416.625ZM146.756 404.35C146.756 404.014 146.861 403.734 147.071 403.512C147.287 403.29 147.593 403.179 147.99 403.179C148.386 403.179 148.692 403.29 148.908 403.512C149.124 403.734 149.232 404.014 149.232 404.35C149.232 404.68 149.124 404.956 148.908 405.178C148.692 405.395 148.386 405.503 147.99 405.503C147.593 405.503 147.287 405.395 147.071 405.178C146.861 404.956 146.756 404.68 146.756 404.35ZM153.501 406.881L153.564 408.006C154.285 407.136 155.23 406.7 156.401 406.7C158.43 406.7 159.463 407.862 159.499 410.186V416.625H157.311V410.312C157.311 409.693 157.176 409.237 156.905 408.943C156.641 408.643 156.206 408.493 155.6 408.493C154.717 408.493 154.06 408.892 153.627 409.69V416.625H151.439V406.881H153.501ZM161.354 411.681C161.354 410.168 161.709 408.961 162.417 408.06C163.132 407.154 164.077 406.7 165.254 406.7C166.365 406.7 167.238 407.088 167.875 407.862L167.974 406.881H169.946V416.328C169.946 417.607 169.547 418.615 168.748 419.354C167.956 420.092 166.884 420.462 165.533 420.462C164.819 420.462 164.119 420.311 163.435 420.011C162.756 419.717 162.24 419.33 161.886 418.849L162.921 417.535C163.594 418.333 164.422 418.732 165.407 418.732C166.134 418.732 166.707 418.534 167.127 418.138C167.547 417.748 167.758 417.171 167.758 416.409V415.751C167.127 416.454 166.287 416.805 165.236 416.805C164.095 416.805 163.162 416.352 162.435 415.445C161.715 414.539 161.354 413.284 161.354 411.681ZM163.534 411.87C163.534 412.848 163.732 413.62 164.128 414.184C164.53 414.743 165.086 415.022 165.794 415.022C166.677 415.022 167.331 414.644 167.758 413.887V409.6C167.343 408.862 166.695 408.493 165.812 408.493C165.092 408.493 164.53 408.778 164.128 409.348C163.732 409.919 163.534 410.759 163.534 411.87ZM182.699 415.67C182.056 416.427 181.144 416.805 179.961 416.805C178.904 416.805 178.102 416.496 177.556 415.878C177.016 415.259 176.746 414.365 176.746 413.194V406.881H178.934V413.167C178.934 414.404 179.447 415.022 180.474 415.022C181.537 415.022 182.254 414.641 182.626 413.878V406.881H184.815V416.625H182.753L182.699 415.67ZM192.506 413.977C192.506 413.587 192.344 413.29 192.02 413.086C191.702 412.882 191.17 412.701 190.426 412.545C189.681 412.389 189.06 412.191 188.561 411.951C187.469 411.423 186.922 410.657 186.922 409.654C186.922 408.814 187.277 408.111 187.985 407.547C188.694 406.983 189.594 406.7 190.687 406.7C191.852 406.7 192.791 406.989 193.506 407.565C194.226 408.141 194.586 408.889 194.586 409.807H192.398C192.398 409.387 192.242 409.039 191.93 408.763C191.617 408.481 191.203 408.34 190.687 408.34C190.207 408.34 189.813 408.451 189.507 408.673C189.207 408.895 189.057 409.192 189.057 409.564C189.057 409.901 189.198 410.162 189.48 410.348C189.762 410.534 190.333 410.723 191.191 410.915C192.05 411.101 192.722 411.326 193.209 411.591C193.701 411.849 194.064 412.161 194.298 412.527C194.538 412.894 194.658 413.338 194.658 413.86C194.658 414.737 194.295 415.448 193.569 415.995C192.842 416.535 191.891 416.805 190.714 416.805C189.915 416.805 189.204 416.661 188.579 416.373C187.955 416.085 187.469 415.688 187.12 415.184C186.772 414.68 186.598 414.136 186.598 413.554H188.724C188.754 414.07 188.949 414.47 189.309 414.752C189.669 415.028 190.146 415.166 190.741 415.166C191.317 415.166 191.756 415.058 192.056 414.842C192.356 414.62 192.506 414.331 192.506 413.977ZM200.864 416.805C199.477 416.805 198.351 416.37 197.486 415.499C196.628 414.623 196.198 413.458 196.198 412.005V411.735C196.198 410.762 196.385 409.895 196.757 409.132C197.135 408.364 197.663 407.766 198.342 407.34C199.02 406.914 199.777 406.7 200.611 406.7C201.938 406.7 202.962 407.124 203.682 407.97C204.409 408.817 204.772 410.015 204.772 411.564V412.446H198.405C198.471 413.251 198.738 413.887 199.206 414.355C199.681 414.824 200.275 415.058 200.99 415.058C201.992 415.058 202.809 414.653 203.439 413.842L204.619 414.968C204.229 415.55 203.706 416.004 203.052 416.328C202.404 416.646 201.674 416.805 200.864 416.805ZM200.602 408.457C200.002 408.457 199.516 408.667 199.143 409.087C198.777 409.507 198.543 410.093 198.441 410.843H202.611V410.681C202.563 409.949 202.368 409.396 202.025 409.024C201.683 408.646 201.209 408.457 200.602 408.457ZM211.581 408.88C211.293 408.832 210.995 408.808 210.689 408.808C209.686 408.808 209.011 409.192 208.663 409.961V416.625H206.474V406.881H208.564L208.618 407.97C209.146 407.124 209.879 406.7 210.815 406.7C211.127 406.7 211.386 406.742 211.59 406.827L211.581 408.88ZM221.848 416.805C220.461 416.805 219.335 416.37 218.47 415.499C217.612 414.623 217.182 413.458 217.182 412.005V411.735C217.182 410.762 217.369 409.895 217.741 409.132C218.119 408.364 218.647 407.766 219.326 407.34C220.004 406.914 220.761 406.7 221.595 406.7C222.922 406.7 223.946 407.124 224.666 407.97C225.393 408.817 225.756 410.015 225.756 411.564V412.446H219.389C219.455 413.251 219.722 413.887 220.19 414.355C220.665 414.824 221.259 415.058 221.974 415.058C222.976 415.058 223.793 414.653 224.423 413.842L225.603 414.968C225.213 415.55 224.69 416.004 224.036 416.328C223.388 416.646 222.658 416.805 221.848 416.805ZM221.586 408.457C220.986 408.457 220.5 408.667 220.127 409.087C219.761 409.507 219.527 410.093 219.425 410.843H223.595V410.681C223.547 409.949 223.352 409.396 223.009 409.024C222.667 408.646 222.193 408.457 221.586 408.457ZM230.962 410.087L232.817 406.881H235.248L232.267 411.681L235.347 416.625H232.934L230.989 413.293L229.052 416.625H226.621L229.701 411.681L226.729 406.881H229.142L230.962 410.087ZM245.272 411.852C245.272 413.359 244.93 414.563 244.245 415.463C243.561 416.358 242.642 416.805 241.49 416.805C240.421 416.805 239.565 416.454 238.923 415.751V420.371H236.734V406.881H238.752L238.842 407.871C239.484 407.091 240.358 406.7 241.463 406.7C242.651 406.7 243.582 407.145 244.254 408.033C244.933 408.916 245.272 410.144 245.272 411.717V411.852ZM243.093 411.663C243.093 410.69 242.897 409.919 242.507 409.348C242.123 408.778 241.571 408.493 240.85 408.493C239.956 408.493 239.313 408.862 238.923 409.6V413.923C239.319 414.68 239.968 415.058 240.868 415.058C241.565 415.058 242.108 414.779 242.498 414.22C242.894 413.656 243.093 412.803 243.093 411.663ZM251.423 416.805C250.036 416.805 248.91 416.37 248.046 415.499C247.187 414.623 246.758 413.458 246.758 412.005V411.735C246.758 410.762 246.944 409.895 247.316 409.132C247.695 408.364 248.223 407.766 248.901 407.34C249.58 406.914 250.336 406.7 251.171 406.7C252.498 406.7 253.522 407.124 254.242 407.97C254.968 408.817 255.332 410.015 255.332 411.564V412.446H248.964C249.031 413.251 249.298 413.887 249.766 414.355C250.24 414.824 250.835 415.058 251.549 415.058C252.552 415.058 253.368 414.653 253.999 413.842L255.179 414.968C254.788 415.55 254.266 416.004 253.612 416.328C252.963 416.646 252.234 416.805 251.423 416.805ZM251.162 408.457C250.562 408.457 250.075 408.667 249.703 409.087C249.337 409.507 249.103 410.093 249.001 410.843H253.17V410.681C253.122 409.949 252.927 409.396 252.585 409.024C252.243 408.646 251.768 408.457 251.162 408.457ZM262.14 408.88C261.852 408.832 261.555 408.808 261.249 408.808C260.246 408.808 259.571 409.192 259.222 409.961V416.625H257.034V406.881H259.123L259.177 407.97C259.706 407.124 260.438 406.7 261.375 406.7C261.687 406.7 261.945 406.742 262.149 406.827L262.14 408.88ZM265.851 416.625H263.662V406.881H265.851V416.625ZM263.527 404.35C263.527 404.014 263.632 403.734 263.842 403.512C264.058 403.29 264.365 403.179 264.761 403.179C265.157 403.179 265.463 403.29 265.68 403.512C265.896 403.734 266.004 404.014 266.004 404.35C266.004 404.68 265.896 404.956 265.68 405.178C265.463 405.395 265.157 405.503 264.761 405.503C264.365 405.503 264.058 405.395 263.842 405.178C263.632 404.956 263.527 404.68 263.527 404.35ZM272.533 416.805C271.146 416.805 270.02 416.37 269.156 415.499C268.297 414.623 267.868 413.458 267.868 412.005V411.735C267.868 410.762 268.054 409.895 268.426 409.132C268.805 408.364 269.333 407.766 270.011 407.34C270.69 406.914 271.446 406.7 272.281 406.7C273.608 406.7 274.632 407.124 275.352 407.97C276.078 408.817 276.442 410.015 276.442 411.564V412.446H270.074C270.141 413.251 270.408 413.887 270.876 414.355C271.35 414.824 271.945 415.058 272.659 415.058C273.662 415.058 274.478 414.653 275.109 413.842L276.289 414.968C275.898 415.55 275.376 416.004 274.722 416.328C274.073 416.646 273.344 416.805 272.533 416.805ZM272.272 408.457C271.672 408.457 271.185 408.667 270.813 409.087C270.447 409.507 270.213 410.093 270.111 410.843H274.28V410.681C274.232 409.949 274.037 409.396 273.695 409.024C273.353 408.646 272.878 408.457 272.272 408.457ZM280.179 406.881L280.242 408.006C280.963 407.136 281.908 406.7 283.079 406.7C285.108 406.7 286.141 407.862 286.177 410.186V416.625H283.989V410.312C283.989 409.693 283.854 409.237 283.583 408.943C283.319 408.643 282.884 408.493 282.278 408.493C281.395 408.493 280.738 408.892 280.305 409.69V416.625H278.117V406.881H280.179ZM292.418 415.058C292.965 415.058 293.418 414.899 293.778 414.581C294.138 414.262 294.331 413.869 294.355 413.401H296.417C296.393 414.007 296.204 414.575 295.85 415.103C295.495 415.625 295.015 416.04 294.409 416.346C293.802 416.652 293.148 416.805 292.445 416.805C291.082 416.805 290.002 416.364 289.203 415.481C288.405 414.599 288.005 413.38 288.005 411.825V411.6C288.005 410.117 288.402 408.931 289.194 408.042C289.987 407.148 291.067 406.7 292.436 406.7C293.595 406.7 294.538 407.04 295.264 407.718C295.997 408.391 296.381 409.276 296.417 410.375H294.355C294.331 409.816 294.138 409.357 293.778 408.997C293.424 408.637 292.971 408.457 292.418 408.457C291.71 408.457 291.163 408.715 290.779 409.231C290.395 409.741 290.2 410.519 290.194 411.564V411.915C290.194 412.972 290.383 413.761 290.761 414.283C291.145 414.8 291.698 415.058 292.418 415.058ZM302.361 416.805C300.974 416.805 299.848 416.37 298.984 415.499C298.125 414.623 297.696 413.458 297.696 412.005V411.735C297.696 410.762 297.882 409.895 298.254 409.132C298.632 408.364 299.161 407.766 299.839 407.34C300.518 406.914 301.274 406.7 302.109 406.7C303.436 406.7 304.459 407.124 305.18 407.97C305.906 408.817 306.269 410.015 306.269 411.564V412.446H299.902C299.968 413.251 300.235 413.887 300.704 414.355C301.178 414.824 301.773 415.058 302.487 415.058C303.49 415.058 304.306 414.653 304.937 413.842L306.116 414.968C305.726 415.55 305.204 416.004 304.549 416.328C303.901 416.646 303.171 416.805 302.361 416.805ZM302.1 408.457C301.499 408.457 301.013 408.667 300.641 409.087C300.275 409.507 300.04 410.093 299.938 410.843H304.108V410.681C304.06 409.949 303.865 409.396 303.523 409.024C303.18 408.646 302.706 408.457 302.1 408.457ZM309.341 414.319C309.749 414.319 310.064 414.437 310.286 414.671C310.508 414.899 310.619 415.187 310.619 415.535C310.619 415.878 310.508 416.163 310.286 416.391C310.064 416.613 309.749 416.724 309.341 416.724C308.95 416.724 308.641 416.613 308.413 416.391C308.185 416.169 308.071 415.884 308.071 415.535C308.071 415.187 308.182 414.899 308.404 414.671C308.626 414.437 308.938 414.319 309.341 414.319ZM314.492 414.319C314.9 414.319 315.215 414.437 315.438 414.671C315.66 414.899 315.771 415.187 315.771 415.535C315.771 415.878 315.66 416.163 315.438 416.391C315.215 416.613 314.9 416.724 314.492 416.724C314.102 416.724 313.792 416.613 313.564 416.391C313.336 416.169 313.222 415.884 313.222 415.535C313.222 415.187 313.333 414.899 313.555 414.671C313.777 414.437 314.09 414.319 314.492 414.319Z" fill="#9B9B9B"/>
<defs>
<filter id="filter0_d" x="64.3033" y="113.606" width="345.279" height="131.786" filterUnits="userSpaceOnUse" color-interpolation-filters="sRGB">
<feFlood flood-opacity="0" result="BackgroundImageFix"/>
<feColorMatrix in="SourceAlpha" type="matrix" values="0 0 0 0 0 0 0 0 0 0 0 0 0 0 0 0 0 0 127 0"/>
<feOffset dy="10.5429"/>
<feGaussianBlur stdDeviation="5.27143"/>
<feColorMatrix type="matrix" values="0 0 0 0 0 0 0 0 0 0 0 0 0 0 0 0 0 0 0.25 0"/>
<feBlend mode="normal" in2="BackgroundImageFix" result="effect1_dropShadow"/>
<feBlend mode="normal" in="SourceGraphic" in2="effect1_dropShadow" result="shape"/>
</filter>
<filter id="filter1_d" x="6.83213" y="642.875" width="345.279" height="131.786" filterUnits="userSpaceOnUse" color-interpolation-filters="sRGB">
<feFlood flood-opacity="0" result="BackgroundImageFix"/>
<feColorMatrix in="SourceAlpha" type="matrix" values="0 0 0 0 0 0 0 0 0 0 0 0 0 0 0 0 0 0 127 0"/>
<feOffset dy="10.5429"/>
<feGaussianBlur stdDeviation="5.27143"/>
<feColorMatrix type="matrix" values="0 0 0 0 0 0 0 0 0 0 0 0 0 0 0 0 0 0 0.25 0"/>
<feBlend mode="normal" in2="BackgroundImageFix" result="effect1_dropShadow"/>
<feBlend mode="normal" in="SourceGraphic" in2="effect1_dropShadow" result="shape"/>
</filter>
<filter id="filter2_d" x="61.6302" y="493.183" width="345.279" height="131.786" filterUnits="userSpaceOnUse" color-interpolation-filters="sRGB">
<feFlood flood-opacity="0" result="BackgroundImageFix"/>
<feColorMatrix in="SourceAlpha" type="matrix" values="0 0 0 0 0 0 0 0 0 0 0 0 0 0 0 0 0 0 127 0"/>
<feOffset dy="10.5429"/>
<feGaussianBlur stdDeviation="5.27143"/>
<feColorMatrix type="matrix" values="0 0 0 0 0 0 0 0 0 0 0 0 0 0 0 0 0 0 0.25 0"/>
<feBlend mode="normal" in2="BackgroundImageFix" result="effect1_dropShadow"/>
<feBlend mode="normal" in="SourceGraphic" in2="effect1_dropShadow" result="shape"/>
</filter>
<filter id="filter3_d" x="29.5533" y="330.125" width="345.279" height="131.786" filterUnits="userSpaceOnUse" color-interpolation-filters="sRGB">
<feFlood flood-opacity="0" result="BackgroundImageFix"/>
<feColorMatrix in="SourceAlpha" type="matrix" values="0 0 0 0 0 0 0 0 0 0 0 0 0 0 0 0 0 0 127 0"/>
<feOffset dy="10.5429"/>
<feGaussianBlur stdDeviation="5.27143"/>
<feColorMatrix type="matrix" values="0 0 0 0 0 0 0 0 0 0 0 0 0 0 0 0 0 0 0.25 0"/>
<feBlend mode="normal" in2="BackgroundImageFix" result="effect1_dropShadow"/>
<feBlend mode="normal" in="SourceGraphic" in2="effect1_dropShadow" result="shape"/>
</filter>
</defs>
</svg>
