<svg width="200" height="200" viewBox="0 0 200 200" fill="none" xmlns="http://www.w3.org/2000/svg">
<path fill-rule="evenodd" clip-rule="evenodd" d="M89.6981 99.849C89.6981 80.6021 74.0961 65 54.8491 65C35.6021 65 20 80.6021 20 99.849C20 119.096 35.6021 134.698 54.8491 134.698C74.0961 134.698 89.6981 119.096 89.6981 99.849ZM87.6225 99.8517C87.6225 81.7498 72.9493 67.0766 54.849 67.0766C36.7488 67.0766 22.0739 81.7498 22.0739 99.8517C22.0739 117.952 36.7488 132.625 54.849 132.625C72.9493 132.625 87.6225 117.952 87.6225 99.8517Z" fill="black"/>
<path d="M65.0374 86.1183L64.9899 86.0333L65.0047 85.9186L65.0131 85.8596L65.041 85.7974L65.0525 85.7106L65.0591 85.6465L65.0837 85.6279L65.0902 85.5954L65.1018 85.5332L65.1445 85.4217L65.1705 85.3609L65.236 85.2462L65.2588 85.2044L65.2834 85.158L65.3261 85.1208L65.354 85.0734L65.4163 84.9983L65.4325 84.9796V84.9518L65.4817 84.9285L65.5062 84.8914L65.5341 84.8543L65.5849 84.831L65.616 84.7892L65.6947 84.7257L65.7225 84.6839L65.7766 84.6653L65.7947 84.6421L65.8193 84.6374L65.8341 84.6188L65.8769 84.591L65.9112 84.5631L65.9405 84.5538L65.9568 84.5306L65.9976 84.512L66.032 84.4795L66.0761 84.4563L66.1662 84.4145L66.2038 84.3866L66.3037 84.3588L66.3478 84.3356L66.3953 84.3262L66.4936 84.2938L66.6034 84.2659L66.6575 84.2473L66.6821 84.252L66.7067 84.2473L66.8279 84.2427L66.8885 84.2473L66.977 84.2441L67.0654 84.2487L67.1228 84.2579L67.1637 84.2859L67.2161 84.2997L67.2734 84.3276L67.3815 84.309L67.4224 84.3058L67.4554 84.3383L67.4767 84.3856L67.513 84.4478L67.5441 84.485L67.5687 84.5342L67.6049 84.576L67.6458 84.6234V84.694L67.6736 84.8101L67.662 84.8379L67.6718 84.8704L67.6946 84.9275L67.701 84.9647L67.714 84.9926L67.7024 85.0204L67.6484 85.0943L67.6057 85.1974L67.5927 85.2856L67.5876 85.3274L67.5629 85.3598L67.5532 85.4142L67.5188 85.456L67.4909 85.5066L67.4534 85.5484L67.4287 85.5949L67.4157 85.6487L67.3207 85.7128L67.2322 85.8373L67.1225 85.9533L67.0635 86.0448L66.9996 86.1368L66.9325 86.2366L66.7424 86.3972L66.6327 86.4678L66.5867 86.5003L66.5556 86.5468L66.4524 86.5747L66.3721 86.6452L66.2082 86.7205L66.1688 86.7529L66.0656 86.7576L66.0261 86.7391L65.9704 86.7437L65.859 86.7669L65.6903 86.7437L65.4773 86.688L65.3708 86.6508L65.2807 86.5983L65.1317 86.4409L65.1038 86.4038L65.0908 86.3448L65.0597 86.2352L65.037 86.1121L65.0374 86.1183ZM63.4905 98.5033L63.4529 98.3413L63.4612 98.248V98.0483L63.4808 97.7483L63.4775 97.6712L63.5067 97.583L63.5133 97.3847L63.5295 97.2096L63.5411 97.0113L63.569 96.8279L63.6019 96.5381L63.6003 96.4448L63.6151 96.3826L63.6054 96.3733L63.617 96.37L63.6073 96.3328L63.6235 96.2855L63.6319 96.22L63.6235 96.2014L63.6417 96.169L63.6468 96.1067L63.6649 95.9279L63.6598 95.8815L63.6514 95.8444L63.6677 95.7853L63.6871 95.6168L63.7052 95.5118L63.7036 95.4218L63.7217 95.2351L63.7412 95.1041L63.7496 95.0535L63.7333 95.0117L63.7496 94.9746L63.7658 94.8139L63.7607 94.7206L63.7788 94.7159L63.7918 94.7066L63.7886 94.6834L63.7737 94.6742V94.6462L63.7918 94.6231L63.7737 94.5859L63.7853 94.5441L63.8034 94.4591L63.8099 94.2971L63.8132 94.2831L63.8494 94.2692L63.8313 94.2367L63.8165 94.2274V94.2042L63.8346 94.181L63.8151 94.1578L63.8462 94.1392L63.8397 94.0974L63.8346 93.9794L63.8541 93.9042L63.8557 93.8225L63.8641 93.7807L63.8822 93.7761L63.8887 93.7528L63.859 93.7064L63.8752 93.6971L63.8882 93.6316L63.8899 93.5137L63.8963 93.4904L63.8947 93.4719L63.898 93.372L63.924 93.3117L63.9323 93.2086L63.9175 93.1761L63.9026 93.1389L63.9124 93.125L63.9453 93.1203L63.9305 93.0739L63.9402 93.0368L63.9453 93.0089L63.9305 92.981L63.924 92.9625H63.9402L63.9598 92.9718L63.9581 92.9625L63.9367 92.9532L63.9419 92.9114L63.9549 92.9068L63.9646 92.8974L63.9484 92.8928L63.9614 92.865L63.9647 92.8157V92.7568L63.9777 92.675L63.9841 92.5668L63.9809 92.5162L63.9841 92.493H64.0037L64.0053 92.4466L63.9937 92.4233L64.0053 92.3695L64.0169 92.2827L64.0234 92.1369L64.0267 92.1089V92.0858L64.0383 92.0765L64.0564 92.0486L64.048 92.03V91.9808L64.0596 91.939L64.0713 91.8782L64.0875 91.8689L64.0908 91.8503L64.0713 91.8457L64.0729 91.8132L64.0745 91.7639L64.0927 91.7623L64.0797 91.7484L64.0732 91.7345L64.0894 91.7437L64.0945 91.6569L64.1094 91.5733L64.1242 91.5046L64.1391 91.4906L64.1358 91.4136L64.1131 91.3764L64.1474 91.3012L64.1558 91.1916L64.1609 91.141L64.1757 91.1364L64.1595 91.1131L64.179 91.1038L64.1725 91.0667L64.1627 91.0527L64.1757 91.0389L64.1855 90.9358L64.1985 90.8833L64.1902 90.8787L64.2245 90.7347L64.2473 90.6608L64.2635 90.6516L64.2652 90.6042L64.293 90.5568L64.3093 90.529L64.3176 90.4719L64.3306 90.4486L64.3241 90.4347L64.3487 90.4254L64.3538 90.4022L64.3506 90.3836L64.3622 90.3744L64.39 90.3511L64.3752 90.3418L64.4128 90.2648L64.4044 90.2276L64.4765 90.1245L64.4927 90.0655L64.5141 90.0562L64.5504 89.9907L64.5652 89.9815L64.5963 89.9127L64.6782 89.8227L64.7618 89.7274L64.7929 89.6996L64.8012 89.681L64.8537 89.6485L64.8732 89.616L64.9126 89.5928L65.0257 89.4897L65.0535 89.4619L65.142 89.3866L65.219 89.3541L65.2617 89.3355L65.2896 89.3077L65.3109 89.3093L65.3207 89.2954L65.3715 89.2722L65.4156 89.2582L65.4551 89.2397L65.5059 89.2304L65.5599 89.2271L65.6008 89.2085L65.6351 89.1899L65.6547 89.1882L65.6728 89.185L65.6955 89.2175L65.7215 89.1989L65.8476 89.185L65.9001 89.1804H65.9409L65.9623 89.1618L65.9851 89.1711L66.0768 89.1804L66.1358 89.1989L66.165 89.2222L66.211 89.2268L66.2454 89.2453L66.2746 89.2686L66.3025 89.3011L66.3285 89.3197L66.348 89.3289L66.3464 89.3475L66.3612 89.3568L66.3629 89.3754L66.3759 89.4126L66.3742 89.459L66.3858 89.4557L66.4007 89.4836L66.3974 89.5068L66.3909 89.556L66.3747 89.5653L66.3909 89.5699L66.4058 89.5792V89.6025L66.3974 89.621V89.6303L66.3812 89.6396L66.3747 89.6721L66.3909 89.6705L66.3876 89.6798L66.4006 89.7077L66.4023 89.7262L66.4171 89.7077L66.4301 89.6937L66.4613 89.6983L66.4807 89.703L66.4743 89.7216L66.4859 89.7355L66.4645 89.7634L66.4794 89.7541L66.4743 89.768L66.4645 89.8288L66.4696 89.8474L66.491 89.8799L66.4826 89.8892L66.4956 89.8876L66.5105 89.8643L66.5235 89.8736L66.5351 89.9108L66.5286 89.9294L66.5402 89.9433L66.5583 89.9526L66.5681 89.9851L66.5648 90.0269L66.5467 90.064L66.5434 90.1012L66.5499 90.1583L66.5648 90.1676L66.5731 90.2001L66.5634 90.2326L66.5374 90.2511L66.5341 90.2985L66.5113 90.3264L66.477 90.345L66.5067 90.3729V90.3914L66.5216 90.3868L66.5199 90.41L66.5069 90.4116L66.5134 90.4209L66.4888 90.4302L66.4726 90.4286L66.4609 90.4611L66.4642 90.4797L66.4772 90.4889L66.4986 90.5168L66.4935 90.5493L66.4345 90.605L66.4066 90.6329L66.4164 90.6468L66.4294 90.6654L66.4359 90.6886V90.7072L66.4475 90.6979L66.4605 90.7072H66.4949L66.4819 90.7165L66.4624 90.7211L66.441 90.7768L66.454 90.7861L66.4605 90.7908L66.4638 90.8001L66.4819 90.8094L66.4786 90.8512L66.4656 90.8558L66.4689 90.8743L66.4624 90.9115L66.4838 90.9394L66.4508 90.9626L66.4113 90.9812L66.4146 90.9997L66.403 91.023L66.4095 91.0276L66.4146 91.0508L66.4475 91.0554L66.4392 91.0926L66.4197 91.088L66.4048 91.0972L66.3965 91.1158L66.4081 91.1344L66.4132 91.1809L66.4359 91.1855L66.4146 91.2087L66.4062 91.2273L66.377 91.2505L66.3574 91.283L66.3458 91.2969L66.3263 91.3016L66.3166 91.334L66.3217 91.3434L66.3152 91.348L66.384 91.362L66.41 91.3603L66.423 91.3696L66.4425 91.3603L66.4081 91.3882V91.4253L66.3868 91.4439L66.3984 91.4671L66.4049 91.4764L66.3868 91.4781L66.3852 91.4595H66.3638L66.341 91.4688L66.3183 91.4595L66.3216 91.4781L66.3346 91.5106L66.3573 91.5245L66.3657 91.5616L66.3624 91.6081L66.3378 91.6313L66.3327 91.6174L66.3113 91.6141L66.2983 91.6467L66.3229 91.6838L66.3522 91.7116L66.3505 91.7256L66.3668 91.7349L66.3552 91.7535L66.3436 91.772L66.3241 91.7767L66.3078 91.7674L66.3027 91.7658L66.2962 91.7751L66.2946 91.8619L66.2848 91.9144L66.2881 91.9422L66.2783 91.9562L66.2686 91.9747L66.2751 91.9933L66.2881 92.0304L66.283 92.049L66.2813 92.1029V92.2273V92.3225L66.2897 92.3319L66.3157 92.3285L66.3222 92.3192L66.3352 92.3332L66.3171 92.3518L66.2944 92.3889L66.2795 92.3982L66.299 92.4015L66.2874 92.4108L66.2841 92.4247L66.2971 92.4154L66.3134 92.4201L66.3296 92.4294L66.3148 92.4432L66.3199 92.4572L66.3134 92.4712L66.3199 92.4897L66.3115 92.499L66.3329 92.5269L66.3542 92.5594L66.3526 92.5779L66.3429 92.5746L66.3378 92.584L66.3215 92.6675L66.2904 92.7381L66.2774 92.8263L66.289 92.8635L66.3219 92.9006L66.3368 92.9053H66.3531L66.3415 92.9285L66.3531 92.947L66.3103 92.9749L66.289 93.0306L66.3317 93.0585L66.3201 93.0724L66.3136 93.1143L66.289 93.1374L66.2906 93.1867L66.2939 93.2703L66.3185 93.2888L66.325 93.3027L66.3431 93.3074L66.358 93.3306L66.325 93.3538L66.2971 93.3956L66.2906 93.4421L66.3023 93.4746L66.2874 93.5071L66.3218 93.4885L66.3496 93.4607L66.358 93.5025L66.3153 93.5442L66.3004 93.5675L66.3069 93.5953L66.2874 93.6231L66.2939 93.743L66.3218 93.7615L66.3201 93.7941L66.3742 93.8479L66.3398 93.8665L66.312 93.9083L66.325 93.9608L66.3561 93.9979L66.3577 94.0486L66.335 94.0857L66.3168 94.1776L66.3628 94.2241L66.3577 94.2612L66.3247 94.2566L66.2691 94.2983L66.2853 94.3309L66.2737 94.3634V94.3959L66.2342 94.382L66.1785 94.4191L66.2064 94.5371L66.2194 94.5696L66.1818 94.5881L66.1623 94.6253L66.1804 94.7121L66.1787 94.7595L66.1771 94.792L66.1804 94.8393L66.205 94.8765L66.2836 94.9137L66.3148 94.9415L66.3361 94.9833L66.3574 95.0112L66.3347 95.0437L66.3199 95.0943L66.3182 95.1128L66.2969 95.1112L66.2806 95.1019L66.289 95.088L66.2546 95.0647L66.2253 95.0462L66.2007 95.0508L66.217 95.0183L66.191 94.9905L66.1533 95.0137L66.1599 95.061L66.1615 95.0982L66.2056 95.0965L66.227 95.1151L66.2121 95.129L66.2205 95.143L66.2121 95.1904L66.2138 95.2275L66.2711 95.2507L66.299 95.2321L66.3138 95.26L66.3171 95.3064L66.3204 95.3528L66.286 95.3435L66.1779 95.2762L66.1598 95.2716L66.1482 95.2623L66.1417 95.3041L66.1533 95.3412L66.1338 95.4216L66.1322 95.4588L66.1126 95.4773L66.1354 95.5145L66.1224 95.5609L66.1108 95.7541L66.1043 96.054L66.0992 96.1525L66.0876 96.3178L66.0927 96.3652L66.0764 96.393L66.0862 96.4255L66.096 96.4488L66.0699 96.4673L66.0667 96.5458V96.7343L66.0518 96.921L66.0713 97.0111L66.1188 97.0603V97.1439L66.1104 97.2047L66.1397 97.2233L66.1234 97.2558L66.0775 97.3166L66.0858 97.3738L66.0956 97.4411L66.071 97.4457L66.0905 97.4736L66.0626 97.6097L66.0199 97.7262L65.9478 97.7681L65.9232 97.8697L65.8511 97.9974L65.6922 98.1809L65.5563 98.3085L65.458 98.4246L65.4088 98.4479L65.3893 98.4804L65.3074 98.5035L65.1829 98.602L65.101 98.6253L65.0848 98.6624L65.0439 98.6717L64.8768 98.7599L64.6065 98.909L64.3395 98.9977L64.1446 99.007L63.9627 98.9883L63.8054 98.9559L63.7251 98.8853L63.6023 98.7822L63.5433 98.6726L63.4892 98.5152L63.4905 98.5033ZM82.5216 92.988L82.4808 93.0418L82.484 93.0744L82.4201 93.1449L82.4987 93.1357L82.4971 93.2206L82.5577 93.2531L82.4971 93.3024L82.4218 93.3209L82.4134 93.4059L82.3739 93.4663L82.3723 93.5383L82.3509 93.5708L82.3361 93.5383L82.2706 93.6316L82.2836 93.6283L82.2295 93.6776L82.2328 93.7282L82.2049 93.7654L82.2328 93.8522L82.1787 93.8196L82.149 93.818L82.1342 93.8505L82.1095 93.916L82.0668 93.9945L81.9865 94.0976L81.8833 94.2531L81.8047 94.307L81.7392 94.3544L81.6736 94.4264L81.6147 94.5048L81.5639 94.5327L81.2968 94.7226L81.1526 94.8108L80.8807 94.9618L80.7628 95.0226L80.4744 95.1308L80.2238 95.2339L80.0436 95.2803L79.6914 95.3918L79.4997 95.4391L79.3179 95.5032L78.9608 95.6161L78.5758 95.7405L78.4104 95.7995L78.0467 95.9337L77.9304 95.9754L77.8042 96.0377L77.6896 96.0656L77.5782 96.1162L77.4668 96.1487L77.3603 96.1993L77.2768 96.2271L77.2014 96.2736L77.0458 96.3358L76.9082 96.3962L76.8411 96.4287L76.7886 96.4705L76.7149 96.4751L76.656 96.5169L76.5151 96.5824L76.3807 96.6348L76.2398 96.699L76.0891 96.771L75.9269 96.8248L75.8663 96.8666L75.8073 96.9037L75.6648 96.9678L75.6583 96.9864H75.6356L75.5915 97.005L75.5063 97.0514L75.3539 97.122L75.1606 97.2251L75.0181 97.2892L74.9427 97.317L74.869 97.3793L74.7412 97.435L74.6724 97.4768L74.5414 97.5553L74.4676 97.5831L74.4136 97.6249L74.4119 97.611L74.2907 97.6797L74.2366 97.7215L74.1728 97.7355L74.0516 97.8074L74.0204 97.8167L74.0056 97.8399L73.9401 97.8492L73.8941 97.891L73.8417 97.9235L73.6647 98.0019L73.6188 98.0299L73.5385 98.0623L73.5222 98.0902L73.4665 98.1088L73.3634 98.1775L73.1668 98.2709L73.021 98.3447L72.885 98.4102L72.7294 98.497L72.5492 98.5838L72.5181 98.6117L72.4721 98.6256L72.4181 98.6674L72.2821 98.738L72.133 98.8164L72.0922 98.8304L72.0662 98.8583L71.9728 98.8675L71.9333 98.9214L71.8662 98.9539L71.7352 99.0212L71.6762 99.0537L71.6205 99.0909L71.5026 99.1726L71.3731 99.2005L71.3207 99.2543L71.2421 99.2961L71.0652 99.3747L71.0095 99.4165L70.8637 99.4805L70.8031 99.5413L70.6655 99.6166L70.5901 99.6537L70.5345 99.7011L70.4804 99.7197L70.4395 99.7522L70.3806 99.7986L70.3199 99.8079L70.2282 99.8617L70.1906 99.8896L70.1365 99.9082L70.0251 99.9755L69.9694 100.017L69.9105 100.036L69.7647 100.121L69.6303 100.196L69.5746 100.238L69.4419 100.305L69.3863 100.352L69.1061 100.497L68.9521 100.586L68.8751 100.618L68.8227 100.667L68.6671 100.746L68.5573 100.82L68.4951 100.862L68.4181 100.88L68.4 100.913L68.3624 100.917L68.2968 100.954L68.21 100.992L68.1396 101.044L68.0085 101.131L67.9381 101.163L67.8857 101.2L67.8005 101.233L67.7366 101.286L67.6661 101.313L67.6153 101.363L67.4777 101.433L67.3631 101.51L67.2206 101.594L67.0682 101.687L66.9208 101.759L66.7619 101.849L66.4686 102.035L66.3196 102.12L66.2082 102.198L65.9198 102.364L65.7708 102.452L65.7085 102.498L65.6741 102.522L65.6233 102.531L65.5955 102.563L65.5676 102.577L65.5054 102.615L65.4562 102.664L65.3268 102.718L65.1793 102.806L65.0516 102.89L64.9975 102.932L64.9336 102.973L64.8108 103.049L64.6895 103.132L64.5715 103.196L64.4995 103.25L64.4684 103.287L64.4289 103.311L64.2782 103.401L64.2717 103.419L64.1227 103.482L64.0735 103.535L63.9998 103.559L63.9655 103.591L63.9362 103.605L63.8772 103.647L63.8232 103.684L63.774 103.73L63.8033 103.758L63.728 103.786L63.6559 103.8L63.5854 103.833L63.5627 103.86L63.5692 103.893L63.4905 103.921L63.4185 103.944L63.2727 104.036L63.1514 104.123L63.0891 104.165L63.0383 104.206L62.9089 104.28L62.85 104.322L62.7943 104.35L62.6829 104.435L62.5436 104.533L62.5027 104.543L62.4684 104.566L62.4308 104.594L62.3997 104.617L62.3718 104.64L62.349 104.663L62.3277 104.665L62.2605 104.712L62.2554 104.74L62.2225 104.745L62.1471 104.794L62.103 104.831L62.0654 104.864L62.0637 104.85L62.0146 104.882L61.9983 104.896L61.9867 104.915L61.9654 104.919L61.9505 104.929L61.9227 104.943L61.9175 104.961L61.9027 104.97L61.8911 105.008L61.8535 105.017L61.8172 105.059L61.781 105.06L61.7467 105.079L61.709 105.102L61.6779 105.13L61.6501 105.153L61.6371 105.163L61.6468 105.172L61.6222 105.236L61.5813 105.298L61.5521 105.321L61.5242 105.349L61.4177 105.368L61.3996 105.422L61.3292 105.44L61.2999 105.482L61.2508 105.459L61.2146 105.516L61.2276 105.519L61.1604 105.603L61.1031 105.649L61.1128 105.691L61.1258 105.705L61.1207 105.723L61.1468 105.747L61.1384 105.793L61.1156 105.842L61.1123 105.898L61.0715 105.962L61.1386 105.999L61.1419 106.036L61.1354 106.078L61.1024 106.092L61.0713 106.088L61.063 106.115L61.0941 106.134L61.1006 106.195L61.0778 106.267L61.0795 106.321L61.1041 106.362L61.0957 106.4L61.0906 106.423L61.0957 106.46L61.0744 106.492L61.0711 106.53L61.1008 106.589L61.1384 106.57L61.1533 106.607L61.1417 106.644L61.1124 106.672L61.0962 106.714L61.0632 106.742L61.0386 106.77L61.014 106.798L61.0123 106.844L61.0072 106.867L60.9942 106.877L61.0647 106.914L61.0874 106.89L61.1037 106.923L61.0726 106.988L61.0609 107.084L61.0545 107.121L61.0298 107.153L61.0071 107.232L60.9811 107.255L61.0025 107.283L61.0368 107.288L61.0614 107.306L61.0679 107.343L61.1041 107.357L61.1025 107.447V107.526L61.0765 107.578L61.0602 107.615L61.0486 107.671L61.024 107.704L61.05 107.736L61.0319 107.769L61.0268 107.819L60.9938 107.842L60.9887 107.884L61.0133 107.917L60.9971 107.991L61.0577 108.014L61.0726 108.023L61.0856 108.02L61.0888 108.048L61.0577 108.089L61.0772 108.137L61.0232 108.165L61.0102 108.118L60.9674 108.117L60.9479 108.19L60.9758 108.228L60.9774 108.265L61.0053 108.34L61.0281 108.372L61.0573 108.4L61.0457 108.477L61.0327 108.496V108.519L61.0229 108.561L60.9983 108.594L60.9802 108.631L60.9867 108.727L61.0522 108.769L61.0309 108.806L61.0258 108.859L61.0518 108.891L61.042 108.939L61.0193 108.976L61.0044 109.026L60.983 109.04L60.9779 109.068V109.101L61.0039 109.115L61.0156 109.167L60.9779 109.209L60.9863 109.246L60.9947 109.269L61.0174 109.288L61.0044 109.32L60.9882 109.339L60.9798 109.367L60.9882 109.422L60.9817 109.485L60.9784 109.558L60.99 109.582L60.9816 109.61V109.685L60.9833 109.772L60.9735 109.795L60.9684 109.823L60.9944 109.869L61.019 109.878L61.0223 109.911L61.0061 109.963L60.9801 110.01L60.9749 110.047L60.9536 110.066L60.9898 110.089L61.0028 110.07L61.0191 110.089L61.0404 110.126L61.0599 110.128V110.146L61.0483 110.169L61.0321 110.179L61.0255 110.226V110.249L61.0534 110.253L61.0729 110.271L61.0613 110.299L61.0007 110.304L60.9516 110.332L60.9729 110.359L60.9646 110.387L60.9386 110.396L60.9302 110.424L60.927 110.457L60.9023 110.466V110.469L60.9172 110.493L60.9432 110.483L60.9645 110.465L60.9975 110.463V110.51L60.9892 110.57L61.0119 110.568V110.631L61.0235 110.658L61.017 110.7L61.0087 110.728L60.9957 110.747L61.017 110.756L61.0268 110.779L61.0495 110.788L61.0087 110.802L60.9924 110.826V110.873L61.0022 110.896L61.0105 110.905V110.919L61.004 110.947L60.9892 110.971L60.9762 111.044L60.9827 111.113L60.9892 111.136L60.9908 111.15L61.0006 111.155L60.9954 111.173L60.9824 111.192L60.9629 111.215L60.9416 111.224L60.9611 111.234L60.9903 111.262L60.9954 111.28L61.0071 111.285L61.0054 111.308L60.9808 111.322V111.35L60.9792 111.412L60.9857 111.445L60.9908 111.468L60.9778 111.496L60.9811 111.524L60.9778 111.589L60.9875 111.622L60.9908 111.654L60.9892 111.72L60.9743 111.747L60.9432 111.757L60.9367 111.78L60.9762 111.789L60.9813 111.853L60.9829 111.935L60.9569 112.022L60.9388 112.031V112.054V112.091L60.8961 112.11L60.8944 112.138L60.9158 112.135L60.9372 112.116L60.9585 112.13L60.9766 112.183L60.9585 112.206L60.9339 112.215V112.243L60.9306 112.271L60.9715 112.317L60.991 112.34L61.0138 112.35L61.0121 112.415L61.0038 112.443L60.9921 112.466L60.9938 112.494L60.984 112.522L60.9724 112.545L60.9673 112.573L60.951 112.624L60.925 112.661L60.9413 112.679L60.9673 112.675L60.9738 112.693L60.9576 112.721L60.9887 112.73L60.9854 112.796L60.9427 112.873L60.9278 112.953L60.9769 112.903L61.0048 112.879L60.9997 112.912L60.9653 112.974L60.9588 113.021L60.9393 113.049L60.9704 113.062L60.995 113.039L60.9574 113.092L60.9393 113.115L60.9607 113.129L60.9969 113.147L61.0118 113.166L60.9658 113.222L60.982 113.254L61.008 113.277L61.0475 113.276L61.0508 113.308L60.9705 113.332L60.8984 113.355L60.8724 113.387L60.8692 113.434L60.8594 113.457L60.8645 113.48L60.8366 113.508L60.8172 113.536L60.8399 113.559L60.8548 113.636L60.8975 113.639L60.891 113.677L60.8435 113.714L60.8221 113.742L60.8416 113.769L60.8546 113.802L60.8662 113.769L60.9285 113.783L60.8858 113.834L60.9775 113.792L61.0054 113.825L61.0184 113.874L61.0314 113.906L61.0184 113.944L61.0101 113.981L60.9822 113.962L60.9068 113.939L60.8776 113.962L60.8465 114.004L60.8892 114.05L60.9022 114.083L60.9333 114.111L61.0037 114.143L60.9856 114.194L60.9037 114.208L60.9497 114.27L60.9873 114.289L60.9924 114.312L61.0022 114.326L60.9826 114.398L61.017 114.421L61.0154 114.463L60.9564 114.504L60.9253 114.523L60.8793 114.52L60.8007 114.511L60.8679 114.529L60.958 114.532L60.9631 114.565L60.9189 114.57L60.8943 114.593L60.9171 114.611L60.9398 114.682L60.8957 114.751L60.866 114.778L60.8316 114.816L60.8186 114.883L60.8479 114.911L60.8562 114.953L60.9003 114.994L60.8822 115.018L60.8873 115.05L60.8906 115.097L60.9301 115.1L60.9631 115.081L60.9728 115.044L60.9909 115.053L60.9696 115.086L60.9826 115.168L60.9285 115.205L60.9745 115.237L60.9694 115.291L61.0169 115.268L61.0531 115.231L61.035 115.254L61.0187 115.334L60.9779 115.398L61.0303 115.403L61.0665 115.342L60.9977 115.442L60.9109 115.445L60.8798 115.527L60.8487 115.555L60.8389 115.587L60.8194 115.635L60.8524 115.649L60.8672 115.686L60.8524 115.758L60.931 115.786L60.9259 115.863L60.9848 115.909L61.0062 115.975L60.8391 115.998L60.8113 116.085L60.8653 116.16L60.8129 116.226L60.8408 116.263L60.8505 116.309L60.916 116.318L60.9601 116.269L60.9504 116.219L61.0028 116.251L60.9782 116.27L60.9749 116.311L60.9865 116.383L60.9833 116.416L61.0195 116.43L61.0801 116.458L61.0162 116.505L60.9081 116.562L60.9341 116.595L60.9357 116.632L60.9785 116.682L60.9603 116.825L60.8981 116.9L60.9898 116.972L60.9717 117.049L61.0471 117.048L61.042 117.123L61.068 117.128L61.1745 117.132L61.1564 117.165L61.1285 117.192L61.109 117.196L61.1057 117.214L61.0746 117.228L61.0486 117.381L61.0226 117.445L61.0849 117.44L61.1881 117.487L61.1667 117.478L61.1421 117.487L61.1161 117.511L61.1145 117.576L61.1228 117.645L61.1916 117.668L61.2279 117.665L61.2246 117.707L61.1722 117.756L61.2459 117.844L61.1919 117.944L61.2656 117.953L61.2396 118L61.2312 118.049L61.2396 118.108L61.2494 118.158L61.2331 118.177L61.2364 118.205L61.228 118.186L61.1052 118.183L61.1592 118.257L61.1708 118.34L61.13 118.39L61.1332 118.413L61.1267 118.441L61.1105 118.459L61.1007 118.487L61.0812 118.52L61.1336 118.547L61.1369 118.566L61.1434 118.575L61.145 118.603L61.1386 118.631L61.1697 118.636L61.2105 118.682L61.2286 118.71L61.2695 118.713L61.2746 118.658L61.3039 118.634L61.3331 118.611L61.3512 118.66L61.335 118.684L61.3285 118.711H61.3614L61.3795 118.739L61.4074 118.758L61.4009 118.786L61.3958 118.818L61.3777 118.837L61.3793 118.887L61.3989 118.906L61.384 118.925L61.3691 118.901L61.3561 118.92L61.3742 118.943L61.3726 118.957L61.3954 118.959L61.407 119.026L61.4135 119.093L61.4283 119.149L61.4497 119.158L61.4548 119.182L61.4762 119.228L61.4483 119.277L61.4813 119.268L61.478 119.314L61.537 119.318L61.5286 119.355L61.5662 119.327L61.5402 119.373L61.5862 119.42L61.5288 119.477L61.5321 119.514L61.501 119.547L61.442 119.606L61.4911 119.668L61.4043 119.686L61.2994 119.691L61.28 119.762L61.3111 119.789L61.3635 119.725L61.4438 119.781L61.4665 119.772L61.4716 119.776L61.393 119.841H61.2816L61.2932 119.878L61.3114 119.896L61.2886 119.906L61.3216 119.924L61.3067 119.966L61.2737 119.989L61.2853 120.026L61.2886 120.073L61.3183 120.105L61.3035 120.166L61.3262 120.248L61.4671 120.312L61.5015 120.181L61.5456 120.209L61.5358 120.246L61.5456 120.365L61.5734 120.318L61.6226 120.355L61.6588 120.388L61.6964 120.435L61.6456 120.482L61.608 120.432L61.4999 120.491L61.6097 120.495L61.6768 120.571L61.7309 120.598L61.7898 120.622L61.7374 120.715L61.7342 120.636L61.7063 120.686L61.6719 120.723L61.6146 120.714L61.6522 120.732L61.6884 120.789L61.6229 120.822L61.6145 120.892L61.5375 120.888L61.4934 120.846L61.4674 120.809L61.4772 120.846L61.4609 120.855L61.4888 120.883L61.4837 120.929L61.559 120.934L61.5901 120.925L61.6194 120.948L61.6408 121.017L61.5867 121.035L61.5607 121.063L61.5328 121.068L61.5263 121.118L61.5556 121.168L61.5375 121.191L61.6161 121.21L61.6491 121.242L61.6588 121.245L61.6342 121.287L61.6833 121.245L61.6638 121.327L61.6968 121.384L61.6675 121.421L61.7117 121.454L61.72 121.421L61.7675 121.458L61.838 121.462L61.8528 121.509L61.8839 121.462L61.8742 121.545L61.7841 121.609L61.7563 121.696L61.7446 121.749L61.6955 121.753L61.7382 121.781L61.7745 121.809L61.6745 121.851L61.6532 121.915L61.6272 121.975L61.6402 122.051L61.6796 122.064L61.7043 122.083L61.8418 122.129L61.7829 122.157L61.7452 122.194L61.7141 122.199L61.7011 122.222L61.6307 122.232L61.6209 122.264L61.6061 122.287L61.5768 122.338L61.5277 122.449L61.5096 122.526L61.4785 122.582L61.3769 122.716L61.3245 122.772L61.2671 122.825L60.8854 123.09L60.8035 123.123L60.7462 123.172L60.6643 123.181L60.5791 123.214L60.2711 123.242L59.9828 123.237L59.796 123.204L59.4586 123.101L59.3144 123.034L59.1915 122.952L59.0473 122.841L58.9916 122.77L58.918 122.71L58.8475 122.62L58.7836 122.476L58.7622 122.443L58.7506 122.406L58.7246 122.313L58.6624 122.149L58.6429 122.083L58.6313 121.995L58.6099 121.994L58.5871 121.843L58.5593 121.767L58.5609 121.73L58.5363 121.716L58.5247 121.631L58.5117 121.545L58.5066 121.449L58.4871 121.417L58.4904 121.375L58.5034 121.361L58.4917 121.347L58.4801 121.31L58.4769 121.22L58.4639 121.055L58.4704 120.925L58.4671 120.81L58.4476 120.747L58.4704 120.71L58.4411 120.623L58.4541 120.377L58.4819 120.282L58.4722 120.193L58.4819 120.118L58.4704 119.944L58.4949 119.71L58.4866 119.673L58.4931 119.636L58.4834 119.554L58.5028 119.477L58.4945 119.392L58.5028 119.215L58.488 119.04L58.5061 118.972L58.5126 118.879V118.725L58.5209 118.574V118.417L58.5358 118.242L58.5275 118.153V118.06L58.5535 117.993L58.5502 117.904L58.5683 117.765L58.5469 117.702L58.5502 117.625L58.5599 117.455L58.5616 117.273L58.5649 117.093L58.5862 116.918L58.5765 116.836L58.5862 116.721L58.6206 116.556L58.6155 116.466L58.5941 116.391L58.622 116.323L58.6204 116.228L58.6087 116.051L58.6023 115.874L58.5906 115.697L58.599 115.609L58.6283 115.496L58.6232 115.354L58.5939 115.077L58.5758 115.003L58.5823 114.915L58.5906 114.738L58.6199 114.577L58.625 114.443L58.6413 114.319L58.6199 114.155L58.6413 114.084L58.6396 113.994L58.6247 113.917L58.5872 113.846V113.761L58.6527 113.752L58.6643 113.56L58.6805 113.514L58.6494 113.486L58.6643 113.44L58.661 113.389L58.6429 113.297L58.661 113.26L58.6559 113.251L58.6461 113.249L58.6526 113.106L58.6578 112.969V112.823L58.6642 112.646L58.6726 112.52L58.6791 112.445L58.6545 112.368L58.6675 112.289V112.199L58.6726 112.112L58.6578 112.042L58.6642 111.855L58.6545 111.818L58.6726 111.79L58.6642 111.708L58.6675 111.623L58.6494 111.549L58.6708 111.475L58.6724 111.382L58.6775 111.097L58.6873 111.092L58.6808 110.927L58.671 110.745L58.6727 110.558L58.6611 110.475L58.6675 110.39L58.6727 110.219V110.036V109.875L58.6675 109.683L58.6592 109.651L58.6722 109.614V109.522L58.6639 109.34V109.168L58.6754 109.093L58.6639 108.934L58.6722 108.866L58.6606 108.725L58.6754 108.716L58.6671 108.537V108.359L58.6801 108.008L58.662 107.939L58.6899 107.864L58.675 107.703L58.6734 107.625L58.685 107.578L58.698 107.493L58.6928 107.419L58.698 107.337L58.6896 107.328L58.5749 107.377L58.5554 107.4L58.5308 107.414L58.4604 107.442L58.3588 107.499L58.2523 107.571L58.1852 107.604L58.1196 107.65L57.9919 107.738L57.8559 107.826L57.7526 107.895L57.6773 107.964L57.5528 108.046L57.4414 108.138L57.3267 108.224L57.2727 108.274L57.2203 108.333L57.1498 108.365L57.0958 108.426L56.9499 108.534L56.8238 108.639L56.7026 108.713L56.6551 108.774L56.5633 108.836L56.4617 108.923L56.3864 108.987L56.3127 109.038L56.2357 109.079L56.1948 109.135L56.1309 109.172L56.0687 109.214L56.0278 109.266L55.9737 109.308L55.9164 109.358L55.8755 109.354L55.8574 109.387L55.8017 109.433L55.7725 109.461L55.7316 109.47L55.6825 109.531L55.5727 109.628L55.4564 109.709L55.3942 109.751L55.3467 109.798L55.3058 109.807L55.2812 109.839L55.1436 109.951L55.0797 110.015L55.0781 110.01L55.0567 110.038L54.9896 110.066L54.9273 110.118L54.9306 110.113L54.8093 110.202L54.6963 110.3L54.5849 110.38L54.5292 110.43L54.4637 110.471L54.2114 110.683L54.0771 110.796L54.0263 110.842L53.997 110.87L53.9594 110.884L53.9301 110.953L53.881 110.966L53.8448 110.99L53.7924 111.039L53.7416 111.098L53.6826 111.135L53.6302 111.182L53.5073 111.283L53.3779 111.386L53.2976 111.454L53.2516 111.513L53.2075 111.516L53.1861 111.544L53.1222 111.593L52.9879 111.709L52.9339 111.762L52.9009 111.781L52.8795 111.808L52.814 111.859L52.7222 111.944L52.6207 112.009L52.4863 112.131L52.3651 112.224L52.239 112.332L52.1587 112.379L52.1392 112.411L52.0997 112.42L51.9719 112.53L51.7344 112.719L51.5771 112.868L51.4166 112.967L51.3511 113.041L51.1004 113.244L50.971 113.354L50.8416 113.465L50.7745 113.507L50.7237 113.558L50.5959 113.669L50.4861 113.769L50.2747 113.937L50.1781 114.015L50.1748 114.001L50.1044 114.073L50.0209 114.132L49.9668 114.173L49.9208 114.228L49.7979 114.309L49.7585 114.368L49.6848 114.415L49.6274 114.461L49.5931 114.524L49.5177 114.551L49.4554 114.607L49.3408 114.699L49.3097 114.765L49.2475 114.822L49.1492 114.931L49.0803 114.973L49.0312 115.024L48.9329 115.125L48.8428 115.237L48.8201 115.299L48.7496 115.361L48.6448 115.458L48.5972 115.51L48.5383 115.543L48.4498 115.648L48.399 115.705L48.3482 115.747L48.2483 115.825L48.1418 115.891L48.032 115.966L47.8387 116.13L47.7158 116.271L47.6339 116.333L47.5848 116.407L47.5226 116.477L47.4636 116.514L47.4422 116.542L47.4357 116.579L47.3538 116.633L47.2752 116.752L47.2014 116.802L47.1376 116.885L47.0409 116.988L46.9852 117.03L46.7739 117.232L46.5921 117.494L46.4561 117.582L46.3643 117.69L46.33 117.756L46.2775 117.798L46.1874 117.912L46.081 118.024L46.0302 118.066L45.981 118.123L45.9597 118.114L45.886 118.226L45.8336 118.259L45.7908 118.308L45.7089 118.385L45.6155 118.506L45.5058 118.587L45.4663 118.648L45.4155 118.698L45.3139 118.806L45.2189 118.885L45.1043 118.991L45.0535 119.047L44.9961 119.089L44.9567 119.154L44.9125 119.168L44.893 119.191L44.8865 119.21L44.8684 119.215L44.8438 119.233L44.7865 119.275L44.7308 119.377L44.6669 119.467L44.5686 119.598L44.5031 119.663L44.4474 119.71L44.4311 119.78L44.3558 119.833L44.3098 119.895L44.241 119.923L44.1983 119.984L44.1442 120.03L44.0982 120.077L44.062 120.143L44.016 120.213L43.9669 120.251L43.8342 120.365L43.7293 120.457L43.6376 120.556L43.5475 120.67L43.5294 120.698L43.5034 120.717L43.3051 120.894L43.179 121.008L43.1266 121.055L43.0839 121.105L43.0183 121.143L42.9789 121.197L42.8855 121.312L42.8446 121.371L42.7627 121.42L42.6972 121.484L42.6186 121.548L42.5726 121.6L42.512 121.638L42.4579 121.675L42.3842 121.684L42.3582 121.712L42.3289 121.731L42.2733 121.777L42.0914 121.779L42.0063 121.802L41.9211 121.779L41.8425 121.802L41.7573 121.788L41.6655 121.797L41.6279 121.779L41.5885 121.788L41.4099 121.76L41.3313 121.727L41.2429 121.709L41.1757 121.672L41.0938 121.649L40.8087 121.496L40.6941 121.377L40.5975 121.308L40.5483 121.193L40.4975 121.126L40.4255 120.959L40.3925 120.877L40.3498 120.733L40.3205 120.635L40.3289 120.525L40.2814 120.302L40.3222 120.104L40.3371 120.026L40.4157 119.855L40.5157 119.696L40.6385 119.536L40.8318 119.282L41.0923 118.969L41.2217 118.821L41.3692 118.662L41.682 118.346L41.9425 118.085L42.2063 117.846L42.3389 117.728L42.4569 117.602L42.601 117.489L42.6584 117.404L42.7288 117.335L43.0286 117.063L43.3071 116.813L43.4561 116.664L43.602 116.539L43.8837 116.251L44.0164 116.133L44.0573 116.1L44.0916 116.077L44.1457 116.006L44.2211 115.953L44.3013 115.871L44.3734 115.814L44.4471 115.74L44.5946 115.61L44.6421 115.592L44.6551 115.544L44.7533 115.454L44.868 115.361L44.9974 115.24L45.3021 114.986L45.4561 114.848L45.6167 114.722L45.674 114.65L45.7658 114.589L45.9394 114.452L46.0803 114.335L46.2408 114.202L46.2803 114.155L46.4425 114.022L46.5129 113.967L46.5899 113.909L46.6522 113.829L46.7374 113.782L47.0928 113.474L47.3926 113.22L47.5335 113.105L47.6203 113.053L47.6892 113.015L47.7547 112.906L47.853 112.845L48.1708 112.576L48.315 112.442L48.3772 112.367L48.428 112.293L48.5738 112.227L48.6754 112.131L48.872 111.942L48.926 111.966L49.0653 111.805L49.2537 111.677L49.4945 111.481L49.7484 111.26L49.8254 111.21L49.8942 111.14L50.0646 111.004L50.3726 110.752L50.6904 110.501L50.8411 110.389L50.959 110.265L51.0966 110.157L51.244 110.057L51.3669 109.939L51.516 109.841L51.588 109.767L51.6831 109.719L51.7486 109.652L51.824 109.588L51.8829 109.511L51.9632 109.455L52.1156 109.344V109.316L52.1844 109.269L52.2728 109.237L52.4006 109.142L52.5267 109.05L52.5988 109.008L52.643 108.946L52.6494 108.974L52.6969 108.924L52.7625 108.887L52.8116 108.85L52.959 108.765L53.0066 108.708L53.0622 108.662L53.1769 108.572L53.2112 108.57L53.2293 108.537L53.3113 108.505L53.3572 108.445L53.4097 108.398L53.5292 108.318L53.6488 108.255L53.6897 108.206L53.7405 108.174L53.7846 108.125L53.8419 108.097L53.8403 108.083L54.0418 107.95L54.245 107.794L54.3874 107.68L54.4825 107.63L54.5578 107.577L54.6267 107.519L54.7086 107.482L54.7676 107.414L54.8396 107.351L54.9314 107.289L55.046 107.23L55.141 107.148L55.2246 107.073L55.2983 107.055L55.3572 107.005L55.4228 106.945L55.5014 106.903L55.5538 106.835L55.6259 106.785L55.7684 106.704L55.8323 106.653L55.8863 106.589L56.2713 106.315L56.5957 106.053L56.8938 105.831L56.9757 105.768L57.0185 105.74L57.0477 105.703L57.1313 105.651L57.2066 105.592L57.3541 105.482L57.7505 105.222L57.7389 105.217L57.7681 105.203L57.8926 105.103L58.0139 105.012L58.1728 104.906L58.3071 104.783L58.3923 104.735L58.4726 104.686L58.5496 104.635L58.6642 104.581V104.563L58.6559 104.56V104.522L58.661 104.47L58.6626 104.398L58.6724 104.313L58.6757 104.271L58.697 104.253L58.6987 104.206L58.7084 104.157L58.7068 104.1L58.6789 104.058L58.6756 103.98L58.7197 103.943L58.6835 103.875L58.6784 103.767L58.6933 103.718L58.6673 103.681L58.6788 103.581L58.6854 103.548L58.6918 103.492L58.6705 103.284L58.6115 103.102L58.5772 103.099L58.4953 103.122L58.4412 103.198L58.3446 103.239L58.2692 103.292L58.1758 103.339L58.135 103.421L58.0219 103.444L57.9613 103.511L57.9218 103.535L57.8972 103.572L57.8006 103.6L57.7792 103.637L57.7252 103.646L57.6204 103.708L57.4925 103.746H57.3386L57.3023 103.792L57.2368 103.801L57.2582 103.848L57.1713 103.852L57.0616 103.899L56.9584 103.936L57.0468 103.968L56.9338 103.978L56.8634 103.992L56.7946 103.973L56.7551 103.97L56.7356 103.942L56.6815 103.933L56.6699 103.965L56.6421 103.974L56.5667 103.993L56.3603 104.044L56.1358 104.067L56.0392 104.09L55.9262 104.087L55.9245 104.101L55.7395 104.105L55.7411 104.124L55.7081 104.129L55.7065 104.11L55.6099 104.115L55.5295 104.101L55.4329 104.105L55.3428 104.087L55.2527 104.05L55.143 104.04L55.061 104.017L54.971 103.994L54.9742 104.026L54.9267 103.976L54.8711 103.934L54.7138 103.869L54.4779 103.716L54.463 103.74L54.4435 103.693L54.3043 103.57L54.1552 103.403L54.0864 103.332L54.0604 103.236L54.0063 103.16L53.9668 103.069L53.9227 102.935L53.8851 102.791L53.854 102.72L53.8489 102.642L53.7899 102.359L53.7834 102.227L53.7653 102.084L53.7458 101.961L53.7686 101.956L53.7588 101.798C53.7686 101.641 53.7407 101.498 53.7588 101.364L53.7537 101.132L53.7653 101.027L53.7704 100.657C53.7621 100.501 53.7755 100.35 53.7755 100.196L53.7593 100.087L53.7102 99.9986L53.7166 99.7854L53.7264 99.6772L53.7248 99.5644L53.7508 99.4659L53.7837 99.361L53.82 99.2677L53.8251 99.1483L53.8381 98.7912L53.8576 98.4439L53.8659 98.2651L53.8608 98.2279L53.8836 98.2047L53.882 98.1328L53.8903 98.1002L53.8919 98.0538L53.8952 97.9688L53.9493 97.8639L53.9427 97.7362L53.9576 97.6461L53.9953 97.4872L53.9804 97.4399L53.9985 97.3726L54.0282 97.2351L54.0773 96.9416L54.1168 96.786L54.1563 96.6305L54.2038 96.4782L54.2446 96.3407L54.2725 96.2228L54.3036 96.123L54.3217 96.0737L54.3658 96.0148L54.3775 95.9344L54.4104 95.8657L54.4318 95.7951L54.4908 95.6396L54.5251 95.5773L54.5497 95.5035L54.5808 95.4394L54.612 95.3754L54.6496 95.315L54.6742 95.2871L54.6826 95.2592L54.7072 95.236L54.7104 95.1943L54.7499 95.1334L54.8007 95.0647L54.8221 95.0024L54.8402 95.0057L54.8731 94.9091L54.9452 94.819L55.0009 94.7355L55.032 94.7029L55.0483 94.6704L55.0845 94.6082L55.1713 94.5018L55.2794 94.3445L55.3235 94.2525L55.3597 94.2246L55.3857 94.1772L55.4726 94.0774L55.5167 94.0217L55.5395 93.9892L55.5706 93.9752L55.6017 93.9098L55.6444 93.8494L55.7476 93.7542L55.9737 93.5624L56.2211 93.3869L56.3014 93.3117L56.3538 93.2978L56.383 93.2745L56.4272 93.2513L56.4648 93.2327L56.4977 93.2096L56.5583 93.1524L56.6206 93.0999L56.673 93.0628L56.7992 93.0089L56.8729 92.9764L56.9515 92.9578L57.0154 92.9253L57.0875 92.8974L57.23 92.8557L57.3889 92.8232L57.4446 92.7953L57.5297 92.7768L57.6182 92.7721L57.6952 92.7535L57.782 92.7628L57.8541 92.7814L57.9229 92.7907L57.9917 92.8185L58.0671 92.8371L58.1441 92.865L58.1868 92.9239L58.2343 92.9713L58.2705 93.0354L58.2641 93.1027L58.2771 93.0934L58.2933 93.1752L58.3114 93.2407L58.2998 93.4046L58.2636 93.5258L58.2357 93.5582L58.2784 93.6321L58.208 93.8006L58.2096 93.8661L58.1766 93.9219L58.1636 94.0496L58.0899 94.1267L58.0472 94.1685L58.0375 94.2176L58.0358 94.2767L57.9686 94.2998L57.9441 94.364L57.9245 94.4196L57.8557 94.5227L57.7886 94.5701L57.7296 94.6291L57.6526 94.6616L57.6559 94.6848H57.6429L57.6313 94.708L57.5117 94.8344L57.4577 95.0126L57.42 95.0094L57.3168 95.1259L57.3103 95.1166L57.2497 95.2002L57.2204 95.2806L57.1977 95.3869L57.2061 95.3885L57.1487 95.4804L57.075 95.513L57.029 95.6226L57.0192 95.701L56.9684 95.7795L56.8915 95.9745L56.8487 96.1807L56.7209 96.3428L56.6538 96.5067L56.603 96.7101L56.5589 96.8954L56.5213 96.9771L56.5032 97.0621L56.4836 97.1359L56.4739 97.226L56.4068 97.362L56.3775 97.4489L56.3659 97.7075L56.351 97.8074L56.3626 97.904L56.3543 97.9412L56.377 97.969L56.4211 98.041L56.462 98.2295L56.3997 98.3837L56.3867 98.4491L56.3575 98.4984L56.3558 98.628L56.341 98.7082L56.3507 98.81L56.3215 98.9888L56.2839 99.3477L56.2955 99.5298L56.256 99.682L56.2151 99.7411V99.8344L56.23 99.9212L56.2611 100.067L56.2318 100.129L56.2778 100.187L56.2597 100.249V100.59L56.3383 100.94L56.3843 100.998L56.4122 101.097L56.4892 101.25L56.6186 101.383L56.7005 101.438L56.8004 101.475L56.8823 101.503L56.9643 101.5L57.1379 101.491L57.4262 101.429L57.5081 101.382L57.5999 101.354L57.6818 101.312L57.7489 101.285L57.8063 101.238L57.8751 101.191L57.9146 101.172L57.9341 101.144L57.9801 101.089L58.0014 101.098L58.0833 101.026L58.2488 100.831L58.3389 100.728C58.4831 100.546 58.5404 100.346 58.5961 100.127L58.6323 99.9497L58.655 99.8758L58.6616 99.789L58.7172 99.4301L58.7465 99.2466L58.7711 99.0451L58.8055 98.9796V98.8913L58.8347 98.6178L58.8477 98.4605L58.8575 98.3095L58.8788 98.3128V98.1507L58.8969 98.0068L58.928 97.8382L58.9462 97.6581L58.9478 97.6116L58.964 97.5838V97.4788L58.9836 97.2726L59.0049 97.0762L58.9998 96.87L58.9933 96.7865L59.0244 96.7632L59.0228 96.7261L59.0195 96.5492L58.9687 96.5306L58.9868 96.4568L59.0638 96.4196L59.0605 96.2901L59.0884 96.1558L59.0981 95.997L59.1047 95.8349L59.113 95.7416L59.1279 95.645L59.1362 95.5568L59.1478 95.4714L59.1608 95.2568L59.1757 95.1732L59.1724 95.0813L59.1938 94.9095L59.2021 94.726L59.2105 94.5213L59.217 94.4325L59.2286 94.3908L59.2105 94.3583L59.2365 94.2765L59.2463 94.1897L59.2446 93.9979L59.2544 93.9306L59.2428 93.8981L59.259 93.8609L59.2836 93.6956L59.2869 93.5744L59.2836 93.4514L59.3017 93.2285L59.3199 93.0432L59.3393 92.9615L59.3361 92.8403L59.3723 92.6601L59.3806 92.4864L59.4053 92.406L59.4248 92.3211L59.5034 92.1539L59.5294 92.1261L59.5277 92.0843L59.5834 92.0221L59.5769 91.9942L59.6015 91.9895L59.6949 91.8748L59.7883 91.7829L59.8932 91.7091L59.9947 91.6371L60.0258 91.6139L60.1143 91.5953L60.1259 91.5582L60.2143 91.5442L60.2832 91.5164L60.4175 91.4542L60.8074 91.417H61.0269L61.23 91.4709L61.5347 91.6426L61.6347 91.7522L61.6807 91.8145L61.7315 91.8702L61.7855 92.0012L61.7938 92.0583L61.8758 92.0722L61.8577 92.0908L61.7823 92.1186L61.8314 92.1776L61.8022 92.2449L61.7971 92.3267L61.7938 92.4186L61.7789 92.5036L61.7938 92.5742L61.8198 92.6382L61.7868 92.68V92.7539L61.8031 92.8802L61.8637 92.9308L61.8409 92.9865L61.7787 93.0051L61.7838 93.0934L61.8084 93.1607L61.8214 93.2359L61.7806 93.3195L61.7546 93.4834L61.7513 93.5749L61.7726 93.6404L61.7415 93.7012L61.7875 93.7732L61.7187 93.9027L61.7382 93.9664L61.7563 94.0402V94.1172L61.7823 94.199L61.7642 94.2761L61.7658 94.3132L61.7315 94.3318L61.7398 94.3843L61.7415 94.4627L61.6973 94.4396L61.6727 94.492L61.7057 94.5951L61.6695 94.5765L61.6597 94.6796L61.6532 94.7729L61.7122 94.7497L61.6385 94.8398L61.6319 95.0562L61.6222 95.1741L61.5976 95.2837L61.6171 95.3771L61.573 95.4574L61.6092 95.4945L61.5929 95.541L61.5832 95.6608L61.5734 95.9116L61.5683 96.0393L61.5488 96.1735C61.5405 96.3356 61.5372 96.4944 61.5293 96.6584C61.5196 96.8372 61.4818 97.0155 61.4785 97.1957L61.4604 97.335L61.4553 97.5106L61.4405 97.6726L61.4388 97.792V97.7953L61.4109 97.8324L61.4093 97.8913L61.4009 98.0107L61.3815 98.2531L61.3619 98.5085L61.3568 98.6251L61.3652 98.6938L61.3225 98.848L61.3062 99.01L61.3046 99.187L61.2962 99.2719L61.3601 99.2859L61.3174 99.323L61.2863 99.3917V99.4818L61.27 99.7131L61.2487 99.8194L61.2422 99.8765L61.2751 99.8998L61.2459 99.9415L61.2426 100.001L61.2375 100.113L61.2408 100.236L61.2965 100.316L61.2948 100.384L61.3078 100.412L61.3013 100.449L61.2832 100.511L61.3111 100.578L61.2587 100.711L61.2373 100.773L61.2848 100.83L61.2373 100.832L61.2587 100.986V101.058L61.2257 101.189L61.2633 101.291L61.2568 101.328L61.2731 101.346L61.2614 101.402L61.2598 101.464L61.2236 101.506L61.2398 101.539L61.2415 101.576L61.2187 101.653L61.2006 101.817L61.1779 101.984L61.1941 102.136L61.2039 102.289L61.1909 102.444L61.2039 102.512L61.1858 102.585L61.189 102.661L61.1677 102.72L61.1937 102.852H61.197L61.346 102.805L61.4034 102.763L61.4294 102.731L61.4605 102.717L61.5046 102.666L61.5473 102.648L61.5784 102.615L61.639 102.569L61.7013 102.532L61.7454 102.494L61.8142 102.462L61.9518 102.378L62.0108 102.341L62.0829 102.292L62.2319 102.205L62.3712 102.127L62.4646 102.077L62.5268 102.023L62.6054 102.005L62.6791 101.945L63.1083 101.665C63.3409 101.516 63.5785 101.379 63.8095 101.23L64.1879 100.988L64.5728 100.768L64.5566 100.759L64.6565 100.684L64.7368 100.618L64.8154 100.59L64.9039 100.537L65.0448 100.443L65.1857 100.371L65.3233 100.265V100.268L65.4346 100.206L65.5526 100.159L65.6919 100.065L65.8164 99.9915L65.8572 99.9543L65.9342 99.887L66.0636 99.8131L66.216 99.7249L66.3684 99.6678L66.524 99.6005L66.6518 99.522L66.6926 99.4714L66.7614 99.4621L66.8794 99.3669L66.9203 99.339V99.3065L67.012 99.2592L67.0759 99.2963L67.1447 99.2638L67.2168 99.2266L67.2823 99.1895L67.4019 99.1046L67.4428 99.0952L67.4609 99.0674L67.4985 99.0581L67.5245 99.0302L67.5607 99.007L67.5951 99.0102L67.6392 98.9513L67.7096 98.928L67.7801 98.8862L67.8456 98.8538L67.9128 98.8031L67.9832 98.766L68.0471 98.7196L68.1437 98.6824L68.2486 98.6118L68.5566 98.4187L68.7008 98.3188L68.7712 98.3095L68.8351 98.2677L68.953 98.1744L69.1005 98.1089L69.3708 97.9696L69.5084 97.886L69.6607 97.7875L69.9769 97.6171L70.2833 97.4435L70.3471 97.4017L70.4241 97.3692L70.4501 97.346L70.4831 97.3552L70.5437 97.3009L70.832 97.1421L71.1335 96.967L71.217 96.9252L71.2989 96.8663L71.3955 96.8073L71.4397 96.7887L71.6395 96.6708L71.7116 96.6336L71.7902 96.6151L71.7786 96.6011L71.8999 96.524L72.2111 96.3569L72.275 96.3243L72.3602 96.2672L72.5191 96.192C72.7419 96.0805 72.9384 95.9366 73.1563 95.8154L73.4496 95.6696L73.638 95.5633L73.7084 95.5168L73.7756 95.4843L73.8378 95.4318L73.9115 95.3947L74.0344 95.3195L74.1507 95.2378L74.331 95.1263L74.3883 95.1077L74.4915 95.0404L74.5554 94.9986L74.5995 94.9234L74.5356 94.8416L74.3816 94.7632L74.3226 94.7093L74.2506 94.6601L74.1506 94.5421L74.09 94.4683L74.0571 94.3847L74.0292 94.3076L73.9851 94.2584L73.9507 94.1864L73.9442 94.0963L73.9131 93.9343L73.8983 93.749L73.9015 93.377L73.9131 93.2001L73.8918 93.1147L73.9015 93.0213L73.9099 92.9331L73.8755 92.8546L73.9015 92.7334L73.9196 92.6173L73.9424 92.5848L73.9475 92.543L73.954 92.4497L73.9507 92.2468L73.9524 92.0666L73.9867 91.8632L73.9537 91.6895L73.9194 91.547L73.957 91.3241L73.9505 91.2372L73.9798 91.1602L74.0239 90.9995L74.0222 90.9531L73.9944 90.9298L73.9828 90.8216L73.9744 90.7742L73.9498 90.751L73.9744 90.6558L74.0235 90.6034L74.0152 90.5183L73.9822 90.5151L73.9887 90.425L73.9985 90.3832L74.0314 90.3739L74.0412 90.2903L74.0528 90.1394L74.0495 90.0721L74.0741 89.6788V89.4972L74.0858 89.3249L74.0741 89.3156L74.0495 89.2878L74.0774 89.2692L74.0858 89.1874L74.0909 89.0022V88.5764L74.0746 88.1965L74.0713 88.1115L74.0764 88.0836L74.0421 88.0605L74.0128 87.9931L73.9687 87.916L73.6935 87.7326L73.5182 87.7293L73.4903 87.7061L73.4559 87.72L73.4281 87.6968L73.3773 87.6875L73.2986 87.72L73.1594 87.734L73.0201 87.8111L72.93 87.8435L72.8678 87.9025L72.7744 87.9304L72.7269 87.9675L72.6008 88.0887L72.5254 88.1166L72.4664 88.163L72.4223 88.2188L72.3963 88.2745L72.388 88.3302L72.27 88.3975L72.2259 88.5647L72.1637 88.6065L72.0965 88.6557L71.9605 88.7769L71.8869 88.8619L71.8328 88.8758L71.8179 88.8387L71.7784 88.848L71.8293 88.9134L71.7963 89.0722L71.6685 89.1573L71.5948 89.1944L71.5799 89.2584L71.565 89.4303L71.5358 89.5055L71.5209 89.584L71.4996 89.5932L71.5029 89.6165L71.4945 89.6583L71.4437 89.649L71.4256 89.6815L71.4386 89.7502L71.4353 89.8371V89.9322L71.4288 89.9815L71.406 90.0093L71.4306 90.0864L71.3831 90.1422L71.339 90.2322L71.4291 90.2648L71.3816 90.3451L71.3486 90.3776L71.2995 90.3729L71.2372 90.3172L71.2586 90.3827L71.2275 90.3966L71.208 90.4245L71.2899 90.5016L71.3522 90.5201L71.2981 90.5573L71.267 90.6163L71.3014 90.6687L71.19 90.7245L71.2784 90.7384L71.3308 90.789L71.1933 90.8076L71.1114 90.8991L71.1406 90.9664L71.1373 91.0481L71.1717 91.1071L71.149 91.1726L71.2079 91.2334L71.2339 91.2859L71.2469 91.3908L71.1749 91.4893H71.1109L71.1305 91.5079L71.0223 91.5831L71.0797 91.6718L71.0602 91.695L70.9864 91.6718V91.747L70.9994 91.7516L70.98 91.8157L71.0143 91.8529L71.1142 91.9545L71.1486 91.9732L71.1338 92.001L71.1598 92.0716L71.1106 92.1087L71.1417 92.1612L71.1515 92.2351L71.1301 92.2973L71.1792 92.3205L71.1809 92.373L71.1088 92.4055L71.0335 92.4194L71.0172 92.2996L71.0042 92.3604L70.9958 92.4175L71.0154 92.4593L70.9662 92.5411L70.9402 92.6363L70.9765 92.6641L71.0159 92.7013L71.0373 92.7751L70.9701 92.7718L70.9372 92.8043L70.9388 92.8651L70.9258 92.9069L70.9309 93.0462L70.9258 93.1972L70.9193 93.3824L70.9226 93.4758L70.8966 93.5608L70.9539 93.6025L70.9048 93.6667L70.9523 93.6945L71.0063 93.6439L71.0147 93.6578L71.0198 93.6485L71.056 93.6518L71.0133 93.773L70.9347 93.8255L70.9709 93.8863L70.9314 93.9142L70.9365 93.9881L70.9825 94.0619L71.0169 94.0805L71.0185 94.1278L70.9006 94.151L71.007 94.1984L71.0433 94.2309L71.0725 94.3112L70.9971 94.4209L70.9907 94.4533L71.0069 94.4858L70.9841 94.5629L70.935 94.6368L70.9596 94.66L70.968 94.6971L70.9907 94.7807L70.9842 94.8364L70.8974 94.7166L70.9318 94.8462L70.9531 94.9609L71.0121 95.0426L71.0037 95.167L70.9317 95.1996L70.9433 95.246L70.8973 95.2785L70.8433 95.3343L70.7941 95.4048L70.7908 95.4554L70.763 95.4833L70.7565 95.5325L70.7384 95.5743L70.7565 95.6314L70.709 95.6453L70.6927 95.6825L70.6681 95.6964L70.6649 95.7429L70.6746 95.7893L70.6695 95.8975L70.5565 95.9895L70.5746 95.9861L70.4992 96.0001L70.4876 96.0047L70.4303 96.0929L70.394 96.1255L70.3727 96.1626L70.3252 96.1765L70.2889 96.2044L70.2136 96.2536L70.1579 96.3L70.0121 96.3591L69.963 96.3962L69.9138 96.4055L69.8385 96.4644L69.7434 96.5016L69.6632 96.5522L69.4404 96.6442L69.1979 96.6813L68.98 96.672L68.934 96.6813L68.8751 96.672L68.7686 96.6488L68.5655 96.5406L68.4181 96.3915L68.3818 96.2866L68.3526 96.2327V96.2049L68.3312 96.1863L68.2917 95.962L68.2934 95.8603L68.2818 95.767L68.2915 95.6406L68.3031 95.5942L68.2869 95.5171L68.2934 95.4322L68.3064 95.2947L68.318 95.1749L68.3115 95.116L68.2934 95.0695L68.3129 94.9613L68.3227 94.8466L68.3375 94.5893L68.3472 94.4765L68.344 94.3915L68.357 94.313V94.1802L68.3375 94.1709L68.3621 94.0414L68.3672 93.8988L68.3788 93.8803L68.3639 93.8709L68.3769 93.7823L68.3821 93.6987L68.3904 93.5366L68.3969 93.3681L68.4053 93.3072L68.4169 93.2385L68.4118 92.9864L68.4215 92.7389L68.428 92.626L68.4264 92.477L68.4478 92.4305L68.4218 92.398L68.4478 92.3028L68.4542 92.229L68.4802 92.085L68.4719 92.0112L68.4603 91.8784L68.4668 91.7488L68.4603 91.6309L68.4863 91.518V91.4994L68.4846 91.4503L68.4963 91.2046L68.506 90.9668L68.519 90.7291L68.5139 90.6752L68.5255 90.6195L68.5093 90.5721L68.5209 90.5256L68.5339 90.2963L68.5455 90.0636L68.5585 89.8193L68.5747 89.5031L68.6091 89.1232L68.6175 88.9348L68.6435 88.7332L68.7516 88.404L68.8089 88.2484L68.8843 88.098L68.9564 87.9619L69.0432 87.8375L69.1382 87.7065L69.2725 87.5593L69.3545 87.4855L69.4004 87.4669L69.4218 87.4391L69.4627 87.4297L69.4808 87.4019L69.5659 87.3411L69.7248 87.256L69.8854 87.1627L69.9329 87.1488L70.0132 87.1256L70.1852 87.0647L70.5685 87.0155L70.7536 87.0341L70.9387 87.0374L70.9928 86.9867L71.0616 86.9496L71.2369 86.9403L71.3089 86.9356L71.3695 86.9821L71.4187 87.0378L71.5415 87.0285L71.6218 87.0518L71.6972 87.0703L71.8496 87.0564H71.9446L72.0199 87.0285L72.0936 86.9812L72.1755 86.9579L72.3164 86.8874L72.4458 86.7954L72.495 86.7397L72.5539 86.7026L72.6703 86.6124L72.7292 86.501L72.7882 86.4731L72.8277 86.4267L72.8212 86.4082L73.0292 86.182L73.1046 86.1327L73.1619 86.0803L73.2553 85.9688L73.3814 85.8425L73.4584 85.7752L73.4914 85.7014L73.6192 85.6164L73.7634 85.5314L74.0566 85.3564L74.2122 85.2779L74.3236 85.2273L74.3924 85.178L74.5448 85.1307L74.6332 85.0982L74.7299 85.0842L74.7855 85.0703H74.825L74.8922 85.0424L75.079 85.0053L75.2673 85.0036L75.4688 85.0222L75.6376 85.0547L75.9603 85.1792L76.0291 85.24L76.0996 85.3041L76.1946 85.4137L76.265 85.3766L76.2469 85.442L76.2683 85.4991L76.3239 85.5632L76.3499 85.6273L76.3695 85.7583L76.4317 85.7304L76.4104 85.8056L76.4396 85.9547L76.4447 86.035L76.5316 86.0582L76.602 86.1762L76.4955 86.1855L76.4904 86.374L76.5379 86.4381L76.5904 86.5379H76.6772L76.6591 86.5751L76.6196 86.6373L76.6163 86.7469L76.6391 86.8059L76.6721 86.8337L76.7013 86.8383L76.6897 86.8709L76.6422 86.8742L76.6162 86.8928L76.5818 86.8974L76.5442 86.8881L76.5033 86.9471L76.4839 87.1291V87.2257L76.5168 87.293L76.5136 87.3552L76.4843 87.3924L76.4894 87.4727L76.55 87.4449L76.6466 87.3678L76.6415 87.405L76.6299 87.4328L76.6202 87.5067L76.6137 87.6771L76.6874 87.7096L76.6628 87.7653L76.6022 87.7374L76.5562 87.7867L76.5874 87.8391L76.5925 87.9064L76.5384 87.9343L76.6039 87.9575L76.5696 87.99L76.5844 88.0457L76.563 88.0783L76.5858 88.1521L76.6169 88.2441L76.6693 88.3225L76.6512 88.3411L76.648 88.3736L76.602 88.369L76.5495 88.3783L76.484 88.369L76.4724 88.5556L76.5494 88.6146L76.5921 88.6611L76.5201 88.7029L76.4726 88.7502L76.4693 88.8454L76.5134 88.8422L76.5185 88.8747L76.5856 88.9211L76.5462 88.9443L76.461 88.941L76.4462 89.0739L76.4689 89.1063L76.4429 89.1834L76.4462 89.4031L76.4429 89.6111L76.4313 89.8075L76.4429 90.0072L76.4446 90.1201L76.5019 90.1619L76.5381 90.2306L76.5284 90.2914H76.4432L76.4516 90.3239L76.4646 90.3471L76.4465 90.3796V90.4168L76.4762 90.4874L76.5189 90.5338L76.4435 90.5616L76.4617 90.6081L76.4389 90.6555L76.444 90.7093L76.4589 90.7586L76.5588 90.7957L76.5718 90.8644L76.5144 90.9215L76.5325 90.9773L76.5474 91.0191L76.5702 91.0683L76.5948 91.1055L76.5999 91.1379L76.572 91.1751L76.5704 91.111L76.5328 91.1481L76.51 91.2039L76.4952 91.2512L76.5263 91.307L76.5246 91.3692L76.5163 91.5099L76.4622 91.4867L76.4409 91.5238L76.4392 91.6042L76.4522 91.6413L76.4327 91.6645L76.4917 91.6785L76.5177 91.6149L76.5539 91.6622L76.5572 91.6947V91.7318L76.4802 91.7365L76.4704 91.7858L76.5212 91.8136L76.4426 91.8322L76.4967 91.9533L76.5622 91.9766L76.5376 92.0472L76.4721 92.0286L76.454 92.0959L76.4851 92.1665L76.4605 92.2371L76.4588 92.2928L76.4704 92.3299L76.451 92.3579L76.5148 92.381L76.5918 92.395L76.5589 92.5097L76.5538 92.5947L76.6226 92.5993L76.6453 92.6272L76.6816 92.6365L76.6931 92.707L76.5883 92.8036L76.5832 92.85L76.606 92.8733L76.573 92.8826L76.6106 92.9351L76.6729 92.9071L76.7285 92.9536L76.7253 93.008L76.7285 93.0265L76.7155 93.0404L76.7336 93.1208L76.7893 93.1393L76.7777 93.1765L76.7629 93.2044L76.8088 93.2369L76.912 93.2555L76.966 93.3715L77.0725 93.4319L77.0692 93.4551L77.1659 93.483L77.2757 93.4923L77.5902 93.4036L77.7392 93.3511L77.8719 93.2921L77.9375 93.2735L78.0734 93.203L78.2094 93.1408L78.2733 93.1082L78.3601 93.0664L78.3815 93.0618L78.3866 93.0433L78.426 93.0386L78.4785 93.0061L78.5407 92.9782L78.5635 92.9922L78.5651 92.9643L78.6684 92.9169L78.7224 92.8984L78.7665 92.8612L78.8714 92.8041L78.9057 92.8074L78.9729 92.7484L79.0319 92.7299L79.0648 92.6927L79.1222 92.6788L79.2909 92.5854L79.4089 92.5167L79.5318 92.4461L79.653 92.3742L79.6679 92.3834L79.7612 92.3231L79.7956 92.3416L79.8202 92.3231L79.8677 92.2766L80.0037 92.1995L80.2904 92.0797L80.3364 92.0518L80.492 92.0054L80.6525 91.9729L80.736 91.9543L80.7737 91.9358L80.8066 91.9497L80.8771 91.945L80.9262 91.9543L81.185 91.9358L81.3014 91.9543L81.3964 91.9822L81.4996 91.9961L81.6077 92.024L81.7158 92.0273L81.8191 92.0366L81.7828 91.9841H81.85L81.8908 92.0561L81.9859 92.0979L81.9598 92.0561L82.0335 92.0886L82.0827 92.141L82.0943 92.1782L82.1272 92.1968L82.1616 92.2293L82.2091 92.2883L82.2467 92.3537L82.2746 92.4178L82.3141 92.4768L82.3681 92.5232L82.4057 92.5887L82.4187 92.6625L82.4401 92.6904L82.4384 92.7276L82.4876 92.774L82.4532 92.8381L82.5089 92.8799L82.5381 92.9031L82.5233 92.9356L82.52 92.9681L82.5216 92.988ZM49.5549 96.4607L49.5841 96.4328L49.7054 96.4096L49.8332 96.3864L50.1067 96.3679L50.2181 96.3353L50.2951 96.3214L50.359 96.3028L50.5294 96.2322L50.6949 96.1858L50.7702 96.1184L50.8963 96.0859L51.029 96.0673L51.0174 96.0395L50.9552 96.0581L51.0486 96.0075L51.0519 95.9889L51.0895 95.975L51.2058 95.9766L51.2763 95.9027L51.3336 95.8702L51.3958 95.8471L51.4367 95.8378L51.4627 95.8285L51.4887 95.8471L51.5624 95.8052L51.5262 95.7774L51.5802 95.7542L51.59 95.7309H51.5983L51.6197 95.7816L51.6657 95.7629L51.6708 95.7351L51.6657 95.7026L51.7312 95.7165L51.8066 95.6933L51.8182 95.6701L51.8344 95.6654L51.8707 95.6516L51.9378 95.6329L52.0181 95.6144L52.1032 95.6005L52.1786 95.5958L52.2278 95.5974L52.2556 95.5928L52.4276 95.63L52.5145 95.6532L52.58 95.6949L52.6832 95.7851L52.734 95.844L52.7456 95.8858L52.767 95.9183L52.8046 95.9773L52.8537 96.0246L52.8602 96.0985L52.8797 96.1264L52.883 96.1681L52.9192 96.2285L52.942 96.2517L52.9336 96.2657L52.942 96.2842L52.9601 96.2935L52.9568 96.3121L52.9814 96.3353L53.0144 96.4008H53.0274L53.0079 96.4612L53.0422 96.5317L53.0209 96.6269L53.006 96.717L53.0158 96.8958L52.9782 97.043L52.9452 97.0987L52.9224 97.1642L52.8684 97.2013L52.8322 97.2617L52.7814 97.3862L52.6077 97.5631L52.552 97.591L52.5307 97.6188L52.5028 97.6281L52.416 97.7163L52.2931 97.7934L52.226 97.8305L52.1736 97.8845L52.1406 97.8984L52.1192 97.9216L52.0652 97.9722L51.9587 98.0688L51.8522 98.1259L51.7768 98.1979L51.6933 98.2569L51.6998 98.2662L51.6523 98.294L51.623 98.3265L51.5985 98.3544H51.5557L51.5227 98.3915L51.5 98.4194L51.4443 98.4765L51.3854 98.5137L51.3984 98.523L51.3951 98.5276L51.3443 98.5368L51.315 98.5648L51.2593 98.6399L51.1659 98.776L51.0726 98.8991L50.9775 99.0152L50.8809 99.148L50.8334 99.2186L50.8107 99.2924L50.7468 99.3709L50.7008 99.4628L50.6729 99.571L50.7059 99.6611L50.6027 99.7447L50.5846 99.8199L50.6402 99.857L50.5763 99.8849L50.5615 99.9699L50.5712 100.059L50.5729 100.136L50.4893 100.217L50.4842 100.299L50.4512 100.37L50.461 100.451L50.4726 100.533L50.5019 100.604L50.4838 100.641L50.4494 100.639L50.4003 100.672L50.3429 100.709L50.3689 100.796L50.3494 100.838L50.3313 100.884L50.3462 100.961L50.3281 101.054L50.3197 101.139L50.3016 101.13L50.3197 101.163L50.3002 101.2L50.3294 101.218L50.3048 101.362L50.2965 101.533L50.3081 101.608L50.336 101.666L50.2885 101.792L50.2787 101.962L50.2606 102.09L50.2834 102.177L50.2573 102.264L50.2522 102.446L50.2374 102.628L50.2425 102.709L50.2408 102.801L50.2292 102.89L50.2343 102.971L50.2376 103.032L50.2195 103.112L50.2162 103.214L50.2111 103.428L50.2046 103.59V103.746L50.2339 103.774L50.1977 103.811L50.2204 103.926L50.2302 104.045L50.1827 104.133L50.1697 104.295L50.1516 104.359L50.1599 104.441L50.1566 104.608L50.1418 104.795L50.1139 104.993L50.0842 105.101L50.0661 105.151L50.0694 105.197L50.0022 105.328L49.9482 105.461L49.8745 105.592L49.7975 105.729L49.7484 105.778L49.7107 105.832L49.5551 105.985L49.5208 106.032L49.5045 106.099L49.4291 106.09L49.3734 106.137L49.3243 106.175L49.2768 106.221L49.2162 106.249L49.1507 106.277L49.1293 106.305L49.095 106.314L49.0671 106.337L49.0328 106.346L48.9738 106.388L48.8477 106.463L48.6937 106.517L48.6281 106.531L48.5282 106.568L48.3906 106.621H48.312L48.2874 106.639L48.2563 106.649L48.0908 106.658L47.9614 106.644L47.8762 106.612L47.7943 106.574V106.528L47.7683 106.526L47.7242 106.503L47.7061 106.489L47.701 106.466L47.668 106.429L47.635 106.387L47.5712 106.316L47.5498 106.266L47.5368 106.21L47.5006 106.187L47.489 106.14L47.4644 106.07L47.4527 105.995L47.4267 105.932L47.4119 105.759L47.4054 105.573L47.4151 105.391L47.4119 105.213L47.4054 105.039L47.4202 104.949L47.3826 104.852L47.3891 104.782L47.3975 104.693L47.4515 104.556L47.4599 104.379L47.4794 104.207L47.4599 104.104L47.4632 104.044L47.4794 103.897L47.4827 103.893V103.879L47.4697 103.699L47.445 103.63L47.419 103.566L47.4483 103.488L47.445 103.398L47.4566 103.303L47.4599 103.219L47.4892 103.147L47.5087 103.07L47.5268 103.037L47.5235 102.991L47.5022 102.927L47.4892 102.776L47.4562 102.687L47.5102 102.619L47.5186 102.532L47.5237 102.315L47.5153 102.23L47.5186 102.153L47.527 101.999L47.5778 101.831L47.6205 101.755L47.627 101.709L47.6386 101.672L47.6256 101.63L47.624 101.525L47.65 101.399L47.6533 101.328L47.6565 101.233L47.6793 101.038L47.702 100.876L47.7085 100.694L47.7053 100.509L47.7169 100.325L47.735 100.157L47.7498 100.081L47.7382 99.9893L47.7596 99.6634L47.7758 99.3815L47.7725 99.2701L47.7531 99.1781L47.7758 99.1094L47.7823 99.0323L47.7907 98.8767L47.8088 98.5689L47.8579 98.2281L47.9039 98.0232L47.9612 97.8677L47.9596 97.7808L48.0202 97.63L48.0775 97.4678L48.1414 97.3383L48.1791 97.2794L48.2069 97.2607L48.2232 97.2329L48.3051 97.1233L48.4116 97.0151L48.6409 96.8168L48.6688 96.7936L48.7096 96.775L48.7702 96.7379L48.8292 96.6873L48.9062 96.6548L48.9766 96.6222L49.0487 96.5944L49.1126 96.5573L49.3076 96.4787L49.5156 96.4179V96.4226L49.5518 96.4411L49.5549 96.4607ZM45.7316 99.6405L45.5596 99.7111L45.5317 99.9289L45.6038 100.13L45.6726 100.257L45.7056 100.285L45.6532 100.362L45.6285 100.494L45.6826 100.611L45.6417 100.729L45.5549 100.915L45.5321 101.029L45.5632 101.075L45.5549 101.134L45.54 101.313L45.5089 101.447L45.5251 101.527L45.4825 101.589L45.4955 101.75L45.4513 101.906L45.4202 102.06L45.3531 102.18L45.348 102.339L45.3693 102.663L45.3382 102.819L45.3317 102.983V103.138V103.285L45.2793 103.336L45.2728 103.411L45.2384 103.637L45.2054 103.674L45.1957 103.845L45.1973 104.02L45.1941 104.189L45.1578 104.341L45.1286 104.411L45.1235 104.508L45.104 104.506L45.1056 104.682L45.0581 104.824L45.0614 105L45.0205 105.15L45.0024 105.336L44.994 105.421L44.9759 105.502L44.9695 105.681L44.9532 105.763L44.9286 105.828L44.9351 106.013L44.9532 106.018L44.9516 106.07L44.9567 106.126L44.9386 106.168L44.9009 106.268L44.9125 106.3L44.932 106.399L44.8991 106.576L44.9432 106.83V106.918L44.9283 107.026L44.8954 107.145L44.8624 107.229L44.8608 107.238L44.8789 107.306L44.864 107.387L44.838 107.566L44.8315 107.661L44.8004 107.733L44.7888 107.915L44.6987 108.079L44.6936 108.199L44.7279 108.241L44.8803 108.288L44.8427 108.408L44.8167 108.457L44.7593 108.466L44.6709 108.393L44.6184 108.561L44.4858 108.575L44.3908 108.652L44.1958 108.836L44.0713 108.911L43.9616 109.009L43.8305 109.103L43.611 109.229L43.4799 109.3L43.4144 109.327L43.3653 109.383L43.2031 109.402L43.1294 109.43L43.0475 109.425L42.7379 109.365L42.6019 109.306L42.5364 109.278L42.4923 109.217L42.43 109.102L42.3873 108.966L42.3365 108.825L42.3202 108.676L42.3219 108.462V108.218V107.749L42.3511 107.423L42.3595 107.274L42.366 107.127L42.3576 106.963L42.3804 106.799C42.3706 106.599 42.4097 106.414 42.4097 106.214L42.4162 105.949L42.3883 105.939L42.3948 105.865L42.4423 105.541L42.4996 105.228L42.4769 105.064L42.508 104.913L42.534 104.692L42.5586 104.445L42.5637 104.446L42.5507 104.226L42.5491 104.018C42.6245 103.845 42.5999 103.594 42.613 103.407L42.6097 103.298L42.6246 103.165L42.6473 102.883L42.626 102.741L42.6668 102.632L42.6617 102.238L42.7058 101.91L42.7272 101.528L42.7602 101.161L42.7815 100.858L42.7931 100.835L42.8554 100.602L42.9357 100.392C43.0176 100.206 43.0814 100.022 43.1666 99.8402L43.3288 99.5862L43.5139 99.393L43.6237 99.2588L43.6827 99.1998L43.7761 99.1719L43.7515 99.1487L43.8989 99.0521L44.0578 98.9361C44.2183 98.8265 44.4133 98.7396 44.5984 98.6839L44.9162 98.6235L45.103 98.6467L45.234 98.6793L45.3471 98.7875L45.4454 98.9035L45.5191 99.1246L45.5618 99.249L45.5961 99.3178L45.5978 99.3363L45.5732 99.5067L45.7304 99.646L45.7316 99.6405ZM46.8018 93.6028L46.774 93.6446V93.7101L46.7953 93.7333L46.7661 93.7872L46.8023 93.8378L46.7712 93.8394L46.7614 93.8719L46.7386 93.9277L46.7159 94.0294L46.6373 94.1227L46.6159 94.1552L46.5848 94.1645V94.217L46.5653 94.2494L46.5323 94.3247L46.4766 94.3902L46.4078 94.4394L46.3489 94.4812L46.3637 94.5531L46.3377 94.5718L46.3182 94.6089L46.2101 94.6924L46.1478 94.725L46.1102 94.7872L46.0856 94.8197L46.0021 94.8703L45.8988 94.9488L45.8594 94.9981L45.8004 95.0166L45.792 95.0352L45.7429 95.0723L45.6692 95.0909L45.653 95.1188L45.627 95.1327L45.5713 95.1699L45.5253 95.2163L45.4974 95.2256L45.4729 95.2441L45.4106 95.272L45.3711 95.3185L45.2646 95.3872L45.1893 95.4196L45.1498 95.4703L45.0908 95.4671L45.1024 95.4485L45.0238 95.4809L45.0057 95.5227L44.9533 95.5261L44.8796 95.5446L44.7911 95.5121L44.7944 95.4936L44.7503 95.5121L44.6978 95.5089L44.6438 95.4996L44.6275 95.4857L44.5506 95.5089L44.5227 95.481L44.5506 95.4532L44.4654 95.4253H44.4194L44.3864 95.4021L44.3225 95.3482L44.2933 95.24L44.2359 95.2122L44.2081 95.1499L44.1997 95.1731L44.1751 95.1639L44.1718 95.1267L44.1342 95.0153V94.94L44.1012 94.8982L44.1175 94.8509L44.1059 94.7905L44.1175 94.7627L44.1012 94.7441L44.1143 94.6976L44.1273 94.5913L44.1337 94.4799L44.163 94.4474L44.176 94.3967L44.2201 94.3052L44.2285 94.2217L44.2545 94.1938L44.2628 94.1566L44.3056 94.1028L44.3432 94.0322L44.3678 93.9519V93.8715L44.4317 93.8191L44.4776 93.7698L44.6087 93.5767L44.707 93.5028L44.7955 93.4063L44.9069 93.3324L45.0215 93.2339L45.2394 93.0473L45.3148 92.9864L45.4049 92.9391L45.5277 92.8653L45.6096 92.8373L45.6833 92.7956L45.8275 92.7417L45.9094 92.7401L45.9243 92.7075L45.9718 92.7043L46.0504 92.6857L46.1258 92.6904L46.2683 92.6811L46.2832 92.7043L46.3059 92.6811L46.3731 92.6997L46.4074 92.709L46.4269 92.7275L46.4974 92.7508L46.5039 92.7739L46.5727 92.833L46.5987 92.8886L46.6103 92.9476L46.6433 92.9894V93.0265L46.6581 93.0545L46.6809 93.1101L46.6925 93.1724L46.7515 93.2773L46.8023 93.3591V93.4329L46.8088 93.6228L46.8018 93.6028ZM40.2675 101.715L40.2838 101.683L40.3167 101.669L40.3362 101.589L40.3479 101.552L40.3641 101.519L40.3674 101.399L40.3985 101.297L40.3855 101.209L40.379 101.167L40.3874 101.13L40.3711 101.093L40.3678 101.051L40.3349 101.009L40.3251 100.949L40.4037 100.566L40.4121 100.47L40.4348 100.433L40.4823 100.437L40.5528 100.369L40.5858 100.281L40.589 100.202L40.5496 100.184L40.5333 100.181L40.5366 100.144L40.5922 100.084L40.6285 100.004L40.5992 99.9624L40.5811 99.9206L40.5974 99.8454L40.6382 99.7734L40.6512 99.7409L40.6461 99.6944L40.6085 99.6401L40.628 99.5468L40.6494 99.4586L40.6624 99.3769L40.6953 99.2672L40.7167 99.2198L40.7283 99.1734L40.7446 99.1242L40.7562 98.9998L40.7645 98.9505L40.7711 98.9319L40.7627 98.9181L40.7841 98.8855L40.7924 98.8252L40.8105 98.7383L40.8449 98.658L40.8514 98.5679L40.8644 98.4829L40.8774 98.3961L40.9104 98.3255L40.9331 98.247L40.9298 98.1537L40.9428 98.1119L40.9656 98.084L40.964 98.0134L40.9737 97.9809L40.977 97.9336L41.003 97.8565L41.049 97.6647L41.0852 97.5714L41.1228 97.5008L41.0898 97.459L41.1274 97.4265L41.1061 97.4126L41.1223 97.394L41.1339 97.2611L41.1502 97.2194L41.1469 97.1702L41.1762 97.1423L41.1794 97.0931L41.1924 96.9947L41.2171 96.9575L41.2287 96.9069L41.2352 96.8563L41.2547 96.8516L41.2598 96.8283L41.2728 96.7318L41.2779 96.6793L41.3108 96.6608L41.3044 96.592L41.3192 96.5641L41.3209 96.515L41.3436 96.4778L41.3585 96.4313L41.3715 96.3895L41.378 96.357L41.3812 96.3199L41.4008 96.2363L41.4254 96.1611L41.4449 96.0858L41.4676 96.058L41.4709 96.0041L41.4858 95.9577L41.4841 95.9113L41.5004 95.8741L41.512 95.8276L41.5282 95.7785L41.551 95.7459L41.5426 95.7227L41.5654 95.6605L41.5965 95.6326L41.6179 95.6048L41.6373 95.5955L41.6357 95.5723L41.6408 95.5184L41.6883 95.4627L41.7097 95.4055L41.7213 95.373L41.7278 95.3406L41.7506 95.1947L41.803 95.1376L41.8211 95.0424L41.8373 94.9491L41.9504 94.8493L41.9569 94.8074L41.9731 94.7749L41.9698 94.7425L41.9749 94.7053L41.9833 94.6217L42.0308 94.5446L42.0373 94.4908L42.0438 94.4675L42.0536 94.4536L42.0763 94.357L42.1009 94.2702L42.1223 94.1685L42.1698 94.0882L42.237 94.0259L42.2829 94.012L42.314 93.9888L42.3648 93.9182L42.3811 93.8764L42.3876 93.8258L42.4104 93.7887L42.4298 93.7515L42.4591 93.6925L42.4851 93.64L42.4902 93.6029L42.5065 93.5276L42.4967 93.4311L42.5329 93.3507L42.5069 93.3136L42.4907 93.2672L42.5069 93.1738L42.5167 93.0707L42.5329 93.0335L42.538 92.983L42.5529 92.8845L42.5594 92.7828V92.7364L42.5743 92.6946L42.571 92.6454L42.5626 92.6129L42.5937 92.5803L42.6119 92.5385L42.6235 92.4517L42.6218 92.3584L42.6693 92.3166L42.648 92.2492V92.1643L42.7364 91.9744L42.8282 91.7779L42.9265 91.568L42.933 91.5188L42.92 91.477L42.966 91.3525L43.0184 91.1705L43.0412 91.0739L43.0509 90.9708L43.0871 90.8692L43.0955 90.812L43.1415 90.7795L43.1972 90.6992L43.2561 90.5339L43.3135 90.506L43.3329 90.4438L43.3511 90.3849L43.2774 90.2864L43.269 90.1619L43.2936 90.1248L43.3164 90.083L43.3721 89.9845L43.3902 89.8666L43.3999 89.8011L43.4292 89.7547L43.4767 89.7073L43.5046 89.6386L43.511 89.5815L43.4813 89.5397L43.4976 89.4413L43.5582 89.3511L43.5565 89.2545L43.5779 89.1775L43.6025 89.1269L43.6387 89.099L43.6239 89.0758L43.6044 89.0294L43.6239 88.9081L43.6698 88.7786L43.6828 88.7554L43.6926 88.7321L43.7107 88.6857L43.727 88.5775L43.7646 88.4758L43.8186 88.3908L43.8581 88.2989L43.8678 88.2464L43.8957 88.2093L43.8808 88.1619L43.899 88.1094L43.9385 88.0769L43.95 88.0198L43.9255 87.9827L43.9547 87.9362L43.9728 87.887L44.0137 87.8638V87.8145L44.0299 87.7728L44.061 87.7403L44.0675 87.6864L44.0791 87.575L44.0889 87.503L44.1168 87.4566L44.1219 87.3994L44.1497 87.3576L44.1627 87.2838L44.1939 87.2197L44.2087 87.1733L44.2514 87.078L44.2677 87.0409L44.3072 87.027L44.322 87.0038L44.3336 86.9852L44.3353 86.9759L44.3469 86.9434V86.9156L44.3585 86.897L44.365 86.8784L44.3552 86.8598L44.365 86.8134L44.3766 86.8041L44.3863 86.7948L44.4207 86.7716L44.4272 86.7252L44.4256 86.6253L44.4321 86.5881L44.4567 86.5603L44.4748 86.4832L44.4831 86.434L44.524 86.3588L44.5403 86.3448V86.3263L44.5386 86.2798L44.5451 86.2334L44.5813 86.1595L44.6041 86.1271L44.645 86.0583L44.6466 86.0109L44.6796 85.9144L44.7139 85.8294L44.845 85.6311L44.899 85.5183L44.925 85.4593L44.9069 85.4119L44.9807 85.3153L45.0183 85.1877L45.061 85.137L45.0805 85.1091L45.1033 85.0859L45.1163 85.0488L45.139 85.0256L45.1506 84.9406L45.1655 84.8751L45.1409 84.8096L45.1506 84.7228L45.1557 84.6703L45.2032 84.5473L45.2589 84.4261L45.3179 84.277L45.3523 84.2199L45.3704 84.1363L45.4408 83.9989L45.4473 83.9617L45.4733 83.9385L45.4896 83.8582L45.5355 83.7862L45.5323 83.7444L45.5518 83.7211L45.6157 83.5981L45.6384 83.5656L45.6268 83.5285L45.6561 83.5099L45.6658 83.4727L45.7034 83.3878L45.7018 83.3506L45.7936 83.1556L45.9623 82.7724L46.0737 82.556L46.0588 82.5421L46.0899 82.478L46.1178 82.414L46.1735 82.283L46.1898 82.2552L46.2144 82.2366L46.2306 82.166L46.283 82.0415L46.3601 81.8874L46.3795 81.8502L46.3828 81.8177L46.4204 81.7439L46.4334 81.6975L46.458 81.6742L46.4924 81.6037L46.517 81.5251L46.5809 81.4202L46.5972 81.3678L46.6545 81.2596L46.7233 81.1434L46.7807 81.097L46.8364 81.0599L46.8953 80.9025L46.9148 80.8272L46.9754 80.7855L47.0279 80.6773L47.0195 80.6633L47.0636 80.6355L47.072 80.5784L47.1408 80.4882L47.2113 80.3898L47.2405 80.3392L47.3044 80.218L47.4666 80.0118L47.4977 79.97L47.5339 79.9607L47.5683 79.8985L47.6059 79.8279L47.6632 79.7592L47.7108 79.7086L47.7648 79.6268L47.8123 79.5711L47.8664 79.5293L47.8942 79.4968L47.8993 79.4597L47.9286 79.4271L47.9616 79.39L47.9876 79.3529L48.027 79.3296L48.04 79.2971L48.0842 79.274L48.1037 79.2321L48.1399 79.2136V79.1903L48.1547 79.1811L48.2203 79.0858L48.3186 79.0842L48.3478 79.0136L48.384 78.9905L48.41 78.9533L48.4151 78.9161L48.4168 78.8836L48.4512 78.8604L48.4772 78.8929L48.4591 78.9301L48.4475 78.9486L48.4656 78.9579L48.5262 78.9394L48.5443 78.9022L48.5735 78.8743L48.5684 78.8023L48.5668 78.7499L48.6192 78.722L48.6225 78.6746L48.6471 78.6979L48.6374 78.735L48.6849 78.7304L48.6997 78.7211L48.6981 78.6932L48.6997 78.6654L48.7178 78.67L48.7262 78.6282L48.7656 78.6143L48.7903 78.6097L48.8065 78.6004L48.8395 78.6143L48.8446 78.6328L48.8674 78.6297L48.8757 78.611L48.8938 78.6017L48.9152 78.5739L48.9365 78.5368L48.9398 78.4824L48.9612 78.4499L48.9974 78.4453L49.0202 78.4035L49.0266 78.3663L49.0364 78.2744L49.0348 78.1811L49.0921 78.1272H49.1149L49.1297 78.1179L49.1659 78.1272L49.1413 78.0566L49.1659 78.0194L49.2003 77.9916L49.2101 77.9452L49.2184 77.9265L49.2398 77.9219L49.2593 77.8848L49.2853 77.8569L49.2869 77.8383L49.2999 77.8152L49.3259 77.778L49.3751 77.7125L49.4192 77.6257L49.434 77.5932L49.4717 77.5393L49.4898 77.53L49.4981 77.4928L49.5376 77.4157L49.5603 77.3322L49.5831 77.2997L49.5993 77.2625L49.601 77.21L49.614 77.1729L49.6302 77.0847L49.6465 76.9849L49.6613 76.9431L49.6711 76.9012L49.6562 76.892L49.6381 76.8594L49.6628 76.8316L49.6595 76.735L49.6611 76.5548L49.6527 76.4796L49.6332 76.4123L49.6416 76.3659L49.6319 76.3184L49.6221 76.22L49.5877 76.1332L49.5761 76.0914L49.5566 76.0422V75.9851L49.5288 75.9098L49.5092 75.868L49.4962 75.8174L49.4554 75.7436L49.4438 75.6972L49.4108 75.66L49.3978 75.6182L49.3355 75.5003L49.3174 75.4585L49.2863 75.4259L49.1634 75.2783L49.0946 75.2226L49.0765 75.1947L49.0552 75.1854L49.0305 75.1482L48.9994 75.1344L48.9832 75.1157L48.9618 75.0972L48.9502 75.0833L48.9075 75.0554L48.8977 75.0229L48.8404 75.0182L48.8093 74.9904L48.7487 74.944L48.7059 74.9253L48.6781 74.8975L48.5913 74.865L48.4815 74.8093L48.3914 74.7721L48.2964 74.7489L48.2504 74.7396H48.229L48.2044 74.7211L48.1225 74.6737L48.0111 74.6644L47.8997 74.6412L47.7818 74.6319L47.6687 74.618L47.6196 74.6272L47.5705 74.6133L47.5131 74.6319L47.469 74.6133L47.3314 74.6365L47.1889 74.6551L47.0759 74.7109L46.9514 74.7433L46.8384 74.7925C46.65 74.8775 46.5025 75.0187 46.3322 75.1348L46.2044 75.256L46.1798 75.2885L46.129 75.2932L46.1095 75.3716L46.0275 75.4468L45.9983 75.4561L45.9492 75.5026L45.9083 75.5829L45.7985 75.7092L45.6936 75.8336L45.5348 76.0747L45.4791 76.2321L45.3235 76.468L45.1924 76.7187C45.1089 76.8761 45.0548 77.0447 44.986 77.2168L44.873 77.4986L44.7567 77.7721L44.6453 78.1065L44.5322 78.4097C44.4552 78.5982 44.3602 78.7752 44.3045 78.9651L44.1915 79.2632L44.0866 79.5581C44.008 79.7415 43.9588 79.9412 43.8851 80.1266L43.7917 80.3119L43.7213 80.5445L43.5575 80.9819C43.4903 81.1426 43.4346 81.3065 43.3789 81.4701C43.3085 81.68 43.2249 81.881 43.1545 82.0909L43.048 82.3482L42.9514 82.6366L42.8269 82.9626L42.6942 83.3754C42.6369 83.5245 42.5632 83.667 42.5157 83.8193C42.4551 84.0158 42.3879 84.2043 42.3109 84.3927C42.1241 84.8483 41.9751 85.3298 41.826 85.7983L41.7752 85.9278L41.7343 86.0425L41.6573 86.1553L41.5918 86.2979L41.523 86.6077C41.5132 86.76 41.4444 86.8631 41.3969 87.001L41.3363 87.2109L41.1544 87.6075L41.0513 87.8712L40.9824 88.1609L40.9349 88.3955L40.8432 88.656L40.7793 88.9509L40.6531 89.2341L40.6564 89.5406L40.5712 89.6846L40.5204 89.8745L40.4926 90.0547L40.4222 90.2511C40.3485 90.5097 40.2862 90.7573 40.2043 91.0096L40.1076 91.3978L39.9733 91.7744C39.8979 92.0298 39.8455 92.2937 39.7948 92.5541L39.7325 92.8263L39.7408 92.9507L39.6606 93.1096L39.6229 93.3124L39.4984 93.6728C39.4444 93.9463 39.3428 94.1954 39.2855 94.4624C39.2428 94.6705 39.1561 94.8669 39.12 95.0768L39.0838 95.3535L38.9888 95.6711L38.9314 95.8875L38.9166 95.9939L38.8642 96.0756L38.8363 96.2543L38.8033 96.4262L38.7099 96.8093C38.6624 97.0043 38.6084 97.191 38.5576 97.3925L38.4953 97.7036C38.4526 97.8954 38.4216 98.0937 38.3904 98.2868L38.3168 98.5933L38.2545 98.8882L38.2183 99.1668L38.1478 99.4371L38.1102 99.7041L38.007 100.133L37.9316 100.492L37.8857 100.762C37.8643 100.906 37.8382 101.051 37.8234 101.2C37.7942 101.498 37.7218 101.786 37.671 102.079L37.6072 102.464C37.5974 102.661 37.5203 102.858 37.5023 103.056L37.4563 103.272L37.4023 103.718C37.3582 103.995 37.3286 104.298 37.2499 104.552L37.2058 104.856C37.1696 105.228 37.0993 105.597 37.0436 105.967C37.0176 106.147 36.9961 106.326 36.9748 106.506L36.9488 106.783L36.9358 106.97L36.8995 107.034L36.9012 107.124L36.8552 107.471L36.8125 107.485L36.8009 107.59L36.7468 107.687L36.7027 107.602L36.5798 107.569L36.539 107.476L36.5423 107.392L36.5539 107.156L36.5228 107.068L36.5525 106.98L36.3919 106.853L36.4263 106.785L36.4082 106.677V106.47V106.282L36.3542 106.102L36.3114 105.915L36.3458 105.843L36.3374 105.728L36.3783 105.558C36.3226 105.371 36.3834 105.42 36.375 105.348L36.3259 105.181L36.2571 105.139L36.2227 105.061L36.2129 105.013L36.2654 104.99L36.2324 104.971L36.2162 104.999L36.1637 104.937L36.1832 104.877L36.1749 104.821L36.2666 104.749L36.2406 104.735L36.2128 104.749L36.1472 104.767L36.0883 104.758L36.0948 104.708L36.0883 104.655L36.085 104.552L36.0915 104.465L36.1323 104.396L36.1063 104.334V104.287L36.1259 104.213L36.1505 104.148L36.1635 104.07L36.1913 104.052L36.2062 104.019L36.2322 103.957L36.2206 103.828L36.1731 103.732L36.155 103.629L36.109 103.572L36.096 103.495L36.0765 103.449L36.0505 103.386L36.031 103.309L35.9948 103.252L35.9883 103.169L35.9553 103.007L35.9604 102.82L35.9539 102.666L35.926 102.612L35.9112 102.54L35.8801 102.481L35.8425 102.394L35.803 102.253L35.816 102.189L35.7979 102.116L35.7849 102.04L35.7733 101.99L35.8486 101.971L35.8714 101.909L35.7862 101.79L35.7191 101.644L35.7339 101.537L35.7158 101.423V101.315L35.6815 101.229L35.6633 101.136L35.606 101.076L35.5454 100.894L35.5584 100.841L35.5027 100.804L35.493 100.75L35.4568 100.731L35.4535 100.671L35.4665 100.594L35.4925 100.513L35.4171 100.467L35.3614 100.415L35.3517 100.315L35.3533 100.218L35.3236 100.135L35.3533 100.008L35.3482 99.9409L35.2925 99.9223L35.2335 99.5847L35.2563 99.5257L35.2252 99.4537L35.1843 99.2884L35.1662 99.1756L35.1383 99.0627L35.1611 99.021L35.1954 98.9745L35.143 98.9606L35.1184 98.9234L35.1365 98.8761L35.1152 98.8389L35.1054 98.7359L35.117 98.6885L35.104 98.6606L35.0794 98.6374L35.071 98.5803L35.0594 98.5264L35.0543 98.4986L35.0427 98.4753V98.4382L35.0655 98.401L35.0409 98.3639L35.0246 98.3115L35.0786 98.2395L35.1079 98.2069L35.0786 98.1651L35.077 98.1029L35.0622 98.0407L35.0556 97.9849L35.0148 97.9278L35.0607 97.8907L35.0362 97.8536L35.0705 97.8164L35.0375 97.7839L34.9474 97.7467L34.9442 97.6385L34.9869 97.555L34.9656 97.5225L34.9363 97.4761L34.933 97.3581L34.9821 97.3395L34.938 97.3117L34.8676 97.3302H34.8709L34.8495 97.2837L34.889 97.2606L34.9038 97.2113L34.8644 97.1881L34.8462 97.0832L34.8857 97.0739L34.8741 97.0321L34.8448 96.9903L34.8086 96.9531L34.7775 96.8287L34.7924 96.7795L34.817 96.733L34.7564 96.6281L34.7318 96.5199L34.7285 96.4674L34.7169 96.415L34.7104 96.3559L34.6974 96.3068L34.7025 96.2603L34.6746 96.0885L34.6533 95.9835L34.6319 95.8707L34.6059 95.7546L34.6026 95.6873L34.5929 95.6218L34.5878 95.4876L34.5827 95.4337L34.5534 95.3863L34.5483 95.2666L34.54 95.2434L34.5218 95.2248L34.5302 95.183L34.5056 95.0637L34.4745 94.9359L34.4761 94.8737L34.4645 94.8096L34.4561 94.7311L34.4464 94.694L34.4269 94.6662L34.432 94.6383L34.4255 94.6104L34.419 94.5185L34.3944 94.4136V94.3545L34.3795 94.3007L34.3698 94.1744L34.3438 94.0564L34.334 93.9761L34.3113 93.9171L34.2964 93.7908L34.2913 93.7337L34.2732 93.6747L34.224 93.4193L34.211 93.3014L34.1767 93.1918L34.103 92.9624L34.0589 92.8904L34.0459 92.8361L34.018 92.7989L33.9999 92.7451L33.9508 92.6433L33.9229 92.6109L33.895 92.5644L33.8394 92.5073L33.7886 92.4451L33.7132 92.3861L33.6493 92.322L33.5887 92.2714L33.4446 92.1962L33.3889 92.173L33.2644 92.1312L33.2054 92.1126L33.058 92.0894L32.9319 92.0801L32.8877 92.0661L32.8337 92.0708L32.7141 92.0692L32.6011 92.0831L32.4848 92.1156L32.4324 92.1342L32.398 92.1667L32.3308 92.176L32.3341 92.1777L32.2211 92.225L32.1376 92.2808L31.9737 92.4038L31.8394 92.5315L31.6952 92.7381L31.5527 93.0182L31.4446 93.3441L31.4218 93.4259L31.3809 93.503L31.3401 93.6734L31.3122 93.7258L31.2927 93.7848L31.2486 93.8898L31.2305 93.952L31.2338 93.9984L31.211 94.0124L31.2027 94.0402L31.088 94.4103L31.055 94.4841L31.0323 94.5626L30.9832 94.7182L30.9291 94.8589C30.8619 95.0456 30.8357 95.2406 30.7603 95.4257L30.6719 95.593L30.6211 95.7763L30.577 95.9974L30.5032 96.1646L30.4181 96.4102L30.3395 96.6052L30.3278 96.7724L30.2639 96.9837L30.1361 97.3622L30.0264 97.6932L29.9526 97.8702L29.8871 98.0323L29.8396 98.1994L29.8103 98.4024C29.7563 98.5417 29.7104 98.6415 29.6842 98.7906L29.5089 99.0919L29.463 99.2967L29.437 99.508L29.3321 99.7634L29.2584 99.9059L29.2156 100.07L29.1452 100.191L29.1238 100.381C29.073 100.537 28.9944 100.681 28.9404 100.837C28.8748 101.022 28.7716 101.19 28.7175 101.374L28.7519 101.377L28.7078 101.535L28.6407 101.693L28.6258 101.798L28.5766 101.877L28.5095 102.032L28.4719 102.17L28.4389 102.332L28.321 102.629L28.2178 102.933C28.1572 103.139 28.0687 103.367 28.1014 103.587L28.2063 103.913C28.3111 104.063 28.4487 104.252 28.6044 104.332L28.8501 104.426L28.9631 104.467L29.0663 104.458L29.2006 104.463L29.2989 104.435L29.4283 104.421L29.4923 104.426L29.5463 104.393L29.6069 104.388L29.6413 104.356L29.7477 104.314L29.9558 104.18L30.0442 104.08L30.087 104.043L30.1181 103.976L30.2377 103.972L30.213 103.92L30.2358 103.762L30.2981 103.685L30.3273 103.592L30.3222 103.536L30.3482 103.494L30.3909 103.447L30.4026 103.357L30.4453 103.301L30.4536 103.211L30.5356 103.087L30.5667 103.018L30.5504 102.964L30.6536 102.862L30.6731 102.785L30.7222 102.726L30.719 102.641L30.7436 102.564L30.8091 102.415L30.8812 102.343L30.9631 102.31L30.8779 102.287L30.8795 102.203L30.9107 102.176L30.9269 102.129L30.9334 102.083L30.9664 102.064L30.9715 102.032L30.9698 102.008L30.9912 101.999L30.9796 101.971V101.925L31.0088 101.897L31.0072 101.878L31.0188 101.869L31.0467 101.846L31.0616 101.784L31.1189 101.728V101.682L31.0976 101.649L31.104 101.626L31.1008 101.603L31.0924 101.57L31.1286 101.538L31.1384 101.505L31.163 101.486L31.1681 101.463L31.1337 101.473L31.0975 101.468L31.1073 101.406L31.1449 101.378L31.1546 101.392L31.176 101.401L31.2104 101.415L31.2168 101.378L31.1876 101.355L31.2168 101.327L31.2285 101.285L31.222 101.243L31.2336 101.201L31.2401 101.16L31.2744 101.132L31.2926 101.104L31.2614 101.081L31.2498 101.025L31.2744 100.938L31.3153 100.941L31.3037 100.909L31.3367 100.827L31.3497 100.79L31.3972 100.781L31.4185 100.728L31.3893 100.705L31.386 100.663L31.4074 100.571L31.4301 100.562L31.4352 100.529L31.445 100.469L31.4696 100.441L31.4877 100.431L31.5072 100.413L31.5234 100.399L31.5448 100.402L31.5513 100.356L31.5104 100.346L31.5053 100.328L31.517 100.291L31.5397 100.268L31.569 100.249L31.5509 100.212L31.6278 100.184L31.6576 100.107L31.6278 100.084L31.6162 100.037L31.659 100.04L31.6573 99.9847L31.6819 99.9662L31.6736 99.9336L31.6884 99.8454L31.6689 99.8733L31.6624 99.8408L31.6429 99.7943L31.6413 99.7437L31.7052 99.7716L31.7265 99.7484L31.7558 99.7298H31.8262L31.8425 99.7576L31.8685 99.7391L31.8225 99.6973L31.8242 99.6787L31.7898 99.6694L31.7814 99.6927L31.7898 99.6387L31.7882 99.6063L31.8076 99.5877L31.8012 99.5269L31.9076 99.564L31.9174 99.5361L31.9401 99.5176L31.9385 99.4586L31.9631 99.4553L31.9812 99.4367V99.3949L31.9761 99.3531L31.991 99.3346L32.0026 99.3113L32.0388 99.2881L32.0551 99.2556L32.0583 99.2231L32.07 99.2138L32.0716 99.1906L32.0767 99.1488L32.1129 99.0834V99.0416L32.118 99.023L32.1147 99.0044L32.1787 98.9626L32.2655 98.9643L32.285 98.9967L32.3226 99L32.3621 99.0092L32.4048 99.0185L32.4308 99.0418L32.4471 99.0743L32.4898 99.1365L32.5325 99.1458L32.5585 99.1474L32.5339 99.1753L32.5355 99.2217V99.2449L32.5225 99.2635L32.5128 99.3007L32.4933 99.3759L32.5179 99.3991L32.5374 99.4316L32.5801 99.3851L32.6555 99.348L32.7177 99.3898L32.6848 99.4469L32.6504 99.4655L32.6634 99.5027L32.665 99.55L32.6667 99.5964L32.6421 99.6382L32.7158 99.6889L32.693 99.7121L32.6879 99.7353L32.6665 99.7446L32.6373 99.7586L32.6489 99.7957L32.667 99.8235L32.6522 99.8699L32.6373 99.9568L32.7044 100.007L32.6961 100.076L32.7077 100.258L32.7765 100.329L32.8127 100.333L32.8211 100.375L32.8406 100.403L32.8355 100.449L32.8717 100.454L32.8898 100.496L32.9061 100.648L32.8601 100.778L32.9207 100.736L32.9355 100.916L32.9634 100.982L32.9764 101.065L32.9945 101.239L33.0224 101.385L33.0275 101.508L33.0488 101.589L33.0832 101.758L33.0995 101.935L33.1111 102.025L33.1292 102.087L33.1143 102.111L33.1227 102.138L33.1357 102.199L33.1603 102.333L33.1863 102.472L33.2026 102.592L33.2272 102.702L33.2486 102.78L33.255 102.951L33.2634 102.988L33.2471 103.02L33.2455 103.107V103.292L33.2585 103.339L33.2422 103.388L33.3094 103.503L33.3256 103.562L33.3651 103.608L33.3702 103.705L33.3981 103.915L33.4176 104.066L33.4371 104.149L33.4208 104.22L33.4371 104.295L33.4598 104.372L33.4859 104.539L33.5383 104.89L33.5434 104.968L33.568 105.04L33.5696 105.135L33.5892 105.219L33.6086 105.371L33.6235 105.44L33.6449 105.607L33.6597 105.695V105.742L33.676 105.77L33.6857 105.851L33.702 106.028L33.7215 106.105L33.7377 106.186L33.7461 106.353L33.7721 106.418L33.7572 106.479L33.7754 106.502L33.7786 106.539L33.7916 106.614L33.8278 106.785L33.846 106.947L33.8622 107.08L33.8706 107.16L33.8901 107.262L33.9049 107.358L33.9133 107.488L33.956 107.625L33.9658 107.691L33.9509 107.765L33.9918 107.848L33.9885 107.92L34.0131 108.005L34.0196 108.052L34.0131 108.084L34.0312 108.15L34.0099 108.191L34.0326 108.229L34.0507 108.34L34.0475 108.391L34.0753 108.428L34.0737 108.541L34.1048 108.647L34.1015 108.703V108.726L34.121 108.735L34.1177 108.783L34.1359 108.836L34.1342 108.946H34.1621V108.965L34.1556 108.997L34.1588 109.053L34.1672 109.118L34.1756 109.182L34.1821 109.267L34.2002 109.286V109.323L34.215 109.438L34.2234 109.553L34.2512 109.58L34.2415 109.628L34.2466 109.689L34.2596 109.738L34.2661 109.841L34.2726 109.859L34.2642 109.878L34.2954 109.91L34.3005 109.966L34.3088 110.027V110.089L34.3348 110.122L34.3316 110.197L34.3543 110.264L34.3706 110.297L34.3543 110.325L34.3724 110.392L34.3627 110.449L34.3724 110.482L34.3822 110.519L34.4184 110.661L34.4235 110.743L34.4365 110.752L34.4314 110.808L34.4398 110.859L34.4676 110.95L34.4741 111.009L34.4936 111.046L34.482 111.088L34.4871 111.135L34.5066 111.208L34.4806 111.286L34.4611 111.357L34.4644 111.429L34.4482 111.476L34.4365 111.537L34.4416 111.618L34.4876 111.637L34.5303 111.66L34.5909 111.739L34.6026 111.789L34.6109 111.836L34.6258 111.878L34.6063 111.915L34.5588 111.995L34.5211 112.023L34.4784 112.046L34.4882 112.074L34.4654 112.106L34.4966 112.079L34.5309 112.088L34.5601 112.074L34.6175 112.088L34.6453 112.106L34.6616 112.148L34.6876 112.242L34.6909 112.345L34.7104 112.443L34.7318 112.545L34.748 112.592L34.7578 112.641L34.7513 112.665L34.7578 112.683L34.7661 112.72L34.7678 112.767L34.771 112.809L34.7645 112.846L34.7251 112.864L34.7645 112.911L34.7841 112.957L34.8068 113.005L34.8119 113.055L34.8346 113.102L34.8314 113.143L34.8495 113.185L34.8528 113.246L34.8676 113.369L34.866 113.424L34.8367 113.457L34.8433 113.553L34.8795 113.581L34.8989 113.628L34.9333 113.715L34.9366 113.814L34.9515 113.856V113.915L34.9728 113.943L34.991 114.074L35.017 114.187L35.0285 114.292L35.0351 114.341L35.0367 114.394L35.0451 114.417L35.0664 114.418L35.0581 114.469L35.0645 114.492L35.0629 114.515L35.0513 114.557L35.0415 114.585L35.0727 114.622L35.0792 114.673L35.0987 114.715L35.1182 114.869L35.1493 115.029L35.1609 115.111L35.1725 115.186L35.1823 115.26L35.1874 115.313L35.2036 115.362L35.2069 115.421L35.225 115.467L35.2445 115.57L35.2673 115.675L35.2789 115.717L35.2756 115.789L35.2984 115.856L35.2918 115.903L35.3132 115.926L35.2969 115.945L35.3086 115.963L35.3169 115.987L35.3186 116.014L35.3037 116.061L35.3367 116.121L35.345 116.163L35.3613 116.168L35.3646 116.191V116.237L35.3827 116.329L35.3989 116.371L35.3873 116.404L35.4101 116.472L35.4379 116.544L35.4363 116.572L35.4214 116.591L35.4493 116.628L35.4577 116.724L35.4693 116.771L35.492 116.817L35.5036 116.881L35.512 116.94L35.5217 116.964L35.5101 116.982L35.5282 117.019L35.551 117.121L35.5526 117.173L35.5689 117.224L35.5754 117.275L35.6097 117.366L35.6065 117.399L35.6148 117.431L35.6264 117.459L35.6608 117.559L35.6524 117.606L35.672 117.675L35.6998 117.712L35.7258 117.765L35.7621 117.855L35.7932 117.883L35.8456 117.96L35.8818 117.997L35.8915 118.02L35.9143 118.034L35.9371 118.076L35.9714 118.104L36.032 118.145L36.0861 118.164L36.0977 118.192L36.132 118.229L36.2123 118.257L36.3188 118.303L36.3729 118.322L36.4515 118.336L36.5547 118.359L36.6055 118.34L36.6596 118.337H36.7726L36.8266 118.318H36.8889L37.0036 118.291L37.1952 118.243V118.234L37.1901 118.206L37.2409 118.205L37.272 118.172L37.318 118.149L37.3655 118.126L37.3985 118.102L37.4788 118.04L37.5443 117.979L37.5773 117.947L37.6102 117.914L37.6362 117.855L37.659 117.837L37.672 117.809L37.7049 117.76L37.7296 117.713L37.7412 117.676L37.7672 117.644L37.7867 117.576L37.8243 117.481L37.8503 117.373L37.8731 117.336L37.8847 117.289L37.9028 117.186L37.9255 117.144L37.932 117.094L37.9617 116.992L37.9682 116.945V116.892L38.0091 116.727L38.0421 116.69L38.0059 116.662L38.0124 116.62L38.0384 116.515L38.0532 116.413L38.0565 116.354L38.0598 116.305L38.0927 116.282L38.0911 116.24L38.1009 116.137L38.1204 116.039L38.1334 115.927L38.1496 115.827L38.158 115.749L38.1761 115.637L38.1777 115.585L38.1828 115.534L38.1894 115.481L38.1945 115.428L38.2205 115.331L38.2386 115.222L38.2502 115.175L38.2437 115.151L38.252 115.133L38.2423 115.086L38.265 115.044L38.2683 114.992L38.2813 114.887L38.2976 114.85L38.2925 114.796L38.3055 114.74L38.3038 114.687L38.3201 114.66V114.612L38.3428 114.584L38.3247 114.561L38.3363 114.529L38.3396 114.451L38.3412 114.394L38.3561 114.342L38.3626 114.293L38.384 114.256L38.3937 114.143L38.4053 114.031L38.4086 113.936L38.4281 113.839L38.4332 113.816L38.4481 113.802L38.4397 113.753L38.4414 113.702L38.4595 113.609L38.4711 113.563L38.4827 113.46L38.491 113.348L38.4827 113.306L38.5073 113.274L38.5189 113.227L38.5156 113.186L38.5254 113.144V113.096L38.527 113.046L38.5354 112.94L38.5535 112.898L38.5405 112.879L38.5553 112.865L38.5586 112.806L38.5603 112.749L38.5751 112.651L38.57 112.598L38.5895 112.561L38.6011 112.455L38.6127 112.355L38.6308 112.253V112.258V112.179L38.6457 112.129L38.6541 112.017L38.6624 111.971L38.6754 111.922L38.6884 111.903L38.6868 111.875L38.6919 111.818L38.6952 111.71L38.7035 111.659L38.7002 111.631L38.7249 111.538L38.7314 111.433L38.7365 111.328L38.743 111.267L38.7495 111.239L38.7708 111.23L38.7527 111.198L38.7741 111.161L38.7774 111.059L38.7857 110.954L38.7955 110.859L38.8168 110.739L38.8152 110.685L38.8268 110.636L38.8398 110.526L38.8528 110.484V110.431L38.8723 110.322L38.882 110.214L38.8837 110.186L38.8999 110.177L38.8869 110.163L38.8853 110.135L38.9099 110.05L38.9066 110.004L38.915 109.953L38.928 109.853L38.9364 109.807L38.9415 109.751L38.9545 109.701L38.961 109.643L38.9512 109.597L38.9758 109.588L38.9775 109.501L38.9826 109.45L38.9956 109.393V109.278L39.0253 109.185L39.0402 109.067L39.0369 109.021L39.0485 108.968L39.0699 108.922L39.0796 108.871L39.114 108.843L39.1191 108.811L39.1288 108.792L39.1353 108.769L39.1516 108.76L39.1581 108.718L39.1697 108.685L39.1781 108.648L39.1994 108.62V108.583V108.493L39.1911 108.419L39.1794 108.401L39.199 108.392L39.2041 108.364L39.2157 108.345L39.2584 108.313L39.2468 108.331L39.2746 108.333L39.3206 108.337L39.3633 108.314L39.375 108.291L39.3733 108.263L39.4208 108.202L39.4045 108.165L39.3785 108.133L39.3734 108.095L39.3507 108.072L39.3312 108.044L39.2821 108.03L39.2426 107.947L39.2442 107.894L39.2623 107.853L39.2559 107.82L39.2429 107.774L39.2591 107.727L39.2461 107.69L39.2791 107.613L39.2972 107.513L39.2988 107.404L39.3137 107.307L39.335 107.209L39.3448 107.12L39.3531 107.017L39.368 106.985L39.3697 106.943L39.3534 106.863L39.3599 106.844L39.3548 106.83L39.3497 106.816L39.3548 106.798L39.3743 106.765L39.3759 106.716L39.4267 106.635L39.4351 106.631L39.4416 106.603L39.4644 106.58L39.4806 106.509L39.5001 106.508L39.5052 106.494L39.5312 106.47L39.5902 106.438L39.6083 106.35L39.6478 106.286L39.6348 106.204L39.638 106.14L39.6397 106.117L39.6592 106.113L39.6625 106.095L39.6806 106.09L39.7149 106.071L39.7214 105.981L39.7265 105.895L39.7428 105.823L39.7623 105.776L39.7674 105.727L39.7558 105.685L39.7214 105.657L39.7377 105.602L39.7361 105.555L39.7491 105.546L39.744 105.527L39.7407 105.504L39.7504 105.49L39.7356 105.481L39.7272 105.458L39.7221 105.42L39.6647 105.444L39.5959 105.407L39.5811 105.335L39.5827 105.293L39.5678 105.26L39.5662 105.223L39.5876 105.218L39.5843 105.2L39.5959 105.118L39.5894 105.086L39.5945 105.039L39.5996 104.987L39.6029 104.945V104.908L39.6224 104.875L39.6257 104.843L39.6322 104.796L39.6373 104.764L39.6489 104.745L39.6472 104.727L39.6635 104.704L39.6816 104.671L39.6965 104.622L39.6881 104.585L39.6932 104.538L39.7081 104.501L39.7132 104.421L39.7229 104.34L39.7573 104.326L39.7754 104.289L39.777 104.201L39.7887 104.099L39.7854 104.067L39.7887 104.044L39.7854 104.025L39.8016 103.979L39.8132 103.941L39.8378 103.918H39.8773L39.8233 103.871L39.8265 103.824L39.8414 103.815L39.8465 103.797L39.8614 103.759L39.8433 103.718L39.8122 103.685L39.8205 103.643L39.8303 103.602L39.8386 103.583V103.56L39.8927 103.503L39.914 103.47L39.9386 103.465L39.9549 103.447L39.9744 103.272L39.9711 103.177L39.9484 103.153L39.9679 103.081L39.9744 103.049L39.9892 102.974L40.0255 102.915L39.986 102.858L40.0022 102.779L39.9841 102.702L40.0366 102.545L40.0774 102.464L40.0858 102.441L40.0988 102.432L40.1071 102.385L40.1136 102.305L40.1201 102.263L40.1499 102.204L40.1596 102.176L40.1726 102.126L40.1875 102.089L40.1842 102.042L40.1826 102.019L40.1696 102.014L40.1547 102.005L40.153 101.986L40.1479 101.945L40.1396 101.903L40.1544 101.87L40.1596 101.829L40.1679 101.791L40.1795 101.777L40.1879 101.759L40.2074 101.754L40.1976 101.736L40.2288 101.726L40.245 101.717L40.2417 101.699L40.2663 101.675" fill="black"/>
<path d="M178.007 92.3954C177.868 92.5152 177.739 92.7116 177.621 92.9901L172.953 103.931L168.522 93.049C168.304 92.4953 167.967 92.2168 167.511 92.2168C167.135 92.2168 166.792 92.3153 166.486 92.515C166.178 92.7114 166.024 92.9784 166.024 93.3176C166.024 93.475 166.066 93.6404 166.144 93.8075C166.224 93.976 166.303 94.1599 166.383 94.3579L171.584 106.905L169.415 111.78C169.315 111.978 169.25 112.145 169.22 112.284L169.178 112.642C169.178 112.979 169.296 113.241 169.534 113.431C169.773 113.618 170.059 113.713 170.397 113.713C170.713 113.713 170.951 113.644 171.109 113.505C171.268 113.366 171.417 113.158 171.555 112.879L179.674 94.2384C179.751 94.0596 179.826 93.8864 179.895 93.7175C179.966 93.5503 180 93.3966 180 93.2573C180 92.9215 179.851 92.6626 179.554 92.4841C179.256 92.3053 178.93 92.217 178.573 92.217C178.335 92.217 178.145 92.276 178.008 92.3954" fill="black"/>
<path d="M111.685 91.9203C110.496 91.9203 109.465 92.1692 108.594 92.6641C107.721 93.1588 107.077 93.814 106.661 94.6266C106.323 93.7944 105.773 93.1358 105.011 92.6493C104.248 92.1644 103.261 91.9203 102.052 91.9203C101.14 91.9203 100.381 92.0545 99.777 92.3215C99.1725 92.5885 98.6925 92.8916 98.3354 93.2291C97.9783 93.5667 97.726 93.8877 97.5769 94.194C97.4279 94.5019 97.3443 94.6854 97.3246 94.746V93.347C97.3246 92.9115 97.2198 92.6148 97.0117 92.4559C96.8037 92.2971 96.5023 92.2182 96.1058 92.2182C95.7094 92.2182 95.4113 92.2966 95.2147 92.4559C95.0148 92.6147 94.9165 92.9114 94.9165 93.347V106.371C94.9165 106.826 95.0246 107.137 95.2441 107.308C95.462 107.475 95.7683 107.558 96.1648 107.558C96.5612 107.558 96.8741 107.475 97.1018 107.308C97.3295 107.137 97.4442 106.824 97.4442 106.367V100.019C97.4442 99.3461 97.5081 98.6597 97.6358 97.9634C97.7652 97.2688 97.9782 96.6431 98.2764 96.0861C98.5728 95.5307 98.9791 95.0786 99.4952 94.7313C100.011 94.384 100.653 94.2104 101.428 94.2104C102.062 94.2104 102.581 94.2939 102.988 94.4625C103.394 94.631 103.717 94.8702 103.954 95.1783C104.192 95.4862 104.356 95.8698 104.446 96.3252C104.534 96.7821 104.578 97.2884 104.578 97.8454V106.516C104.578 107.212 105.016 107.558 105.887 107.558C106.7 107.558 107.106 107.213 107.106 106.516V100.049C107.106 99.3754 107.172 98.689 107.299 97.9944C107.427 97.2982 107.642 96.6724 107.94 96.1154C108.236 95.5617 108.643 95.103 109.157 94.7459C109.673 94.3888 110.317 94.2102 111.09 94.2102C111.724 94.2102 112.245 94.2938 112.651 94.4623C113.058 94.6309 113.38 94.87 113.618 95.1782C113.855 95.4861 114.019 95.8696 114.108 96.325C114.196 96.7819 114.242 97.2882 114.242 97.8452V106.516C114.242 107.212 114.678 107.558 115.549 107.558C116.364 107.558 116.768 107.213 116.768 106.518V97.0638C116.768 95.3208 116.313 94.0266 115.402 93.1829C114.489 92.3409 113.249 91.9199 111.685 91.9199" fill="black"/>
<path d="M129.938 104.109C129.145 105.14 128.004 105.656 126.519 105.656C125.033 105.656 123.891 105.14 123.098 104.109C122.305 103.079 121.91 101.662 121.91 99.8582C121.91 98.0546 122.305 96.6457 123.098 95.635C123.891 94.6242 125.033 94.1197 126.519 94.1197C128.004 94.1197 129.145 94.6242 129.938 95.635C130.729 96.6457 131.127 98.0546 131.127 99.8582C131.127 101.662 130.729 103.079 129.938 104.109ZM133.283 96.513C132.935 95.5318 132.439 94.6996 131.795 94.0148C131.151 93.3317 130.383 92.8107 129.492 92.4536C128.599 92.0965 127.608 91.918 126.519 91.918C125.428 91.918 124.438 92.0967 123.545 92.4536C122.652 92.8107 121.884 93.3317 121.24 94.0148C120.597 94.6996 120.1 95.5318 119.755 96.513C119.407 97.4943 119.234 98.61 119.234 99.8582C119.234 101.107 119.407 102.227 119.755 103.216C120.1 104.209 120.597 105.046 121.24 105.73C121.884 106.413 122.652 106.938 123.545 107.305C124.438 107.672 125.428 107.854 126.519 107.854C127.608 107.854 128.599 107.672 129.492 107.305C130.383 106.939 131.151 106.413 131.795 105.73C132.439 105.046 132.935 104.209 133.283 103.216C133.628 102.227 133.802 101.107 133.802 99.8582C133.802 98.61 133.628 97.4943 133.283 96.513Z" fill="black"/>
<path d="M143.789 91.9199C142.819 91.9199 142.01 92.069 141.366 92.3657C140.722 92.6638 140.201 92.9915 139.805 93.347C139.33 93.763 138.953 94.23 138.676 94.746V93.347C138.676 92.9114 138.571 92.6147 138.363 92.4558C138.155 92.297 137.852 92.218 137.456 92.218C137.059 92.218 136.763 92.2965 136.565 92.4558C136.366 92.6146 136.266 92.9114 136.266 93.347V106.371C136.266 106.826 136.376 107.137 136.594 107.308C136.812 107.475 137.12 107.558 137.516 107.558C137.913 107.558 138.224 107.475 138.452 107.308C138.681 107.137 138.794 106.826 138.794 106.371V100.037C138.794 99.364 138.878 98.6841 139.047 98.001C139.215 97.3162 139.474 96.697 139.82 96.1417C140.167 95.588 140.618 95.1358 141.173 94.7902C141.728 94.4428 142.392 94.2692 143.165 94.2692C144.433 94.2692 145.311 94.5757 145.796 95.1915C146.282 95.8058 146.525 96.697 146.525 97.8666V106.518C146.525 107.212 146.961 107.558 147.834 107.558C148.646 107.558 149.051 107.213 149.051 106.518V97.2425C149.051 95.4389 148.566 94.1005 147.595 93.229C146.623 92.3575 145.355 91.9201 143.789 91.9201" fill="black"/>
<path d="M154.311 98.3707C154.37 97.7958 154.504 97.2469 154.714 96.7211C154.922 96.1952 155.207 95.7399 155.564 95.3532C155.921 94.9664 156.36 94.6603 156.877 94.4309C157.394 94.2048 158 94.0901 158.697 94.0901C159.391 94.0901 159.999 94.2081 160.517 94.4454C161.033 94.6845 161.465 94.9958 161.814 95.3824C162.161 95.7692 162.432 96.226 162.618 96.7503C162.808 97.2761 162.933 97.8168 162.994 98.3705L154.311 98.3707ZM165.519 99.5306C165.519 98.4608 165.37 97.46 165.074 96.5278C164.776 95.5957 164.34 94.7881 163.766 94.105C163.191 93.4202 162.476 92.8861 161.625 92.4995C160.772 92.1131 159.792 91.918 158.681 91.918C157.59 91.918 156.604 92.113 155.723 92.4995C154.84 92.8863 154.088 93.43 153.464 94.1344C152.84 94.8372 152.358 95.6759 152.021 96.6457C151.685 97.6171 151.516 98.6984 151.516 99.8877C151.516 101.056 151.685 102.132 152.021 103.113C152.358 104.095 152.845 104.937 153.479 105.639C154.113 106.344 154.881 106.889 155.782 107.276C156.685 107.663 157.69 107.854 158.799 107.854C159.653 107.854 160.395 107.756 161.031 107.557C161.665 107.359 162.205 107.112 162.649 106.814C163.098 106.517 163.463 106.204 163.752 105.878C164.038 105.55 164.271 105.249 164.45 104.971C164.667 104.616 164.776 104.307 164.776 104.05C164.776 103.752 164.643 103.514 164.376 103.336C164.107 103.157 163.835 103.069 163.558 103.069C163.3 103.069 163.106 103.118 162.978 103.216C162.849 103.318 162.715 103.465 162.577 103.663C162.457 103.822 162.304 104.009 162.115 104.228C161.927 104.446 161.684 104.658 161.386 104.866C161.089 105.074 160.728 105.252 160.302 105.401C159.876 105.55 159.376 105.626 158.799 105.626C157.333 105.626 156.198 105.188 155.395 104.317C154.593 103.445 154.191 102.205 154.191 100.6H164.3C165.113 100.6 165.519 100.245 165.519 99.53" fill="black"/>
</svg>
