<svg width="132" height="186" viewBox="0 0 132 186" fill="none" xmlns="http://www.w3.org/2000/svg">
<g clip-path="url(#clip0)">
<path d="M26.3371 0.0549007C34.4885 -0.0460215 42.6399 0.0238477 50.7914 0.0199661C50.8108 2.57019 50.8496 5.12042 50.7564 7.67064C45.1087 7.63183 39.4648 7.67064 33.8209 7.70558C33.7821 11.4086 33.7083 15.1117 33.7433 18.8148C39.4104 18.8497 45.0815 18.9041 50.7487 18.8808C50.8146 20.9768 50.7914 23.0807 50.7293 25.1806C42.6011 25.1263 34.473 25.1496 26.3449 25.1573C26.3643 16.7886 26.3798 8.42368 26.3371 0.0549007Z" fill="#1B1F23"/>
<path d="M53.6986 0.0284312C61.9509 0.0129047 70.2033 -0.0375564 78.4595 0.0556026C78.4284 2.46609 78.4517 4.8727 78.4517 7.28318C72.4468 7.26377 66.4381 7.29095 60.4332 7.36082C60.441 8.30793 60.441 9.25505 60.4332 10.2022C66.4303 10.2992 72.4235 10.3108 78.4168 10.3458C78.4401 15.2871 78.4284 20.2245 78.4595 25.1619C70.2033 25.1464 61.9471 25.1542 53.6908 25.193C53.6482 23.1978 53.6443 21.2066 53.7025 19.2114C59.424 19.2269 65.1494 19.2347 70.8709 19.1881C70.9058 17.9033 70.9214 16.6146 70.9175 15.3298C65.1688 15.3298 59.4162 15.3492 53.6676 15.3104C53.6676 10.2177 53.6676 5.12112 53.6986 0.0284312Z" fill="#1B1F23"/>
<path d="M81.2233 0.0710602C89.4601 0.0710602 97.7008 0.0710602 105.938 0.0710602C105.973 2.49319 106.007 4.91532 105.93 7.33357C99.8978 7.32969 93.8658 7.36463 87.8337 7.37627C87.8492 8.36609 87.8725 9.3559 87.923 10.3457C93.9201 10.3185 99.9172 10.3923 105.91 10.4544C105.965 15.3724 106.004 20.2904 105.934 25.2084C97.6775 25.1852 89.4213 25.1852 81.1651 25.224C81.1146 23.2366 81.0991 21.2414 81.1845 19.254C86.8944 19.2967 92.6081 19.289 98.3219 19.2346C98.3374 17.9459 98.3646 16.6572 98.3529 15.3724C92.6198 15.4268 86.8827 15.3957 81.1457 15.3763C81.1457 10.2758 81.1845 5.17151 81.2233 0.0710602Z" fill="#1B1F23"/>
<path d="M-0.2015 35.5717C44.0179 35.5678 88.2335 35.5639 132.453 35.5717C130.019 63.073 127.624 90.5743 125.089 118.068C123.583 135.64 122.031 153.212 120.393 170.772C110.956 173.272 101.613 176.121 92.1811 178.633C83.5173 181.175 74.7837 183.477 66.116 186H65.8598C57.6114 183.547 49.2814 181.389 41.033 178.935C31.2979 176.312 21.6481 173.385 11.9092 170.772C10.6399 157.61 9.49479 144.44 8.36524 131.269C6.23423 106.935 3.9169 82.6169 1.8674 58.2792C1.15707 50.9545 0.648575 43.6066 -0.2015 36.2975V35.5717ZM66.3334 46.4208C66.2402 51.7037 66.4032 56.9905 66.2402 62.2695C51.0708 62.2151 35.8976 62.2578 20.7282 62.2734C20.9883 67.401 21.6753 72.4937 22.3818 77.5786C36.4954 78.1026 50.6283 77.5592 64.7419 77.9823C52.3945 83.5213 39.8957 88.7382 27.4939 94.1609C26.4303 94.6344 25.293 94.9915 24.342 95.6825C24.4468 101.315 25.3551 106.916 25.7549 112.536C33.2775 112.509 40.7962 112.389 48.3188 112.377C54.3469 112.346 60.379 112.467 66.4071 112.335C66.1199 121.596 66.4964 130.869 66.213 140.131C62.1568 139.529 58.1509 138.625 54.1101 137.907C50.9233 137.212 47.6589 136.851 44.5187 135.939C44.0723 131.494 43.7617 127.034 43.3658 122.586C42.4575 122.307 41.4949 122.334 40.5555 122.318C35.9985 122.345 31.4376 122.303 26.8767 122.372C27.3231 130.924 28.0916 139.463 29.3997 147.933C33.8947 149.105 38.3973 150.254 42.8845 151.477C49.7589 153.348 56.7186 154.904 63.6046 156.744C64.4236 156.919 65.2504 157.222 66.1005 157.152C66.5585 162.776 66.2053 168.436 66.2907 174.076C67.8783 173.82 69.4387 173.427 70.9719 172.954C84.0064 169.414 97.0254 165.808 110.052 162.233C110.7 157.109 111.003 151.95 111.515 146.815C112.87 131.203 114.236 115.591 115.657 99.9833C117.322 82.1278 118.762 64.253 120.439 46.3975C102.401 46.413 84.3674 46.3626 66.3334 46.4208Z" fill="#0170BA"/>
<path d="M66.3334 46.421C84.3674 46.3628 102.401 46.4133 120.439 46.3977C118.762 64.2532 117.322 82.1281 115.657 99.9835C114.236 115.592 112.87 131.203 111.515 146.815C111.003 151.951 110.7 157.109 110.052 162.233C97.0254 165.808 84.0064 169.414 70.9719 172.954C69.4387 173.428 67.8783 173.82 66.2907 174.076C66.2053 168.436 66.5585 162.777 66.1005 157.152C66.217 157.129 66.4537 157.082 66.5702 157.059C78.6925 154.016 90.7333 150.666 102.828 147.514C104.358 130.357 106.054 113.208 107.129 96.0165C96.8429 96.0708 86.5528 96.0398 76.2665 96.0825C74.7682 96.0903 73.2699 96.0825 71.7793 95.9738C77.3145 93.1247 83.1369 90.8656 88.8196 88.3231C94.2733 85.8505 99.793 83.5332 105.266 81.1072C106.322 80.622 107.448 80.2183 108.375 79.4963C108.74 78.1572 108.721 76.7559 108.864 75.3857C109.179 71.0383 109.738 66.7141 109.947 62.3628C95.3796 62.2464 80.8118 62.3473 66.2402 62.2697C66.4033 56.9907 66.2402 51.7039 66.3334 46.421Z" fill="#29A9DF"/>
<path d="M66.407 112.334C73.4405 112.214 80.4779 112.404 87.5153 112.357C87.1232 119.55 86.5255 126.731 86.1528 133.924C81.8404 135.333 77.4619 136.524 73.1145 137.829C70.7971 138.535 68.4177 139.094 66.2129 140.13C66.4963 130.869 66.1198 121.596 66.407 112.334Z" fill="#29A9DF"/>
<path d="M20.7282 62.2737C35.8976 62.2581 51.0709 62.2154 66.2402 62.2698C66.4382 78.9607 66.1898 95.6517 66.4071 112.335C60.379 112.467 54.3469 112.347 48.3188 112.378C40.7962 112.389 33.2775 112.51 25.7549 112.537C25.3551 106.916 24.4468 101.315 24.342 95.6828C25.293 94.9918 26.4303 94.6347 27.4939 94.1612C39.8957 88.7386 52.3945 83.5217 64.7419 77.9826C50.6283 77.5595 36.4954 78.1029 22.3818 77.5789C21.6753 72.494 20.9883 67.4013 20.7282 62.2737Z" fill="#CFCFCF"/>
<path d="M26.8767 122.373C31.4376 122.303 35.9985 122.346 40.5555 122.319C41.4949 122.334 42.4575 122.307 43.3658 122.587C43.7618 127.035 44.0723 131.495 44.5187 135.939C47.6589 136.852 50.9233 137.213 54.1102 137.907C58.1509 138.626 62.1568 139.53 66.2131 140.132C66.6012 145.768 65.9219 151.443 66.5702 157.059C66.4537 157.083 66.2169 157.129 66.1005 157.153C65.2504 157.222 64.4236 156.92 63.6046 156.745C56.7186 154.905 49.7589 153.349 42.8845 151.478C38.3974 150.255 33.8947 149.106 29.3998 147.934C28.0917 139.464 27.3231 130.924 26.8767 122.373Z" fill="#CFCFCF"/>
<path d="M66.2401 62.2695C80.8117 62.3471 95.3794 62.2462 109.947 62.3627C109.738 66.714 109.179 71.0381 108.864 75.3855C108.721 76.7557 108.74 78.157 108.375 79.4962C107.447 80.2181 106.322 80.6218 105.266 81.107C99.7928 83.533 94.2732 85.8504 88.8195 88.323C83.1368 90.8654 77.3144 93.1245 71.7792 95.9736C73.2697 96.0823 74.768 96.0901 76.2663 96.0823C86.5526 96.0396 96.8428 96.0707 107.129 96.0163C106.054 113.208 104.358 130.357 102.828 147.514C90.7331 150.666 78.6923 154.016 66.57 157.059C65.9218 151.442 66.6011 145.767 66.2129 140.131C68.4177 139.095 70.7971 138.536 73.1145 137.829C77.4619 136.525 81.8403 135.333 86.1528 133.924C86.5255 126.732 87.1232 119.551 87.5153 112.358C80.4779 112.405 73.4405 112.214 66.407 112.335C66.1896 95.6515 66.4381 78.9605 66.2401 62.2695Z" fill="white"/>
</g>
<defs>
<clipPath id="clip0">
<rect width="132" height="186" fill="white"/>
</clipPath>
</defs>
</svg>
