<svg width="512" height="512" viewBox="0 0 512 512" fill="none" xmlns="http://www.w3.org/2000/svg">
<g clip-path="url(#clip0)">
<path d="M146.928 1.15087C169.328 0.873533 191.728 1.06553 214.128 1.05487C214.181 8.06287 214.288 15.0709 214.032 22.0789C198.512 21.9722 183.003 22.0789 167.493 22.1749C167.387 32.3509 167.184 42.5269 167.28 52.7029C182.853 52.7989 198.437 52.9482 214.011 52.8842C214.192 58.6442 214.128 64.4255 213.957 70.1962C191.621 70.0469 169.285 70.1109 146.949 70.1322C147.003 47.1349 147.045 24.1482 146.928 1.15087Z" fill="white" fill-opacity="0.85"/>
<path d="M222.117 1.07625C244.795 1.03358 267.472 0.894918 290.16 1.15092C290.075 7.77492 290.139 14.3883 290.139 21.0123C273.637 20.9589 257.125 21.0336 240.624 21.2256C240.645 23.8283 240.645 26.4309 240.624 29.0336C257.104 29.3003 273.573 29.3323 290.043 29.4283C290.107 43.0069 290.075 56.5749 290.16 70.1429C267.472 70.1003 244.784 70.1216 222.096 70.2283C221.979 64.7456 221.968 59.2736 222.128 53.7909C237.851 53.8336 253.584 53.8549 269.307 53.7269C269.403 50.1963 269.445 46.6549 269.435 43.1243C253.637 43.1243 237.829 43.1776 222.032 43.0709C222.032 29.0763 222.032 15.0709 222.117 1.07625Z" fill="white" fill-opacity="0.85"/>
<path d="M297.755 1.19348C320.389 1.19348 343.035 1.19348 365.669 1.19348C365.765 7.84948 365.861 14.5055 365.648 21.1508C349.072 21.1401 332.496 21.2361 315.92 21.2681C315.963 23.9881 316.027 26.7081 316.165 29.4281C332.645 29.3535 349.125 29.5561 365.595 29.7268C365.744 43.2415 365.851 56.7561 365.659 70.2708C342.971 70.2068 320.283 70.2068 297.595 70.3135C297.456 64.8521 297.413 59.3695 297.648 53.9081C313.339 54.0255 329.04 54.0041 344.741 53.8548C344.784 50.3135 344.859 46.7721 344.827 43.2415C329.072 43.3908 313.307 43.3055 297.541 43.2521C297.541 29.2361 297.648 15.2095 297.755 1.19348Z" fill="white" fill-opacity="0.85"/>
<path d="M74 98.7508C195.515 98.7402 317.019 98.7295 438.533 98.7508C431.845 174.324 425.264 249.897 418.299 325.449C414.16 373.737 409.893 422.025 405.392 470.281C379.461 477.151 353.787 484.98 327.867 491.881C304.059 498.868 280.059 505.193 256.24 512.127H255.536C232.869 505.385 209.979 499.455 187.312 492.713C160.56 485.503 134.043 477.46 107.28 470.281C103.792 434.111 100.645 397.919 97.5413 361.727C91.6853 294.857 85.3173 228.031 79.6853 161.151C77.7333 141.023 76.336 120.831 74 100.746V98.7508ZM256.837 128.564C256.581 143.082 257.029 157.61 256.581 172.116C214.896 171.967 173.2 172.084 131.515 172.127C132.229 186.217 134.117 200.212 136.059 214.185C174.843 215.625 213.68 214.132 252.464 215.295C218.533 230.516 184.187 244.852 150.107 259.753C147.184 261.055 144.059 262.036 141.445 263.935C141.733 279.412 144.229 294.804 145.328 310.249C166 310.175 186.661 309.844 207.333 309.812C223.899 309.727 240.475 310.057 257.04 309.695C256.251 335.145 257.285 360.628 256.507 386.079C245.36 384.425 234.352 381.94 223.248 379.967C214.491 378.057 205.52 377.065 196.891 374.559C195.664 362.345 194.811 350.089 193.723 337.865C191.227 337.098 188.581 337.172 186 337.13C173.477 337.204 160.944 337.087 148.411 337.279C149.637 360.777 151.749 384.244 155.344 407.519C167.696 410.74 180.069 413.897 192.4 417.257C211.291 422.399 230.416 426.676 249.339 431.732C251.589 432.212 253.861 433.044 256.197 432.852C257.456 448.308 256.485 463.86 256.72 479.359C261.083 478.655 265.371 477.577 269.584 476.276C305.403 466.548 341.179 456.639 376.976 446.815C378.757 432.735 379.589 418.559 380.997 404.447C384.72 361.545 388.475 318.644 392.379 275.753C396.955 226.687 400.912 177.567 405.52 128.5C355.952 128.543 306.395 128.404 256.837 128.564Z" fill="#0170BA"/>
<path d="M256.837 128.564C306.395 128.404 355.952 128.543 405.52 128.5C400.912 177.567 396.955 226.687 392.379 275.753C388.475 318.644 384.72 361.545 380.997 404.447C379.589 418.559 378.757 432.735 376.976 446.815C341.179 456.639 305.403 466.548 269.584 476.276C265.371 477.577 261.083 478.655 256.72 479.359C256.485 463.86 257.456 448.308 256.197 432.852C256.517 432.788 257.168 432.66 257.488 432.596C290.8 424.233 323.888 415.028 357.125 406.367C361.328 359.22 365.989 312.095 368.944 264.852C340.677 265.001 312.4 264.916 284.133 265.033C280.016 265.055 275.899 265.033 271.803 264.735C287.013 256.905 303.013 250.697 318.629 243.711C333.616 236.916 348.784 230.548 363.824 223.881C366.725 222.548 369.819 221.439 372.368 219.455C373.371 215.775 373.317 211.924 373.712 208.159C374.576 196.212 376.112 184.329 376.688 172.372C336.656 172.052 296.624 172.329 256.581 172.116C257.029 157.609 256.581 143.081 256.837 128.564Z" fill="#29A9DF"/>
<path d="M257.04 309.695C276.368 309.364 295.707 309.887 315.045 309.759C313.968 329.524 312.325 349.257 311.301 369.023C299.451 372.895 287.419 376.169 275.472 379.753C269.104 381.695 262.565 383.231 256.507 386.079C257.285 360.628 256.251 335.145 257.04 309.695Z" fill="#29A9DF"/>
<path d="M131.515 172.127C173.2 172.084 214.896 171.967 256.581 172.116C257.125 217.983 256.443 263.849 257.04 309.695C240.475 310.057 223.899 309.727 207.333 309.812C186.661 309.844 166 310.175 145.328 310.249C144.229 294.804 141.733 279.412 141.445 263.935C144.059 262.036 147.184 261.055 150.107 259.753C184.187 244.852 218.533 230.516 252.464 215.295C213.68 214.132 174.843 215.625 136.059 214.185C134.117 200.212 132.229 186.217 131.515 172.127Z" fill="#CFCFCF"/>
<path d="M148.411 337.279C160.944 337.087 173.477 337.204 186 337.129C188.581 337.172 191.227 337.097 193.723 337.865C194.811 350.089 195.664 362.345 196.891 374.559C205.52 377.065 214.491 378.057 223.248 379.967C234.352 381.94 245.36 384.425 256.507 386.079C257.573 401.567 255.707 417.161 257.488 432.596C257.168 432.66 256.517 432.788 256.197 432.852C253.861 433.044 251.589 432.212 249.339 431.732C230.416 426.676 211.291 422.399 192.4 417.257C180.069 413.897 167.696 410.74 155.344 407.519C151.749 384.244 149.637 360.777 148.411 337.279Z" fill="#CFCFCF"/>
<path d="M256.581 172.116C296.624 172.33 336.656 172.052 376.688 172.372C376.112 184.33 374.576 196.212 373.712 208.159C373.317 211.924 373.371 215.775 372.368 219.455C369.819 221.439 366.725 222.548 363.824 223.882C348.784 230.548 333.616 236.916 318.629 243.711C303.013 250.698 287.013 256.906 271.803 264.735C275.899 265.034 280.016 265.055 284.133 265.034C312.4 264.916 340.677 265.002 368.944 264.852C365.989 312.095 361.328 359.22 357.125 406.367C323.888 415.028 290.8 424.234 257.488 432.596C255.707 417.162 257.573 401.567 256.507 386.079C262.565 383.231 269.104 381.695 275.472 379.754C287.419 376.17 299.451 372.895 311.301 369.023C312.325 349.258 313.968 329.524 315.045 309.759C295.707 309.887 276.368 309.364 257.04 309.695C256.443 263.85 257.125 217.983 256.581 172.116Z" fill="white"/>
</g>
<defs>
<clipPath id="clip0">
<rect width="512" height="512" fill="white"/>
</clipPath>
</defs>
</svg>
