<svg width="244" height="244" viewBox="0 0 244 244" fill="none" xmlns="http://www.w3.org/2000/svg">
<path fill-rule="evenodd" clip-rule="evenodd" d="M122 0C54.595 0 0 54.595 0 122C0 175.985 34.9225 221.583 83.4175 237.748C89.5175 238.815 91.805 235.155 91.805 231.953C91.805 229.055 91.6525 219.448 91.6525 209.23C61 214.873 53.07 201.757 50.63 194.895C49.2575 191.387 43.31 180.56 38.125 177.662C33.855 175.375 27.755 169.732 37.9725 169.58C47.58 169.427 54.4425 178.425 56.73 182.085C67.71 200.537 85.2475 195.353 92.2625 192.15C93.33 184.22 96.5325 178.882 100.04 175.832C72.895 172.782 44.53 162.26 44.53 115.595C44.53 102.327 49.2575 91.3475 57.035 82.8075C55.815 79.7575 51.545 67.2525 58.255 50.4775C58.255 50.4775 68.4725 47.275 91.805 62.9825C101.565 60.2375 111.935 58.865 122.305 58.865C132.675 58.865 143.045 60.2375 152.805 62.9825C176.138 47.1225 186.355 50.4775 186.355 50.4775C193.065 67.2525 188.795 79.7575 187.575 82.8075C195.353 91.3475 200.08 102.175 200.08 115.595C200.08 162.412 171.563 172.782 144.418 175.832C148.84 179.645 152.653 186.965 152.653 198.403C152.653 214.72 152.5 227.835 152.5 231.953C152.5 235.155 154.788 238.968 160.888 237.748C209.078 221.583 244 175.832 244 122C244 54.595 189.405 0 122 0Z" fill="white"/>
</svg>
