<svg width="200" height="200" viewBox="0 0 200 200" fill="none" xmlns="http://www.w3.org/2000/svg">
<path d="M45.0372 116.386L41.3935 127.339H39.2116L36.8552 119.55L34.5206 127.339H32.3605L28.7168 116.386H31.1605L33.6042 124.634L35.917 116.386H37.8152L40.1934 124.677L42.6808 116.386H45.0372ZM52.3595 116.146C53.5522 116.146 54.5632 116.437 55.3923 117.019C56.236 117.586 56.6505 118.51 56.636 119.79V125.027C56.636 126.016 56.1996 126.707 55.3268 127.099C54.4541 127.478 53.2104 127.667 51.5958 127.667C50.3012 127.667 49.2321 127.398 48.3885 126.859C47.5448 126.321 47.123 125.419 47.123 124.154C47.123 122.961 47.4648 122.066 48.1484 121.47C48.8466 120.874 49.8285 120.576 51.094 120.576C52.4031 120.576 53.4941 120.837 54.3668 121.361V120.314C54.3668 118.83 53.4722 118.088 51.6831 118.088C51.0431 118.088 50.4031 118.19 49.763 118.394C49.123 118.583 48.5921 118.852 48.1703 119.201V117.063C48.5775 116.801 49.1667 116.583 49.9376 116.408C50.7231 116.234 51.5304 116.146 52.3595 116.146ZM51.8576 125.877C52.774 125.877 53.4213 125.812 53.7995 125.681C54.1777 125.55 54.3668 125.288 54.3668 124.896V122.779C53.625 122.459 52.8104 122.299 51.9231 122.299C51.094 122.299 50.4612 122.445 50.0249 122.736C49.603 123.027 49.3921 123.463 49.3921 124.045C49.3921 124.656 49.6321 125.114 50.1121 125.419C50.6067 125.725 51.1885 125.877 51.8576 125.877ZM60.2039 127.339V112.241H62.473V127.339H60.2039ZM66.0284 127.339V112.241H68.2976V127.339H66.0284ZM76.3695 116.124C78.0714 116.124 79.3151 116.677 80.1006 117.783C80.9006 118.874 81.2933 120.408 81.2788 122.386H73.5986C73.6713 123.463 73.984 124.285 74.5368 124.852C75.1041 125.405 75.9041 125.681 76.9368 125.681C77.6059 125.681 78.246 125.601 78.8569 125.441C79.4678 125.267 80.006 125.048 80.4715 124.787V126.925C79.3369 127.419 78.035 127.667 76.5659 127.667C74.9222 127.667 73.6276 127.172 72.6822 126.183C71.7512 125.179 71.2858 123.761 71.2858 121.928C71.2858 120.052 71.7294 118.619 72.6167 117.63C73.504 116.626 74.755 116.124 76.3695 116.124ZM76.3041 118.001C75.5332 118.001 74.9295 118.205 74.4931 118.612C74.0567 119.019 73.7731 119.71 73.6422 120.685H78.9442C78.8423 119.754 78.5805 119.077 78.1587 118.655C77.7369 118.219 77.1187 118.001 76.3041 118.001ZM93.4876 116.386L88.9711 128.016C88.0402 130.387 86.7819 131.572 85.1964 131.572C84.6292 131.572 84.1491 131.485 83.7564 131.31V129.347C84.1201 129.492 84.4837 129.565 84.8473 129.565C85.4146 129.565 85.8583 129.376 86.1783 128.998C86.5128 128.619 86.7965 128.045 87.0292 127.274L82.5564 116.386H85.1528L88.142 124.568L91.1093 116.386H93.4876ZM101.2 116.146C102.829 116.146 104.066 116.634 104.909 117.608C105.753 118.583 106.175 119.965 106.175 121.754C106.175 123.907 105.666 125.434 104.647 126.336C103.644 127.223 102.364 127.667 100.807 127.667C97.6799 127.667 96.1162 126.838 96.1162 125.179V112.001H98.3854V116.823C98.8072 116.619 99.28 116.459 99.8036 116.343C100.342 116.212 100.807 116.146 101.2 116.146ZM100.633 125.681C101.826 125.681 102.655 125.339 103.12 124.656C103.6 123.972 103.84 123.034 103.84 121.841C103.84 120.619 103.586 119.688 103.076 119.048C102.582 118.408 101.84 118.088 100.851 118.088C100.444 118.088 100.015 118.146 99.5636 118.263C99.1272 118.365 98.7345 118.517 98.3854 118.721V124.612C98.3854 125.325 99.1345 125.681 100.633 125.681ZM113.899 116.146C115.092 116.146 116.102 116.437 116.932 117.019C117.775 117.586 118.19 118.51 118.175 119.79V125.027C118.175 126.016 117.739 126.707 116.866 127.099C115.993 127.478 114.75 127.667 113.135 127.667C111.841 127.667 110.771 127.398 109.928 126.859C109.084 126.321 108.662 125.419 108.662 124.154C108.662 122.961 109.004 122.066 109.688 121.47C110.386 120.874 111.368 120.576 112.633 120.576C113.942 120.576 115.033 120.837 115.906 121.361V120.314C115.906 118.83 115.012 118.088 113.222 118.088C112.582 118.088 111.942 118.19 111.302 118.394C110.662 118.583 110.131 118.852 109.71 119.201V117.063C110.117 116.801 110.706 116.583 111.477 116.408C112.262 116.234 113.07 116.146 113.899 116.146ZM113.397 125.877C114.313 125.877 114.961 125.812 115.339 125.681C115.717 125.55 115.906 125.288 115.906 124.896V122.779C115.164 122.459 114.35 122.299 113.462 122.299C112.633 122.299 112.001 122.445 111.564 122.736C111.142 123.027 110.931 123.463 110.931 124.045C110.931 124.656 111.171 125.114 111.651 125.419C112.146 125.725 112.728 125.877 113.397 125.877ZM121.743 117.281C122.398 116.946 123.19 116.677 124.121 116.474C125.067 116.255 125.969 116.146 126.827 116.146C128.354 116.146 129.482 116.466 130.209 117.106C130.936 117.746 131.3 118.743 131.3 120.096V127.339H129.009V120.401C129.009 118.874 128.143 118.11 126.412 118.11C125.583 118.11 124.79 118.248 124.034 118.525V127.339H121.743V117.281ZM139.895 116.146C142.862 116.146 144.346 117.085 144.346 118.961V131.856H142.077V127.012C141.67 127.23 141.219 127.39 140.724 127.492C140.244 127.594 139.808 127.645 139.415 127.645C137.771 127.645 136.506 127.158 135.619 126.183C134.731 125.208 134.288 123.848 134.288 122.103C134.288 118.132 136.157 116.146 139.895 116.146ZM136.622 122.016C136.622 123.194 136.891 124.103 137.429 124.743C137.982 125.383 138.753 125.703 139.742 125.703C140.586 125.703 141.364 125.492 142.077 125.07V119.223C142.077 118.874 141.851 118.605 141.401 118.415C140.964 118.226 140.455 118.132 139.873 118.132C138.651 118.132 137.8 118.474 137.32 119.157C136.855 119.841 136.622 120.794 136.622 122.016ZM152.746 127.667C151.219 127.667 150.026 127.296 149.168 126.554C148.325 125.797 147.903 124.699 147.903 123.259V116.386H150.194V122.932C150.194 123.863 150.397 124.554 150.805 125.005C151.226 125.441 151.874 125.659 152.746 125.659C153.619 125.659 154.259 125.441 154.667 125.005C155.088 124.554 155.299 123.863 155.299 122.932V116.386H157.503V123.259C157.503 124.699 157.088 125.797 156.259 126.554C155.43 127.296 154.259 127.667 152.746 127.667ZM165.574 116.124C167.275 116.124 168.519 116.677 169.305 117.783C170.105 118.874 170.497 120.408 170.483 122.386H162.803C162.875 123.463 163.188 124.285 163.741 124.852C164.308 125.405 165.108 125.681 166.141 125.681C166.81 125.681 167.45 125.601 168.061 125.441C168.672 125.267 169.21 125.048 169.675 124.787V126.925C168.541 127.419 167.239 127.667 165.77 127.667C164.126 127.667 162.832 127.172 161.886 126.183C160.955 125.179 160.49 123.761 160.49 121.928C160.49 120.052 160.933 118.619 161.821 117.63C162.708 116.626 163.959 116.124 165.574 116.124ZM165.508 118.001C164.737 118.001 164.133 118.205 163.697 118.612C163.261 119.019 162.977 119.71 162.846 120.685H168.148C168.046 119.754 167.785 119.077 167.363 118.655C166.941 118.219 166.323 118.001 165.508 118.001Z" fill="black"/>
<path d="M101.483 78.6989L108.487 92.3476L119.869 67" stroke="black" stroke-width="7.99717" stroke-linecap="round" stroke-linejoin="round"/>
<path d="M91.5359 92.3476L80.1542 67" stroke="black" stroke-width="7.99717" stroke-linecap="round" stroke-linejoin="round"/>
</svg>
